<svg width="61" height="61" viewBox="0 0 61 61" fill="none" xmlns="http://www.w3.org/2000/svg">
<path id="Vector" d="M61 7.80233V11.3488H0V7.80233C0 3.48977 3.48977 0 7.80233 0H53.1977C57.5102 0 61 3.48977 61 7.80233ZM61 15.6047V53.1977C61 57.5102 57.5102 61 53.1977 61H7.80233C3.48977 61 0 57.5102 0 53.1977V15.6047H61ZM16.0019 36.1744L21.5912 30.5851C22.4423 29.7623 22.4423 28.4005 21.5912 27.5777C20.7684 26.7549 19.4349 26.7549 18.5837 27.5777L11.4907 34.6707C10.6679 35.4935 10.6679 36.8553 11.4907 37.6781L18.5837 44.7712C19.0093 45.1967 19.5484 45.3953 20.0874 45.3953C20.6265 45.3953 21.194 45.1967 21.5912 44.7712C22.4423 43.9484 22.4423 42.5865 21.5912 41.7637L16.0019 36.1744ZM34.5856 22.7828C33.4507 22.4423 32.2874 23.0949 31.947 24.2014L24.9958 46.8991C24.6553 48.034 25.2795 49.2256 26.4144 49.566C26.613 49.6228 26.8116 49.6512 27.0386 49.6512C27.9465 49.6512 28.7977 49.0553 29.053 48.1474L36.0042 25.4498C36.3447 24.3149 35.7205 23.1233 34.5856 22.7828ZM49.5093 34.6707L42.4163 27.5777C41.5651 26.7549 40.2316 26.7549 39.4088 27.5777C38.5577 28.4005 38.5577 29.7623 39.4088 30.5851L44.9981 36.1744L39.4088 41.7637C38.5577 42.5865 38.5577 43.9484 39.4088 44.7712C39.806 45.1967 40.3451 45.3953 40.9126 45.3953C41.48 45.3953 41.9907 45.1967 42.4163 44.7712L49.5093 37.6781C50.3321 36.8553 50.3321 35.4935 49.5093 34.6707Z" fill="url(#paint0_linear_213_107)"/>
<defs>
<linearGradient id="paint0_linear_213_107" x1="76.7278" y1="-41.4666" x2="8.09023" y2="61.0007" gradientUnits="userSpaceOnUse">
<stop stop-color="#FADE84"/>
<stop offset="1" stop-color="#FAB55A"/>
</linearGradient>
</defs>
</svg>
