<svg width="59" height="62" viewBox="0 0 59 62" fill="none" xmlns="http://www.w3.org/2000/svg">
<g id="Group 479">
<g id="Group">
<g id="Group_2">
<path id="Vector" d="M46.5811 7.99219C41.4274 2.83844 34.5747 0 27.2861 0C19.9986 0 13.1459 2.83844 7.99219 7.99219C2.83844 13.1459 0 19.9986 0 27.2861C0 34.5747 2.83844 41.4274 7.99219 46.5811C13.1459 51.7349 19.9986 54.5733 27.2861 54.5733C30.8789 54.5733 34.3664 53.8831 37.596 52.5656L35.92 46.3075C33.2875 47.5075 30.363 48.1759 27.2861 48.1759C15.7688 48.1759 6.39738 38.8045 6.39738 27.2861C6.39738 15.7688 15.7688 6.39738 27.2861 6.39738C38.8045 6.39738 48.1759 15.7688 48.1759 27.2861C48.1759 32.131 46.517 36.597 43.7391 40.145L50.3338 41.9118C53.0948 37.5802 54.5733 32.5464 54.5733 27.2861C54.5733 19.9986 51.7349 13.1459 46.5811 7.99219Z" fill="url(#paint0_linear_213_169)"/>
</g>
</g>
<g id="Group_3">
<g id="Group_4">
<path id="Vector_2" d="M27.2861 10.0302C17.7718 10.0302 10.0303 17.7717 10.0303 27.2861C10.0303 36.8016 17.7718 44.5431 27.2861 44.5431C30.0422 44.5431 32.6506 43.8941 34.9635 42.7401L33.5358 37.4107L39.6135 39.0394L39.8508 39.1024C42.7595 36.0133 44.5432 31.8537 44.5432 27.2861C44.5432 17.7717 36.8017 10.0302 27.2861 10.0302ZM33.6545 33.1615C33.273 33.8651 32.7693 34.4318 32.1432 34.8641C31.5159 35.2964 30.7966 35.6101 29.9829 35.8038C29.6354 35.8874 29.283 35.9527 28.9257 35.9988V40.4296H25.2929V35.9225C24.6475 35.822 24.019 35.6803 23.4027 35.4986C22.7427 35.3049 22.1033 35.0712 21.4845 34.7999C20.867 34.5299 20.2954 34.2163 19.7698 33.8602L21.5996 30.2274C21.6674 30.3122 21.8878 30.4733 22.2595 30.7106C22.6325 30.9479 23.0939 31.1841 23.6448 31.4214C24.1946 31.6588 24.8086 31.8707 25.4867 32.0572C26.1636 32.2437 26.8502 32.3357 27.5441 32.3357C29.0178 32.3357 29.7552 31.8876 29.7552 30.9891C29.7552 30.6513 29.6438 30.3715 29.4246 30.1511C29.2043 29.9308 28.8991 29.7322 28.5104 29.5542C28.1205 29.3761 27.6591 29.2115 27.1251 29.0589C26.5911 28.9063 26.011 28.7368 25.385 28.5503C24.5543 28.296 23.835 28.0211 23.2259 27.7244C22.6155 27.429 22.1118 27.0863 21.7134 26.6963C21.315 26.3064 21.0195 25.8572 20.8246 25.3498C20.6296 24.8412 20.5327 24.249 20.5327 23.5709C20.5327 22.6227 20.7107 21.7836 21.0655 21.0558C21.4216 20.328 21.9047 19.7141 22.5138 19.214C23.1241 18.7138 23.8301 18.3372 24.6354 18.0829C24.8509 18.0151 25.0701 17.9558 25.2929 17.9061V13.8204H28.9257V17.8589C28.9645 17.865 29.0045 17.8722 29.0432 17.8795C29.6535 17.9982 30.2372 18.1508 30.7966 18.3372C31.3549 18.5237 31.8768 18.7356 32.3587 18.9718C32.8419 19.2103 33.2863 19.4465 33.6932 19.6838L31.8635 23.1386C31.8126 23.072 31.6346 22.9449 31.3295 22.7584C31.0255 22.5719 30.6441 22.3769 30.1863 22.1735C29.7298 21.9701 29.2297 21.792 28.6872 21.6407C28.1459 21.4881 27.6034 21.4118 27.0621 21.4118C25.5714 21.4118 24.8255 21.9107 24.8255 22.911C24.8255 23.2149 24.9066 23.4692 25.0677 23.6726C25.2275 23.8761 25.4649 24.0577 25.7785 24.2188C26.0921 24.3798 26.4857 24.5276 26.9604 24.6632C27.4339 24.7988 27.9848 24.9514 28.6109 25.1209C29.4755 25.3583 30.2541 25.6162 30.9492 25.8959C31.6431 26.1756 32.2316 26.522 32.7148 26.9373C33.1967 27.3527 33.5697 27.8564 33.8325 28.4486C34.0952 29.0419 34.226 29.754 34.226 30.5835C34.226 31.5994 34.0359 32.4592 33.6545 33.1615Z" fill="url(#paint1_linear_213_169)"/>
</g>
</g>
<g id="Group_5">
<g id="Group_6">
<path id="Vector_3" d="M51.9869 50.6051L55.5277 47.0643L38.6738 42.5487L43.1894 59.4025L46.7302 55.8618L52.8684 62L58.1251 56.7433L51.9869 50.6051Z" fill="url(#paint2_linear_213_169)"/>
</g>
</g>
</g>
<defs>
<linearGradient id="paint0_linear_213_169" x1="68.6441" y1="-37.0979" x2="7.23788" y2="54.5739" gradientUnits="userSpaceOnUse">
<stop stop-color="#FADE84"/>
<stop offset="1" stop-color="#FAB55A"/>
</linearGradient>
<linearGradient id="paint1_linear_213_169" x1="53.4418" y1="-13.431" x2="14.6076" y2="44.5435" gradientUnits="userSpaceOnUse">
<stop stop-color="#FADE84"/>
<stop offset="1" stop-color="#FAB55A"/>
</linearGradient>
<linearGradient id="paint2_linear_213_169" x1="63.1403" y1="29.3261" x2="41.2536" y2="62.0002" gradientUnits="userSpaceOnUse">
<stop stop-color="#FADE84"/>
<stop offset="1" stop-color="#FAB55A"/>
</linearGradient>
</defs>
</svg>
