<svg width="50" height="50" viewBox="0 0 50 50" fill="none" xmlns="http://www.w3.org/2000/svg">
<g id="Group">
<path id="Vector" d="M24.5637 49.6048H24.4559C10.971 49.6048 0 38.6305 0 25.1418V25.0339C0 11.5451 10.971 0.570801 24.4559 0.570801H24.5637C38.0485 0.570801 49.0196 11.5451 49.0196 25.0339V25.1418C49.0196 38.6305 38.0485 49.6048 24.5637 49.6048ZM24.4559 2.23055C11.8853 2.23055 1.65926 12.4596 1.65926 25.0339V25.1418C1.65926 37.716 11.8853 47.945 24.4559 47.945H24.5637C37.1343 47.945 47.3603 37.716 47.3603 25.1418V25.0339C47.3603 12.4596 37.1343 2.23055 24.5637 2.23055H24.4559Z" fill="#383D38"/>
<path id="Vector_2" d="M27.8075 19.5901V24.7502H34.189L33.1785 31.7013H27.8075V47.7162C26.7306 47.8656 25.6288 47.9436 24.5105 47.9436C23.2196 47.9436 21.9519 47.8407 20.7174 47.6415V31.7013H14.832V24.7502H20.7174V18.4365C20.7174 14.5195 23.8916 11.3428 27.8091 11.3428V11.3461C27.8207 11.3461 27.8307 11.3428 27.8423 11.3428H34.1906V17.3544H30.0425C28.8097 17.3544 27.8091 18.3552 27.8091 19.5884L27.8075 19.5901Z" fill="#383D38"/>
</g>
</svg>
