<svg width="61" height="61" viewBox="0 0 61 61" fill="none" xmlns="http://www.w3.org/2000/svg">
<g id="Glyph">
<g id="Glyph_2">
<path id="Vector" d="M46.6897 58.1263C45.1191 57.4264 43.7335 56.3697 42.6431 55.0402C41.5527 53.7107 40.7876 52.1451 40.4086 50.468C40.3731 50.3155 40.2895 50.1786 40.1703 50.0772C38.9941 49.0599 38.0082 47.8416 37.2585 46.4791C36.9624 45.9568 36.8206 45.3613 36.8494 44.7616C36.8783 44.1619 37.0766 43.5827 37.4214 43.0913C37.7662 42.5998 38.2433 42.2161 38.7973 41.9849C39.3514 41.7537 39.9597 41.6844 40.5515 41.785C40.935 41.8546 41.3253 41.8786 41.7144 41.8565C41.8192 41.8502 41.9214 41.8209 42.0137 41.7707C42.1059 41.7204 42.186 41.6505 42.2481 41.5658C43.7537 39.5062 45.9459 38.0526 48.4291 37.4673C48.5842 37.43 48.7222 37.3416 48.8207 37.2162C48.9193 37.0908 48.9728 36.9358 48.9724 36.7763V31.5627C48.9723 31.3903 48.9101 31.2236 48.7972 31.0933C48.6843 30.9629 48.5283 30.8775 48.3576 30.8527C47.943 30.7907 47.5761 30.724 47.2377 30.643C45.8216 30.3007 44.4786 29.7067 43.2727 28.8892C43.1414 28.7952 42.9808 28.7513 42.82 28.7653C41.0704 28.8663 39.317 28.65 37.6445 28.1267C35.0144 27.4467 34.4291 23.669 36.7295 22.2221C37.1713 21.9232 37.5719 21.5675 37.9209 21.1641C37.9892 21.087 38.0396 20.9958 38.0684 20.8969C38.0973 20.798 38.1039 20.694 38.0877 20.5923C37.7649 18.3318 38.0853 16.0262 39.0123 13.9395C39.8364 12.063 41.1269 10.4285 42.7609 9.19146C44.395 7.95443 46.3184 7.15598 48.3481 6.87203C48.524 6.84618 48.684 6.75569 48.7968 6.61822C48.9096 6.48076 48.9671 6.30619 48.9581 6.1286C48.8834 4.47694 48.1742 2.91782 46.9783 1.77612C45.7824 0.634419 44.1922 -0.00180975 42.5388 3.86674e-06H18.2341C16.5286 0.00252497 14.8937 0.681158 13.6877 1.88714C12.4817 3.09313 11.8031 4.72808 11.8005 6.4336V17.0609C11.8016 17.1609 11.8234 17.2595 11.8646 17.3506C11.9058 17.4417 11.9655 17.5232 12.0399 17.59C12.1143 17.6568 12.2018 17.7073 12.2967 17.7385C12.3917 17.7697 12.4921 17.7807 12.5916 17.771C13.1378 17.713 13.6865 17.6828 14.2358 17.6805C17.2495 17.6833 20.1987 18.5534 22.7313 20.1868C25.2639 21.8203 27.2728 24.1481 28.5183 26.8924C28.5592 26.9843 28.6189 27.0666 28.6937 27.1339C28.7684 27.2012 28.8564 27.2521 28.952 27.2832C29.8704 27.5843 30.8306 27.7387 31.7971 27.7407C32.5 27.744 33.1876 27.9459 33.7806 28.3231C34.3737 28.7003 34.848 29.2375 35.1489 29.8727C35.4499 30.5079 35.5651 31.2153 35.4813 31.9131C35.3975 32.611 35.1182 33.2709 34.6755 33.8169C33.1892 35.7038 31.3485 37.2822 29.257 38.4634C29.1042 38.5433 28.9868 38.6776 28.9282 38.8398C27.8108 41.8395 25.8014 44.425 23.1704 46.2483C20.5394 48.0716 17.413 49.0453 14.2119 49.0383C13.6706 49.034 13.1298 49.0022 12.5916 48.943C12.4922 48.9334 12.3918 48.9446 12.2969 48.9758C12.202 49.007 12.1146 49.0576 12.0402 49.1243C11.9658 49.1911 11.9062 49.2725 11.8649 49.3635C11.8236 49.4546 11.8017 49.5531 11.8005 49.653V54.5664C11.8031 56.2719 12.4817 57.9069 13.6877 59.1129C14.8937 60.3188 16.5286 60.9975 18.2341 61H42.5388C44.1478 61.0003 45.6978 60.3946 46.8803 59.3034C46.9671 59.2234 47.0328 59.123 47.0714 59.0114C47.1099 58.8997 47.1202 58.7803 47.1013 58.6636C47.0825 58.547 47.035 58.4369 46.9631 58.3432C46.8913 58.2494 46.7973 58.1749 46.6897 58.1263ZM25.9068 5.24219C25.3598 5.22509 24.8277 5.06008 24.367 4.76471C23.9063 4.46933 23.5343 4.05462 23.2905 3.56469L22.1467 1.42969H38.631L37.4825 3.56469C37.2387 4.05462 36.8666 4.46933 36.406 4.76471C35.9453 5.06008 35.4131 5.22509 34.8662 5.24219H25.9068ZM35.3904 54.8047H25.3826C25.193 54.8047 25.0112 54.7294 24.8771 54.5953C24.743 54.4613 24.6677 54.2794 24.6677 54.0898C24.6677 53.9003 24.743 53.7184 24.8771 53.5844C25.0112 53.4503 25.193 53.375 25.3826 53.375H35.3904C35.58 53.375 35.7618 53.4503 35.8958 53.5844C36.0299 53.7184 36.1052 53.9003 36.1052 54.0898C36.1052 54.2794 36.0299 54.4613 35.8958 54.5953C35.7618 54.7294 35.58 54.8047 35.3904 54.8047Z" fill="url(#paint0_linear_213_137)"/>
<path id="Vector_2" d="M50.1555 49.0859H52.0437L52.5545 47.1797H50.6664L50.1555 49.0859Z" fill="url(#paint1_linear_213_137)"/>
<path id="Vector_3" d="M47.4557 39.2688C45.5904 40.0181 44.016 41.3483 42.9655 43.0622C42.9497 43.0872 42.9288 43.1086 42.9041 43.125C42.8795 43.1414 42.8517 43.1525 42.8226 43.1575C41.9914 43.3261 41.1361 43.3392 40.3001 43.1961C39.976 43.1411 39.6429 43.1791 39.3396 43.3059C39.0363 43.4326 38.7751 43.6428 38.5865 43.9121C38.3979 44.1813 38.2896 44.4986 38.2741 44.827C38.2587 45.1554 38.3367 45.4814 38.4992 45.7672C39.262 47.1791 40.3182 48.4113 41.5968 49.3809C41.6191 49.3964 41.638 49.4161 41.6526 49.4389C41.6672 49.4617 41.677 49.4872 41.6817 49.5139C42.3522 54.1099 46.6784 57.7465 51.1943 57.697C52.9232 57.6773 54.6142 57.1874 56.0858 56.2797C57.5574 55.372 58.7541 54.0808 59.5476 52.5446C60.3411 51.0084 60.7014 49.2852 60.5899 47.5597C60.4784 45.8343 59.8993 44.1718 58.9146 42.7505C57.6787 40.9612 55.8733 39.643 53.7925 39.0108C51.7118 38.3785 49.4782 38.4695 47.4557 39.2688ZM55.4057 47.1797H54.0347L53.5243 49.0859H54.9292C55.1187 49.0859 55.3006 49.1613 55.4346 49.2953C55.5687 49.4294 55.644 49.6112 55.644 49.8008C55.644 49.9904 55.5687 50.1722 55.4346 50.3063C55.3006 50.4403 55.1187 50.5156 54.9292 50.5156H53.1411L52.6841 52.2203C52.6598 52.311 52.6178 52.3961 52.5606 52.4706C52.5034 52.5452 52.4321 52.6077 52.3508 52.6547C52.2694 52.7017 52.1796 52.7322 52.0864 52.7444C51.9933 52.7567 51.8987 52.7505 51.8079 52.7262C51.7172 52.7019 51.6321 52.6599 51.5576 52.6027C51.483 52.5455 51.4205 52.4742 51.3735 52.3929C51.3265 52.3115 51.2961 52.2217 51.2838 52.1285C51.2715 52.0354 51.2777 51.9408 51.302 51.85L51.6595 50.5156H49.7713L49.3091 52.2413C49.2847 52.332 49.2428 52.4171 49.1856 52.4916C49.1284 52.5661 49.0571 52.6287 48.9757 52.6757C48.8944 52.7226 48.8046 52.7531 48.7114 52.7654C48.6183 52.7777 48.5236 52.7715 48.4329 52.7471C48.3422 52.7228 48.2571 52.6809 48.1826 52.6237C48.108 52.5665 48.0455 52.4952 47.9985 52.4138C47.9515 52.3325 47.921 52.2427 47.9088 52.1495C47.8965 52.0564 47.9027 51.9617 47.927 51.871L48.2902 50.5156H47.3042C47.1146 50.5156 46.9327 50.4403 46.7987 50.3063C46.6646 50.1722 46.5893 49.9904 46.5893 49.8008C46.5893 49.6112 46.6646 49.4294 46.7987 49.2953C46.9327 49.1613 47.1146 49.0859 47.3042 49.0859H48.6752L49.1856 47.1797H47.7807C47.5911 47.1797 47.4093 47.1044 47.2753 46.9703C47.1412 46.8363 47.0659 46.6544 47.0659 46.4649C47.0659 46.2753 47.1412 46.0934 47.2753 45.9594C47.4093 45.8253 47.5911 45.75 47.7807 45.75H49.5688L50.0258 44.0453C50.0749 43.8621 50.1948 43.7058 50.3591 43.611C50.5234 43.5161 50.7187 43.4904 50.902 43.5395C51.0852 43.5886 51.2415 43.7085 51.3364 43.8728C51.4312 44.0371 51.4569 44.2324 51.4078 44.4156L51.0504 45.75H52.9386L53.4008 44.0244C53.4251 43.9336 53.4671 43.8486 53.5243 43.774C53.5815 43.6995 53.6528 43.637 53.7341 43.59C53.8155 43.543 53.9053 43.5125 53.9984 43.5003C54.0916 43.488 54.1862 43.4942 54.277 43.5185C54.3677 43.5428 54.4528 43.5848 54.5273 43.642C54.6019 43.6992 54.6644 43.7705 54.7114 43.8518C54.7584 43.9332 54.7888 44.023 54.8011 44.1161C54.8134 44.2093 54.8072 44.3039 54.7829 44.3947L54.4178 45.75H55.4057C55.5953 45.75 55.7771 45.8253 55.9112 45.9594C56.0453 46.0934 56.1206 46.2753 56.1206 46.4649C56.1206 46.6544 56.0453 46.8363 55.9112 46.9703C55.7771 47.1044 55.5953 47.1797 55.4057 47.1797Z" fill="url(#paint2_linear_213_137)"/>
<path id="Vector_4" d="M40.3218 14.5171C39.3999 16.5806 39.1579 18.8837 39.6308 21.0937C39.6405 21.1407 39.6403 21.1893 39.6303 21.2363C39.6203 21.2833 39.6007 21.3277 39.5727 21.3667C39.0256 22.1673 38.3346 22.8594 37.5349 23.4079C37.2437 23.6085 37.015 23.8871 36.8749 24.2117C36.7348 24.5363 36.6891 24.8938 36.7428 25.2433C36.7966 25.5928 36.9478 25.92 37.179 26.1875C37.4102 26.455 37.7121 26.6519 38.0501 26.7557C39.753 27.3073 41.5551 27.4838 43.3327 27.2733C43.3731 27.2673 43.4143 27.2694 43.4539 27.2793C43.4934 27.2893 43.5307 27.307 43.5634 27.3314C45.4447 28.7642 47.7414 29.5455 50.1061 29.5569C57.9394 29.5927 63.2035 21.0217 59.5835 13.9886C55.517 6.09101 43.9261 6.35836 40.3218 14.5171ZM50.8181 23.6557C50.6186 23.7688 50.3932 23.8283 50.1638 23.8283C49.9344 23.8283 49.709 23.7688 49.5095 23.6557C46.7135 22.0663 45.1251 20.0929 45.1928 17.5914C45.1911 17.223 45.262 16.858 45.4014 16.517C45.5408 16.176 45.746 15.8658 46.0052 15.6042C46.2645 15.3425 46.5728 15.1345 46.9125 14.9919C47.2522 14.8494 47.6166 14.7752 47.9849 14.7735C48.4044 14.7733 48.8184 14.8683 49.1958 15.0513C49.5732 15.2343 49.9042 15.5006 50.1638 15.83C50.4234 15.5006 50.7543 15.2343 51.1318 15.0513C51.5092 14.8683 51.9232 14.7733 52.3426 14.7735C52.711 14.7752 53.0754 14.8494 53.4151 14.9919C53.7548 15.1345 54.0631 15.3425 54.3223 15.6042C54.5816 15.8658 54.7868 16.176 54.9262 16.517C55.0656 16.858 55.1365 17.223 55.1348 17.5914C55.2049 20.0929 53.6141 22.0649 50.8181 23.6557Z" fill="url(#paint3_linear_213_137)"/>
<path id="Vector_5" d="M27.7652 37.8352C27.7943 37.7506 27.8398 37.6725 27.8992 37.6055C27.9586 37.5385 28.0306 37.4839 28.1112 37.4449C30.2369 36.3441 32.0992 34.7962 33.5702 32.9076C33.8408 32.5712 34.0112 32.1653 34.0617 31.7366C34.1122 31.3078 34.0408 30.8735 33.8558 30.4834C33.6708 30.0934 33.3796 29.7633 33.0156 29.5312C32.6517 29.299 32.2296 29.1741 31.7979 29.1709C30.4498 29.1638 29.1147 28.9066 27.8605 28.4122C27.7666 28.3768 27.6809 28.3226 27.6087 28.2528C27.5365 28.1831 27.4793 28.0993 27.4407 28.0066C26.3091 25.2126 24.319 22.8504 21.7577 21.2609C11.6836 14.9464 -1.23598 23.3282 0.0950601 35.0845C0.881865 42.0328 7.30974 47.7725 14.2404 47.6276C20.0878 47.7554 25.9881 43.5726 27.7652 37.8352ZM10.8473 39.4217C10.6304 39.5487 10.3837 39.6157 10.1324 39.6157H8.22617C7.84699 39.6157 7.48335 39.465 7.21523 39.1969C6.94711 38.9288 6.79648 38.5652 6.79648 38.186V31.0376C6.79648 30.6584 6.94711 30.2947 7.21523 30.0266C7.48335 29.7585 7.84699 29.6079 8.22617 29.6079H10.1324C10.3833 29.6074 10.6299 29.6732 10.8473 29.7985V39.4217ZM12.2769 38.7812V30.2193C13.6771 28.9202 14.5778 26.2753 15.1778 25.0286C16.2338 22.8326 18.3612 25.7782 17.8413 27.3637C17.6616 27.9127 17.2809 29.6036 17.2809 29.6036C18.4184 29.6036 19.5093 30.0555 20.3137 30.8598C21.118 31.6642 21.5699 32.7551 21.5699 33.8926V35.3223C21.5699 36.4599 21.118 37.5508 20.3137 38.3552C19.5093 39.1595 18.4184 39.6114 17.2809 39.6114H14.6197C14.1759 39.6113 13.7381 39.5078 13.3411 39.3092L12.2769 38.7812Z" fill="url(#paint4_linear_213_137)"/>
</g>
</g>
<defs>
<linearGradient id="paint0_linear_213_137" x1="58.5565" y1="-41.4666" x2="-15.3345" y2="25.7536" gradientUnits="userSpaceOnUse">
<stop stop-color="#FADE84"/>
<stop offset="1" stop-color="#FAB55A"/>
</linearGradient>
<linearGradient id="paint1_linear_213_137" x1="53.1731" y1="45.8839" x2="51.2491" y2="49.4987" gradientUnits="userSpaceOnUse">
<stop stop-color="#FADE84"/>
<stop offset="1" stop-color="#FAB55A"/>
</linearGradient>
<linearGradient id="paint2_linear_213_137" x1="66.3691" y1="25.6095" x2="46.3193" y2="60.6103" gradientUnits="userSpaceOnUse">
<stop stop-color="#FADE84"/>
<stop offset="1" stop-color="#FAB55A"/>
</linearGradient>
<linearGradient id="paint3_linear_213_137" x1="66.9455" y1="-6.27104" x2="44.1448" y2="32.0765" gradientUnits="userSpaceOnUse">
<stop stop-color="#FADE84"/>
<stop offset="1" stop-color="#FAB55A"/>
</linearGradient>
<linearGradient id="paint4_linear_213_137" x1="42.8637" y1="-0.299547" x2="13.2382" y2="52.5209" gradientUnits="userSpaceOnUse">
<stop stop-color="#FADE84"/>
<stop offset="1" stop-color="#FAB55A"/>
</linearGradient>
</defs>
</svg>
