<svg width="50" height="50" viewBox="0 0 50 50" fill="none" xmlns="http://www.w3.org/2000/svg">
<g id="Group">
<path id="Vector" d="M25.3098 49.034H25.202C11.7171 49.034 0.746094 38.0597 0.746094 24.571V24.463C0.746094 10.9743 11.7171 0 25.202 0H25.3098C38.7946 0 49.7657 10.9743 49.7657 24.463V24.571C49.7657 38.0597 38.7946 49.034 25.3098 49.034ZM25.202 1.65975C12.6314 1.65975 2.40536 11.8888 2.40536 24.463V24.571C2.40536 37.1452 12.6314 47.3742 25.202 47.3742H25.3098C37.8804 47.3742 48.1064 37.1452 48.1064 24.571V24.463C48.1064 11.8888 37.8804 1.65975 25.3098 1.65975H25.202Z" fill="#383D38"/>
<g id="Group_2">
<path id="Vector_2" d="M32.5837 10.4683H17.9291C13.8805 10.4683 10.5869 13.7629 10.5869 17.8127V31.2234C10.5869 35.2732 13.8805 38.5678 17.9291 38.5678H32.5837C36.6323 38.5678 39.926 35.2732 39.926 31.2234V17.8127C39.926 13.7629 36.6323 10.4683 32.5837 10.4683ZM13.177 17.8127C13.177 15.1919 15.3092 13.0591 17.9291 13.0591H32.5837C35.2037 13.0591 37.3359 15.1919 37.3359 17.8127V31.2234C37.3359 33.8442 35.2037 35.977 32.5837 35.977H17.9291C15.3092 35.977 13.177 33.8442 13.177 31.2234V17.8127Z" fill="#383D38"/>
<path id="Vector_3" d="M25.2563 31.3476C29.0212 31.3476 32.0858 28.2837 32.0858 24.5161C32.0858 20.7485 29.0228 17.6846 25.2563 17.6846C21.4898 17.6846 18.4268 20.7485 18.4268 24.5161C18.4268 28.2837 21.4898 31.3476 25.2563 31.3476ZM25.2563 20.2771C27.5942 20.2771 29.4957 22.1792 29.4957 24.5178C29.4957 26.8563 27.5942 28.7584 25.2563 28.7584C22.9184 28.7584 21.0169 26.8563 21.0169 24.5178C21.0169 22.1792 22.9184 20.2771 25.2563 20.2771Z" fill="#383D38"/>
<path id="Vector_4" d="M32.718 18.7882C33.7319 18.7882 34.5582 17.9634 34.5582 16.9476C34.5582 15.9318 33.7335 15.1069 32.718 15.1069C31.7026 15.1069 30.8779 15.9318 30.8779 16.9476C30.8779 17.9634 31.7026 18.7882 32.718 18.7882Z" fill="#383D38"/>
</g>
</g>
</svg>
