<svg width="57" height="61" viewBox="0 0 57 61" fill="none" xmlns="http://www.w3.org/2000/svg">
<path id="Vector" d="M40.6694 24.1503C41.7052 22.0307 43.5008 20.4372 45.7337 19.6681C46.668 19.3454 47.6309 19.2216 48.5895 19.2172V6.63043C48.5895 2.97486 45.6167 0 41.9636 0H6.62583C2.97279 0 0 2.97486 0 6.63043V50.8333C0 54.4889 2.97279 57.4638 6.62583 57.4638H28.5993L28.3608 56.7698C27.4 53.9651 27.5878 50.9682 28.8842 48.3182L40.6694 24.1503ZM8.83445 13.2609H35.3378C36.5591 13.2609 37.5464 14.251 37.5464 15.471C37.5464 16.691 36.5591 17.6812 35.3378 17.6812H8.83445C7.61308 17.6812 6.62583 16.691 6.62583 15.471C6.62583 14.251 7.61308 13.2609 8.83445 13.2609ZM8.83445 22.1014H33.1292C34.3505 22.1014 35.3378 23.0916 35.3378 24.3116C35.3378 25.5316 34.3505 26.5217 33.1292 26.5217H8.83445C7.61308 26.5217 6.62583 25.5316 6.62583 24.3116C6.62583 23.0916 7.61308 22.1014 8.83445 22.1014ZM24.2947 44.2029H8.83445C7.61308 44.2029 6.62583 43.2128 6.62583 41.9928C6.62583 40.7728 7.61308 39.7826 8.83445 39.7826H24.2947C25.5161 39.7826 26.5033 40.7728 26.5033 41.9928C26.5033 43.2128 25.5161 44.2029 24.2947 44.2029ZM8.83445 35.3623C7.61308 35.3623 6.62583 34.3722 6.62583 33.1522C6.62583 31.9322 7.61308 30.942 8.83445 30.942H28.7119C29.9333 30.942 30.9206 31.9322 30.9206 33.1522C30.9206 34.3722 29.9333 35.3623 28.7119 35.3623H8.83445ZM56.5493 31.9034L44.7597 56.0802C43.9801 57.6737 42.6306 58.8672 40.9587 59.4419L36.7822 60.8784C36.5459 60.9602 36.3007 61 36.0644 61C35.1478 61 34.2909 60.4254 33.9773 59.5082L32.5395 55.3288C31.963 53.6491 32.0757 51.85 32.8531 50.2609L44.6427 26.0886C45.1573 25.0277 46.0584 24.232 47.1737 23.8475C48.2869 23.4629 49.4861 23.5336 50.5463 24.0552L54.5174 25.9935C55.5775 26.5107 56.3726 27.4124 56.7569 28.5286C57.1412 29.6447 57.0683 30.8426 56.5493 31.9034Z" fill="url(#paint0_linear_213_135)"/>
<defs>
<linearGradient id="paint0_linear_213_135" x1="71.6965" y1="-41.4666" x2="1.40501" y2="56.5887" gradientUnits="userSpaceOnUse">
<stop stop-color="#FADE84"/>
<stop offset="1" stop-color="#FAB55A"/>
</linearGradient>
</defs>
</svg>
