<svg width="50" height="50" viewBox="0 0 50 50" fill="none" xmlns="http://www.w3.org/2000/svg">
<g id="Group">
<path id="Vector" d="M25.0549 49.034H24.9471C11.4623 49.034 0.491211 38.0597 0.491211 24.571V24.463C0.491211 10.9743 11.4623 0 24.9471 0H25.0549C38.5398 0 49.5108 10.9743 49.5108 24.463V24.571C49.5108 38.0597 38.5398 49.034 25.0549 49.034ZM24.9471 1.65975C12.3765 1.65975 2.15047 11.8888 2.15047 24.463V24.571C2.15047 37.1452 12.3765 47.3742 24.9471 47.3742H25.0549C37.6255 47.3742 47.8515 37.1452 47.8515 24.571V24.463C47.8515 11.8888 37.6255 1.65975 25.0549 1.65975H24.9471Z" fill="#383D38"/>
<path id="Vector_2" d="M36.4487 17.9684V22.4414C35.6672 22.3651 34.6517 22.1875 33.5284 21.7759C32.0616 21.2381 30.9698 20.5029 30.2547 19.9336V28.9742L30.2365 28.946C30.2481 29.1252 30.2547 29.3078 30.2547 29.492C30.2547 33.9817 26.6027 37.6364 22.1127 37.6364C17.6227 37.6364 13.9707 33.9817 13.9707 29.492C13.9707 25.0024 17.6227 21.346 22.1127 21.346C22.5524 21.346 22.9838 21.3808 23.4053 21.4489V25.8572C23.0004 25.7128 22.5657 25.6348 22.1127 25.6348C19.9872 25.6348 18.2566 27.3642 18.2566 29.492C18.2566 31.6198 19.9872 33.3493 22.1127 33.3493C24.2382 33.3493 25.9688 31.6182 25.9688 29.492C25.9688 29.4124 25.9672 29.3327 25.9622 29.253V11.6846H30.4306C30.4472 12.063 30.4621 12.4448 30.4787 12.8232C30.5086 13.5684 30.774 14.2838 31.237 14.8697C31.7796 15.5585 32.581 16.3584 33.706 16.9974C34.7596 17.5933 35.7485 17.8506 36.4487 17.9717V17.9684Z" fill="#383D38"/>
</g>
</svg>
