<svg width="61" height="61" viewBox="0 0 61 61" fill="none" xmlns="http://www.w3.org/2000/svg">
<g id="Group">
<path id="Vector" d="M25.1446 49.1727V11.8165L29.598 6.87382C29.7955 6.65448 29.9043 6.37128 29.9043 6.07617V1.19141C29.9043 0.534465 29.3698 0 28.7129 0H17.9902C17.3333 0 16.7988 0.534465 16.7988 1.19141V6.07617C16.7988 6.37081 16.9072 6.65365 17.1042 6.87275L21.5703 11.8407V49.1705L17.105 54.1264C16.9076 54.3455 16.7988 54.6287 16.7988 54.9238V59.8086C16.7988 60.4655 17.3333 61 17.9902 61H28.7129C29.3698 61 29.9043 60.4655 29.9043 59.8086V54.9238C29.9043 54.6292 29.7959 54.3464 29.5989 54.1273L25.1446 49.1727Z" fill="url(#paint0_linear_213_120)"/>
<path id="Vector_2" d="M28.7188 25.0195H60.9999V35.8554H28.7188V25.0195Z" fill="url(#paint1_linear_213_120)"/>
<path id="Vector_3" d="M59.2129 14.416H52.6006V21.4453H61V16.2031C61 15.2162 60.1999 14.416 59.2129 14.416Z" fill="url(#paint2_linear_213_120)"/>
<path id="Vector_4" d="M40.6865 14.416H48.9668V21.4453H40.6865V14.416Z" fill="url(#paint3_linear_213_120)"/>
<path id="Vector_5" d="M40.6865 39.4296H48.9668V46.584H40.6865V39.4296Z" fill="url(#paint4_linear_213_120)"/>
<path id="Vector_6" d="M52.6006 46.584H59.2129C60.1999 46.584 61 45.7838 61 44.7968V39.4296H52.6006V46.584Z" fill="url(#paint5_linear_213_120)"/>
<path id="Vector_7" d="M28.7188 39.4296H37.1122V46.584H28.7188V39.4296Z" fill="url(#paint6_linear_213_120)"/>
<path id="Vector_8" d="M28.7188 14.416H37.1122V21.4453H28.7188V14.416Z" fill="url(#paint7_linear_213_120)"/>
<path id="Vector_9" d="M10.8477 14.416H17.9961V21.5645H10.8477V14.416Z" fill="url(#paint8_linear_213_120)"/>
<path id="Vector_10" d="M0 25.1387H17.9962V35.8554H0V25.1387Z" fill="url(#paint9_linear_213_120)"/>
<path id="Vector_11" d="M0 44.7968C0 45.7838 0.800148 46.584 1.78711 46.584H7.27354V39.4296H0V44.7968Z" fill="url(#paint10_linear_213_120)"/>
<path id="Vector_12" d="M10.8477 39.4296H17.9961V46.584H10.8477V39.4296Z" fill="url(#paint11_linear_213_120)"/>
<path id="Vector_13" d="M7.27354 14.416H1.78711C0.800148 14.416 0 15.2162 0 16.2031V21.5645H7.27354V14.416Z" fill="url(#paint12_linear_213_120)"/>
</g>
<defs>
<linearGradient id="paint0_linear_213_120" x1="33.2833" y1="-41.4666" x2="-9.88692" y2="-27.6204" gradientUnits="userSpaceOnUse">
<stop stop-color="#FADE84"/>
<stop offset="1" stop-color="#FAB55A"/>
</linearGradient>
<linearGradient id="paint1_linear_213_120" x1="69.323" y1="17.6535" x2="63.6793" y2="42.7537" gradientUnits="userSpaceOnUse">
<stop stop-color="#FADE84"/>
<stop offset="1" stop-color="#FAB55A"/>
</linearGradient>
<linearGradient id="paint2_linear_213_120" x1="63.1656" y1="9.63763" x2="55.8693" y2="22.6533" gradientUnits="userSpaceOnUse">
<stop stop-color="#FADE84"/>
<stop offset="1" stop-color="#FAB55A"/>
</linearGradient>
<linearGradient id="paint3_linear_213_120" x1="51.1017" y1="9.63763" x2="43.7513" y2="22.5637" gradientUnits="userSpaceOnUse">
<stop stop-color="#FADE84"/>
<stop offset="1" stop-color="#FAB55A"/>
</linearGradient>
<linearGradient id="paint4_linear_213_120" x1="51.1017" y1="34.5661" x2="43.5536" y2="47.6078" gradientUnits="userSpaceOnUse">
<stop stop-color="#FADE84"/>
<stop offset="1" stop-color="#FAB55A"/>
</linearGradient>
<linearGradient id="paint5_linear_213_120" x1="63.1656" y1="34.5661" x2="55.6716" y2="47.7007" gradientUnits="userSpaceOnUse">
<stop stop-color="#FADE84"/>
<stop offset="1" stop-color="#FAB55A"/>
</linearGradient>
<linearGradient id="paint6_linear_213_120" x1="39.2763" y1="34.5661" x2="31.7796" y2="47.6961" gradientUnits="userSpaceOnUse">
<stop stop-color="#FADE84"/>
<stop offset="1" stop-color="#FAB55A"/>
</linearGradient>
<linearGradient id="paint7_linear_213_120" x1="39.2763" y1="9.63763" x2="31.9773" y2="22.6489" gradientUnits="userSpaceOnUse">
<stop stop-color="#FADE84"/>
<stop offset="1" stop-color="#FAB55A"/>
</linearGradient>
<linearGradient id="paint8_linear_213_120" x1="19.8392" y1="9.55664" x2="11.7957" y2="21.5645" gradientUnits="userSpaceOnUse">
<stop stop-color="#FADE84"/>
<stop offset="1" stop-color="#FAB55A"/>
</linearGradient>
<linearGradient id="paint9_linear_213_120" x1="22.6362" y1="17.8537" x2="13.6614" y2="40.3529" gradientUnits="userSpaceOnUse">
<stop stop-color="#FADE84"/>
<stop offset="1" stop-color="#FAB55A"/>
</linearGradient>
<linearGradient id="paint10_linear_213_120" x1="9.14889" y1="34.5661" x2="1.15009" y2="46.7062" gradientUnits="userSpaceOnUse">
<stop stop-color="#FADE84"/>
<stop offset="1" stop-color="#FAB55A"/>
</linearGradient>
<linearGradient id="paint11_linear_213_120" x1="19.8392" y1="34.5661" x2="11.7865" y2="46.5778" gradientUnits="userSpaceOnUse">
<stop stop-color="#FADE84"/>
<stop offset="1" stop-color="#FAB55A"/>
</linearGradient>
<linearGradient id="paint12_linear_213_120" x1="9.14889" y1="9.55664" x2="1.15938" y2="21.6927" gradientUnits="userSpaceOnUse">
<stop stop-color="#FADE84"/>
<stop offset="1" stop-color="#FAB55A"/>
</linearGradient>
</defs>
</svg>
