<svg width="50" height="50" viewBox="0 0 50 50" fill="none" xmlns="http://www.w3.org/2000/svg">
<g id="Group">
<path id="Vector" d="M25.5442 49.034H25.4363C11.9515 49.034 0.980469 38.0597 0.980469 24.571V24.463C0.980469 10.9743 11.9515 0 25.4363 0H25.5442C39.029 0 50 10.9743 50 24.463V24.571C50 38.0597 39.029 49.034 25.5442 49.034ZM25.4363 1.65975C12.8658 1.65975 2.63973 11.8888 2.63973 24.463V24.571C2.63973 37.1452 12.8658 47.3742 25.4363 47.3742H25.5442C38.1148 47.3742 48.3408 37.1452 48.3408 24.571V24.463C48.3408 11.8888 38.1148 1.65975 25.5442 1.65975H25.4363Z" fill="#383D38"/>
<g id="Group_2">
<path id="Vector_2" d="M30.1076 31.4454C24.0463 31.4454 19.1149 26.5109 19.1133 20.4479C19.1149 18.9109 20.366 17.6611 21.8992 17.6611C22.0568 17.6611 22.2128 17.6744 22.3621 17.701C22.6906 17.7557 23.0026 17.8669 23.2897 18.0346C23.3311 18.0595 23.3593 18.0993 23.366 18.1458L24.0064 22.184C24.0147 22.2321 23.9998 22.2786 23.9683 22.3134C23.6149 22.7051 23.1635 22.9873 22.6608 23.1284L22.4185 23.1964L22.5098 23.4304C23.3361 25.535 25.0186 27.2163 27.1242 28.0462L27.3582 28.1392L27.4262 27.8968C27.5672 27.3939 27.8493 26.9425 28.2409 26.5889C28.2691 26.5624 28.3073 26.5491 28.3454 26.5491C28.3537 26.5491 28.362 26.5491 28.372 26.5508L32.4089 27.1914C32.4571 27.1997 32.4969 27.2263 32.5218 27.2678C32.6877 27.5549 32.7989 27.8686 32.8553 28.1972C32.8818 28.3433 32.8935 28.4976 32.8935 28.6586C32.8935 30.1939 31.644 31.4437 30.1076 31.4454Z" fill="#383D38"/>
<path id="Vector_3" d="M40.8561 23.1866C40.5292 19.492 38.8368 16.0646 36.0907 13.5368C33.328 10.9941 29.744 9.59326 25.9957 9.59326C17.7691 9.59326 11.0756 16.2887 11.0756 24.5177C11.0756 27.2796 11.8372 29.97 13.2791 32.3136L10.0635 39.4339L20.3592 38.3368C22.1495 39.0704 24.0444 39.4422 25.9941 39.4422C26.5068 39.4422 27.0328 39.4156 27.5604 39.3609C28.025 39.3111 28.4946 39.2381 28.9559 39.1451C35.8451 37.7526 40.8743 31.6364 40.9141 24.5974V24.5177C40.9141 24.0696 40.8942 23.6215 40.8544 23.1883L40.8561 23.1866ZM20.7558 35.2115L15.0595 35.819L16.7603 32.0497L16.4201 31.5933C16.3952 31.5601 16.3703 31.5269 16.3421 31.4887C14.8654 29.4488 14.0855 27.0389 14.0855 24.5194C14.0855 17.9501 19.4284 12.6057 25.9957 12.6057C32.1483 12.6057 37.3633 17.4074 37.8661 23.5368C37.8926 23.8655 37.9076 24.1957 37.9076 24.521C37.9076 24.614 37.9059 24.7053 37.9042 24.8032C37.7781 30.2986 33.9403 34.9659 28.5709 36.1543C28.1611 36.2455 27.7413 36.3153 27.3231 36.3601C26.8884 36.4099 26.4421 36.4347 25.999 36.4347C24.4211 36.4347 22.8879 36.1294 21.4394 35.5252C21.2784 35.4605 21.1208 35.3908 20.9731 35.3194L20.7574 35.2148L20.7558 35.2115Z" fill="#383D38"/>
</g>
</g>
</svg>
