<svg width="50" height="50" viewBox="0 0 50 50" fill="none" xmlns="http://www.w3.org/2000/svg">
<g id="Group">
<path id="Vector" d="M24.8 49.034H24.6922C11.2074 49.034 0.236328 38.0597 0.236328 24.571V24.463C0.236328 10.9743 11.2074 0 24.6922 0H24.8C38.2849 0 49.2559 10.9743 49.2559 24.463V24.571C49.2559 38.0597 38.2849 49.034 24.8 49.034ZM24.6922 1.65975C12.1216 1.65975 1.89559 11.8888 1.89559 24.463V24.571C1.89559 37.1452 12.1216 47.3742 24.6922 47.3742H24.8C37.3706 47.3742 47.5966 37.1452 47.5966 24.571V24.463C47.5966 11.8888 37.3706 1.65975 24.8 1.65975H24.6922Z" fill="#383D38"/>
<g id="layer1">
<path id="path1009" d="M10.6716 11.5552L21.5928 26.161L10.6035 38.0365H13.0775L22.6995 27.6398L30.4732 38.0365H38.8906L27.3554 22.6091L37.5848 11.5552H35.1108L26.2503 21.1303L19.0906 11.5552H10.6732H10.6716ZM14.3086 13.3776H18.1747L35.2502 36.2141H31.3841L14.3086 13.3776Z" fill="#383D38"/>
</g>
</g>
</svg>
