<svg width="91" height="119" viewBox="0 0 91 119" fill="none" xmlns="http://www.w3.org/2000/svg">
<g clip-path="url(#clip0_174_1040)">
<path d="M80.6566 16.8557L80.2279 16.3239C79.7991 15.7922 79.3704 15.3137 78.9417 14.8351C78.5129 14.3566 78.0306 13.878 77.6018 13.3995C75.2974 11.0599 72.7249 8.98615 69.9917 7.17828C69.4558 6.80608 68.8663 6.48704 68.2768 6.11483L67.6872 5.7958C67.0441 5.42359 66.4546 5.10456 65.8651 4.78552C61.0954 2.39276 55.9505 0.85076 50.6448 0.265862C48.9299 0.106345 47.2149 0 45.5 0C20.7402 0 0.643066 19.9397 0.643066 44.5054C0.643066 50.8861 1.98288 57.0541 4.60891 62.8499C11.8439 78.7484 27.9216 89.0107 45.5 89.0107C58.7909 89.0107 71.3315 83.2149 79.9063 73.059C80.3351 72.5804 80.7102 72.1019 81.0854 71.6233C84.944 66.6783 87.6236 61.0952 89.1242 55.0335C89.9817 51.6305 90.4104 48.0679 90.4104 44.5054C90.3568 34.4558 86.8733 24.7252 80.6566 16.8557ZM67.7408 8.34808C67.9552 8.45442 68.116 8.56077 68.3303 8.72029C68.5447 8.82663 68.7591 8.98615 68.9735 9.09249C69.295 9.30518 69.563 9.51787 69.8845 9.73056C70.0989 9.83691 70.2597 9.99643 70.474 10.1559C70.7956 10.3686 71.1172 10.6345 71.4387 10.9004C71.5995 11.0067 71.7603 11.113 71.921 11.2726C72.8857 12.017 73.7968 12.7614 74.6543 13.6122C74.815 13.7185 74.9222 13.878 75.083 13.9844C75.4046 14.2502 75.6725 14.5693 75.9405 14.8351C76.1012 14.9946 76.262 15.1542 76.4228 15.3137C76.6908 15.5795 76.9587 15.8454 77.1731 16.1113C77.3339 16.2708 77.4947 16.4835 77.6554 16.643C77.8162 16.8025 77.977 17.0152 78.0842 17.1747C76.8515 19.1421 74.6543 20.3651 72.2962 20.3651C68.4911 20.3651 65.4364 17.2811 65.4364 13.559C65.3828 11.4853 66.2402 9.62422 67.7408 8.34808ZM2.78676 44.5054C2.78676 21.1095 21.9193 2.1269 45.5 2.1269C47.1613 2.1269 48.7691 2.23324 50.3233 2.39276C55.361 2.97766 60.2379 4.41332 64.7932 6.69973C65.1148 6.85925 65.4899 7.07194 65.8115 7.23146C64.2037 8.8798 63.2391 11.113 63.2391 13.5058C63.2391 18.4508 67.2585 22.4388 72.2426 22.4388C75.1366 22.4388 77.7626 21.1095 79.4776 18.8762C85.1048 26.214 88.2132 35.2533 88.2132 44.5054C88.2132 47.3767 87.9452 50.248 87.3557 53.013C85.8551 52.0027 84.5689 51.0987 83.5506 50.3012C79.9063 47.5362 76.6372 46.2069 73.7432 46.4196C71.3851 46.5791 69.4022 47.6957 67.5265 49.8226C65.222 47.9084 57.1295 41.1555 52.1454 34.1367C49.7338 30.7869 47.4829 29.0853 45.232 28.979C42.7132 28.8727 41.0518 30.7869 40.0335 31.9567C39.8727 32.1162 39.712 32.3289 39.6048 32.4352C38.8009 33.2328 36.0141 36.5295 33.2809 39.7198V33.8709L36.0677 31.6376C36.7644 31.1059 37.1395 30.3083 37.1395 29.4576V25.4696C37.1395 24.8847 36.6572 24.4062 36.0677 24.4062C35.4782 24.4062 34.9958 24.8847 34.9958 25.4696V29.4576C34.9958 29.6702 34.8886 29.8829 34.7279 29.9893L33.2809 31.1591V23.6086C33.2809 23.0237 32.7985 22.5451 32.209 22.5451C31.6195 22.5451 31.1372 23.0237 31.1372 23.6086V34.3494L29.4758 32.7011C29.3686 32.5947 29.2614 32.382 29.2614 32.2225V29.7766C29.2614 29.1917 28.7791 28.7131 28.1896 28.7131C27.6001 28.7131 27.1177 29.1917 27.1177 29.7766V32.2225C27.1177 32.9669 27.4393 33.7113 27.9752 34.2431L31.1908 37.4334V42.0063C31.1908 42.0594 31.1908 42.1658 31.1908 42.2189C29.9581 43.6546 28.8863 44.8776 28.2432 45.7283C25.6172 42.6443 23.0447 41.315 20.5259 41.5809C15.5954 42.1126 12.0583 48.5465 7.98523 56.0438C7.23494 57.3731 6.48464 58.7556 5.73435 60.0849C3.80502 55.0867 2.78676 49.8758 2.78676 44.5054ZM41.159 33.8709C41.3197 33.7113 41.4805 33.4987 41.6413 33.3391C42.338 32.5416 43.2491 31.5313 44.3745 31.2122C45.7679 32.7542 50.4305 38.7627 46.0895 45.7815C43.8922 49.3441 43.2491 52.8534 44.1601 56.2033C44.6961 58.2239 45.7679 59.8722 46.8934 61.2547C39.176 57.9048 33.8168 53.9169 30.8692 49.3972C30.3869 48.6528 29.9581 48.0147 29.4758 47.3767C31.7267 44.7712 39.8192 35.2534 41.159 33.8709ZM53.1101 63.6474C52.4134 63.2752 47.5901 60.4039 46.2503 55.6184C45.5 52.8534 46.0359 49.929 47.9116 46.845C51.5023 40.996 49.7874 35.7319 47.9116 32.4884C48.6619 33.1796 49.5194 34.1367 50.3233 35.3065C55.5217 42.538 63.5606 49.3441 66.0795 51.3646C62.9711 54.8208 56.272 62.1054 54.4499 64.0728C54.0212 63.9133 53.646 63.807 53.2173 63.6474H53.1101ZM69.0806 51.2583C69.9917 50.1948 71.3851 48.7592 73.5824 48.5465C74.2255 48.8655 76.0477 49.9821 76.6908 52.109C77.3339 54.3423 76.5836 57.0541 74.3327 60.2444C71.7603 63.9133 71.4923 66.6251 72.0282 68.5393C66.4546 67.4759 61.3633 66.2529 56.7008 64.8172C59.702 61.6269 67.4193 53.2256 69.0806 51.2583ZM6.8062 62.4777C7.87805 60.6698 8.89631 58.8088 9.86097 57.0009C13.3445 50.567 16.6672 44.5054 20.3115 43.7078C21.3298 44.6649 24.3845 48.2274 21.3833 55.4589C19.2932 60.6166 19.454 65.0299 21.8657 68.6457C27.0106 76.2493 42.07 80.1309 67.9552 80.5031C61.2561 84.5974 53.5388 86.8307 45.5 86.8307C28.9399 86.8838 13.8268 77.3128 6.8062 62.4777ZM71.0636 78.4294C44.4281 78.3231 28.5111 74.6542 23.6878 67.4759C21.6513 64.445 21.5441 60.7761 23.3663 56.2565C25.7243 50.5139 24.7597 46.5791 23.4735 44.2927C25.242 45.303 27.1177 47.3767 29.1543 50.5139C33.0129 56.5223 40.7302 61.5737 52.1454 65.5085L52.3598 65.6148C53.0565 65.8807 53.7532 66.0934 54.5035 66.3061C60.1843 68.1139 66.7226 69.7091 73.8504 70.9853C75.2438 71.2511 76.7444 71.4638 78.2449 71.7297C76.0477 74.2288 73.6896 76.5152 71.0636 78.4294ZM79.7455 69.8155C77.977 69.5496 76.262 69.2837 74.6007 68.9647C73.368 67.1568 73.904 64.6577 76.1013 61.4142C78.7273 57.6921 79.5848 54.2891 78.7273 51.4178C78.4593 50.567 78.0842 49.8226 77.6018 49.1845C79.0488 49.7694 80.5494 50.6734 82.2108 51.9495C83.3898 52.8534 84.944 53.9169 86.7662 55.193C85.4263 60.5103 83.0147 65.4021 79.7455 69.8155Z" fill="white"/>
<path d="M20.9011 117.883H18.5966L18.1143 119H17.6855L19.5613 114.906H19.99L21.8658 119H21.437L20.9011 117.883ZM20.7939 117.511L19.7757 115.331L18.7574 117.511H20.7939Z" fill="white"/>
<path d="M23.8486 114.853H25.51C25.9387 114.853 26.3139 114.959 26.689 115.118C27.0106 115.278 27.2785 115.544 27.4929 115.863C27.6537 116.182 27.7609 116.554 27.7609 116.926C27.7609 117.352 27.6537 117.671 27.4929 117.99C27.3321 118.309 27.0642 118.521 26.689 118.734C26.3675 118.894 25.9923 119 25.51 119H23.8486V114.853ZM25.51 118.575C25.8851 118.575 26.2067 118.521 26.4747 118.362C26.7426 118.202 26.957 118.043 27.1178 117.777C27.2785 117.511 27.3321 117.245 27.3321 116.926C27.3321 116.607 27.2785 116.288 27.1178 116.076C26.957 115.81 26.7426 115.65 26.4747 115.491C26.2067 115.331 25.8851 115.278 25.51 115.278H24.2774V118.628H25.51V118.575Z" fill="white"/>
<path d="M33.3881 114.853L31.566 118.947H31.0836L29.2615 114.853H29.7438L31.3516 118.415L32.9594 114.853H33.3881Z" fill="white"/>
<path d="M38.1578 118.575V118.947H35.2102V114.853H38.0506V115.225H35.6389V116.66H37.7826V117.033H35.6389V118.575H38.1578Z" fill="white"/>
<path d="M43.3563 118.947L42.3916 117.618C42.2844 117.618 42.1772 117.618 42.0701 117.618H40.9446V118.894H40.5159V114.853H42.0701C42.606 114.853 43.0347 114.959 43.3027 115.225C43.6242 115.491 43.7314 115.81 43.7314 116.235C43.7314 116.554 43.6242 116.82 43.4635 117.033C43.3027 117.245 43.0883 117.405 42.7668 117.511L43.785 118.894H43.3563V118.947ZM42.9811 117.033C43.1955 116.873 43.3027 116.607 43.3027 116.288C43.3027 115.969 43.1955 115.703 42.9811 115.544C42.7668 115.384 42.4452 115.278 42.0165 115.278H40.891V117.352H42.0165C42.4452 117.298 42.7668 117.192 42.9811 117.033Z" fill="white"/>
<path d="M46.8398 115.225H45.3928V114.853H48.7156V115.225H47.2686V118.947H46.8398V115.225Z" fill="white"/>
<path d="M50.6985 114.853H51.1272V118.947H50.6985V114.853Z" fill="white"/>
<path d="M56.7545 118.575V118.947H53.3782V118.628L56.1114 115.225H53.4318V114.853H56.7009V115.172L53.9677 118.575H56.7545Z" fill="white"/>
<path d="M58.9517 114.853H59.3804V118.947H58.9517V114.853Z" fill="white"/>
<path d="M65.4901 114.853V118.947H65.115L62.4353 115.597V118.947H62.0066V114.853H62.3817L65.0614 118.202V114.853H65.4901Z" fill="white"/>
<path d="M71.0637 116.926H71.4924V118.468C71.2781 118.628 71.0637 118.787 70.7957 118.84C70.5278 118.894 70.2598 119 69.9383 119C69.5095 119 69.1344 118.894 68.8128 118.734C68.4913 118.575 68.2233 118.309 68.0089 117.99C67.7946 117.671 67.741 117.298 67.741 116.926C67.741 116.554 67.8482 116.182 68.0089 115.863C68.2233 115.544 68.4377 115.278 68.8128 115.118C69.188 114.959 69.5095 114.853 69.9383 114.853C70.2598 114.853 70.5278 114.906 70.7957 115.012C71.0637 115.118 71.2781 115.278 71.4388 115.437L71.1709 115.703C70.8493 115.384 70.4206 115.225 69.9383 115.225C69.6167 115.225 69.2951 115.278 69.0272 115.437C68.7592 115.597 68.5449 115.81 68.3841 116.022C68.2233 116.288 68.1697 116.554 68.1697 116.873C68.1697 117.192 68.2233 117.458 68.3841 117.724C68.5449 117.99 68.7592 118.202 69.0272 118.309C69.2951 118.415 69.6167 118.521 69.9383 118.521C70.367 118.521 70.7421 118.415 71.0101 118.202V116.926H71.0637Z" fill="white"/>
<path d="M0.696702 108.1C0.482332 108.1 0.321555 108.046 0.160777 107.887C0 107.727 0 107.621 0 107.408V98.5818C0 98.3691 0.0535925 98.2095 0.21437 98.05C0.375147 97.8905 0.535925 97.8373 0.750294 97.8373H16.0241C16.6673 97.8373 17.2568 97.9969 17.7927 98.2627C18.3286 98.5818 18.7574 98.954 19.1325 99.4857C19.5077 99.9642 19.8292 100.549 19.99 101.134C20.2044 101.772 20.3115 102.357 20.3115 102.942C20.3115 103.527 20.2044 104.112 20.0436 104.75C19.8292 105.335 19.5612 105.92 19.2397 106.398C18.8645 106.877 18.4358 107.302 17.9535 107.621C17.4711 107.94 16.9352 108.1 16.2921 108.1H0.696702ZM1.447 106.717H15.4346C16.1313 106.717 16.7208 106.611 17.1496 106.345C17.5783 106.079 17.9535 105.76 18.2214 105.388C18.4894 105.016 18.6502 104.59 18.7574 104.165C18.8645 103.739 18.8645 103.367 18.8645 103.048C18.8645 102.729 18.811 102.304 18.7574 101.932C18.6502 101.506 18.4894 101.081 18.2214 100.709C17.9535 100.336 17.5783 100.017 17.1496 99.7516C16.6673 99.4857 16.0777 99.3793 15.4346 99.3793H1.447V106.717Z" fill="white"/>
<path d="M28.0288 108.1C27.4393 108.046 26.9034 107.887 26.4211 107.621C25.9387 107.302 25.51 106.877 25.1348 106.398C24.7597 105.92 24.4917 105.335 24.331 104.75C24.1166 104.165 24.063 103.527 24.063 102.942V98.5286C24.063 98.3159 24.1166 98.1564 24.2774 97.9969C24.4381 97.8374 24.5989 97.7842 24.8133 97.7842C25.0277 97.7842 25.1884 97.8374 25.3492 97.9969C25.51 98.1564 25.5636 98.3159 25.5636 98.5286V102.942C25.5636 103.314 25.6172 103.686 25.6708 104.059C25.7779 104.484 25.9387 104.909 26.2067 105.282C26.4746 105.654 26.8498 105.973 27.2785 106.239C27.7609 106.504 28.2968 106.611 29.0471 106.611H39.4976C40.1943 106.611 40.7838 106.504 41.2126 106.239C41.6413 105.973 42.0165 105.654 42.2844 105.282C42.5524 104.909 42.7132 104.484 42.8204 104.059C42.9275 103.633 42.9275 103.261 42.9275 102.942V98.5286C42.9275 98.3159 42.9811 98.1564 43.1419 97.9969C43.3027 97.8374 43.4635 97.7842 43.6778 97.7842C43.8922 97.7842 44.053 97.8374 44.2138 97.9969C44.3745 98.1564 44.4281 98.3159 44.4281 98.5286V102.942C44.4281 103.527 44.3209 104.165 44.1066 104.75C43.8922 105.335 43.6242 105.92 43.2491 106.398C42.8739 106.877 42.3916 107.302 41.9093 107.621C41.3734 107.94 40.8374 108.046 40.1407 108.046H28.0288V108.1Z" fill="white"/>
<path d="M66.5082 108.1C66.2938 108.1 66.1331 108.046 65.9723 107.887C65.8115 107.727 65.7579 107.568 65.7579 107.355V102.942C65.7579 102.57 65.7043 102.197 65.6507 101.825C65.5435 101.4 65.3828 100.975 65.1148 100.602C64.8468 100.23 64.4717 99.9111 64.043 99.6452C63.5606 99.3793 62.9711 99.273 62.328 99.273H52.8957C52.199 99.273 51.6095 99.4325 51.1272 99.6452C50.6984 99.9111 50.3233 100.23 50.0553 100.602C49.7874 100.975 49.6266 101.4 49.5194 101.825C49.4122 102.251 49.4122 102.623 49.4122 102.942V107.355C49.4122 107.568 49.3586 107.727 49.1978 107.887C49.0371 108.046 48.8763 108.1 48.6619 108.1C48.4475 108.1 48.2868 108.046 48.126 107.887C47.9652 107.727 47.9116 107.568 47.9116 107.355V102.942C47.9116 102.357 48.0188 101.719 48.2332 101.134C48.4475 100.549 48.7155 99.9642 49.0907 99.4857C49.4658 99.0071 49.9481 98.5818 50.4305 98.2627C50.9664 97.9437 51.5023 97.8373 52.199 97.8373H63.2391C63.8286 97.8905 64.3645 98.05 64.8468 98.3159C65.3292 98.6349 65.7579 99.0603 66.1331 99.5389C66.5082 100.017 66.7762 100.602 66.9369 101.187C67.1513 101.772 67.2049 102.41 67.2049 102.995V107.408C67.2049 107.621 67.1513 107.781 66.9905 107.94C66.8834 108.046 66.7226 108.1 66.5082 108.1Z" fill="white"/>
<path d="M74.9758 108.1C74.3327 108.1 73.7968 107.94 73.3681 107.674C72.8857 107.355 72.457 106.983 72.0819 106.451C71.7067 105.973 71.4387 105.388 71.278 104.75C71.0636 104.112 71.01 103.527 71.01 102.942C71.01 102.357 71.1172 101.719 71.3316 101.134C71.5459 100.549 71.8139 99.9642 72.189 99.4857C72.5642 99.0071 73.0465 98.5818 73.5289 98.2627C74.0648 97.9437 74.6007 97.8373 75.2974 97.8373H90.3033C90.5177 97.8373 90.6784 97.8905 90.8392 98.05C91 98.2095 91.0536 98.3691 91.0536 98.5818C91.0536 98.7944 91 98.954 90.8392 99.1135C90.6784 99.273 90.5177 99.3262 90.3033 99.3262H75.8333C75.1366 99.3262 74.5471 99.4857 74.0648 99.6984C73.636 99.9642 73.2609 100.283 72.9929 100.655C72.725 101.028 72.5642 101.453 72.457 101.878C72.3498 102.304 72.3498 102.676 72.3498 102.995C72.3498 103.314 72.4034 103.739 72.457 104.112C72.5642 104.537 72.725 104.962 72.9929 105.335C73.2609 105.707 73.636 106.026 74.0648 106.292C74.5471 106.558 75.1366 106.664 75.8333 106.664H90.3033C90.5177 106.664 90.6784 106.717 90.8392 106.877C91 107.036 91.0536 107.196 91.0536 107.408C91.0536 107.621 91 107.781 90.8392 107.94C90.6784 108.1 90.5177 108.153 90.3033 108.153H74.9758V108.1ZM76.1013 103.686C75.8869 103.686 75.7261 103.633 75.5654 103.474C75.4046 103.314 75.351 103.155 75.351 102.942C75.351 102.729 75.4046 102.57 75.5654 102.41C75.7261 102.251 75.8869 102.197 76.1013 102.197H89.1778C89.3922 102.197 89.553 102.251 89.7138 102.41C89.8745 102.57 89.9281 102.729 89.9281 102.942C89.9281 103.155 89.8745 103.314 89.7138 103.474C89.553 103.633 89.3922 103.686 89.1778 103.686H76.1013Z" fill="white"/>
</g>
<defs>
<clipPath id="clip0_174_1040">
<rect width="91" height="119" fill="white"/>
</clipPath>
</defs>
</svg>
