<svg width="248" height="248" viewBox="0 0 248 248" fill="none" xmlns="http://www.w3.org/2000/svg">
<g id="fi_7253092" clip-path="url(#clip0_361_325)">
<g id="Group">
<g id="Group_2">
<g id="Group_3">
<path id="Vector" d="M204.717 207.822H125.304V206.055C125.304 204.049 123.678 202.422 121.671 202.422C119.664 202.422 118.038 204.049 118.038 206.055V207.822H76.1556C74.1487 207.822 72.5225 209.449 72.5225 211.455C72.5225 213.462 74.1487 215.088 76.1556 215.088H118.038V216.855C118.038 218.862 119.664 220.488 121.671 220.488C123.678 220.488 125.304 218.862 125.304 216.855V215.088H204.718C206.725 215.088 208.351 213.462 208.351 211.455C208.351 209.449 206.724 207.822 204.717 207.822Z" fill="#FAB55A"/>
<path id="Vector_2" d="M39.6691 191.699C28.7755 191.699 19.9131 200.561 19.9131 211.455C19.9131 222.349 28.7755 231.211 39.6691 231.211C50.5627 231.211 59.4251 222.349 59.4251 211.455C59.4251 200.561 50.5627 191.699 39.6691 191.699ZM39.6691 223.945C32.7821 223.945 27.1793 218.342 27.1793 211.455C27.1793 204.568 32.7821 198.965 39.6691 198.965C46.556 198.965 52.1588 204.568 52.1588 211.455C52.1588 218.342 46.5556 223.945 39.6691 223.945Z" fill="#FAB55A"/>
<path id="Vector_3" d="M93.4614 147.485C94.1691 149.36 96.2705 150.308 98.1433 149.602C100.02 148.893 100.968 146.797 100.259 144.92L85.469 105.728C85.4569 105.694 85.4433 105.661 85.4297 105.628C84.7278 103.921 83.0822 102.819 81.2327 102.819C79.3857 102.82 77.7401 103.926 77.0406 105.635C77.0295 105.663 77.0183 105.691 77.0081 105.718L62.0818 144.909C61.3673 146.784 62.309 148.883 64.1842 149.597C66.0564 150.312 68.1578 149.37 68.8724 147.495L71.6984 140.075H90.6653C90.6648 140.075 93.4599 147.481 93.4614 147.485ZM74.4654 132.809L81.225 115.061L87.9226 132.809H74.4654Z" fill="#FAB55A"/>
<path id="Vector_4" d="M155.085 149.463C160.63 149.463 165.289 145.907 166.165 141.007C166.826 137.301 165.168 132.469 158.531 130.021C156.906 129.421 155.296 128.78 153.698 128.113C152.901 127.781 151.195 127.301 151.364 126.13C151.415 125.777 151.679 124.913 153.029 124.506C156.315 123.516 159.412 125.936 159.518 126.021C161.053 127.292 163.33 127.088 164.615 125.56C165.906 124.023 165.708 121.732 164.172 120.441C163.926 120.234 158.067 115.4 150.933 117.549C147.271 118.651 144.681 121.545 144.171 125.099C143.69 128.443 145.14 131.661 147.953 133.498C150.281 135.017 153.426 135.883 156.015 136.838C156.788 137.123 159.288 138.174 159.011 139.73C158.798 140.917 157.238 142.197 155.085 142.197C152.714 142.197 150.438 141.247 148.996 139.655C147.649 138.168 145.351 138.056 143.864 139.403C142.378 140.75 142.264 143.048 143.612 144.535C146.451 147.666 150.633 149.463 155.085 149.463Z" fill="#FAB55A"/>
<path id="Vector_5" d="M119.592 149.463C122.98 149.463 126.132 148.425 128.743 146.651C129.115 148.262 130.559 149.463 132.283 149.463C134.29 149.463 135.916 147.836 135.916 145.83V107.981C135.916 105.975 134.29 104.348 132.283 104.348C130.276 104.348 128.65 105.975 128.65 107.981V119.564C126.057 117.828 122.94 116.814 119.592 116.814C110.591 116.814 103.268 124.137 103.268 133.139C103.268 142.14 110.591 149.463 119.592 149.463ZM119.592 124.08C124.587 124.08 128.65 128.144 128.65 133.138C128.65 138.133 124.586 142.196 119.592 142.196C114.598 142.196 110.534 138.133 110.534 133.138C110.534 128.144 114.597 124.08 119.592 124.08Z" fill="#FAB55A"/>
<path id="Vector_6" d="M203.032 0.252319C198.649 0.252319 194.318 0.882062 190.157 2.12362C188.234 2.69766 187.14 4.72107 187.714 6.64421C188.288 8.56686 190.312 9.65971 192.234 9.08664C195.721 8.04611 199.354 7.51858 203.032 7.51858C223.821 7.51858 240.734 24.4315 240.734 45.2208C240.734 66.0101 223.821 82.923 203.032 82.923C182.243 82.923 165.33 66.0101 165.33 45.2208C165.33 33.9237 170.334 23.3169 179.06 16.1199C180.607 14.843 180.827 12.5531 179.551 11.0054C178.273 9.45722 175.984 9.23827 174.436 10.5147C168.7 15.246 164.313 21.2131 161.53 27.8728H10.895C4.88777 27.8728 0 32.7601 0 38.7674V236.853C0 242.86 4.88777 247.748 10.895 247.748H217.249C223.256 247.748 228.144 242.86 228.144 236.853V82.5064C240.114 74.4181 248 60.7226 248 45.2203C248 20.4249 227.827 0.252319 203.032 0.252319ZM7.26626 38.7674C7.26626 36.7667 8.89391 35.1386 10.895 35.1386H159.2C158.451 38.4099 158.064 41.7882 158.064 45.2203C158.064 47.9825 158.314 50.687 158.793 53.3125H7.26626V38.7674ZM220.878 236.853C220.878 238.854 219.25 240.481 217.249 240.481H10.895C8.89391 240.481 7.26626 238.854 7.26626 236.853V60.5788H160.765C161.962 63.8636 163.532 66.9711 165.423 69.8496H26.8692C22.9677 69.8496 19.7938 73.0235 19.7938 76.925V175.729C19.7938 179.63 22.9682 182.804 26.8692 182.804H60.9528C62.9598 182.804 64.5859 181.177 64.5859 179.171C64.5859 177.165 62.9598 175.538 60.9528 175.538H27.0596V77.1158H171.363C179.066 84.7653 189.516 89.6516 201.084 90.1471V175.538H77.7059C75.699 175.538 74.0728 177.165 74.0728 179.171C74.0728 181.178 75.699 182.805 77.7059 182.805H201.275C205.177 182.805 208.35 179.631 208.35 175.729V89.8759C212.75 89.3551 216.958 88.1964 220.877 86.4951V236.853H220.878Z" fill="#FAB55A"/>
<path id="Vector_7" d="M203.93 60.4795C199.872 60.4795 195.956 58.832 193.455 56.0722C192.108 54.5856 189.811 54.4722 188.324 55.8199C186.836 57.1675 186.724 59.4646 188.071 60.9518C190.955 64.1349 195 66.3579 199.398 67.2759V71.358C199.398 73.3645 201.024 74.9912 203.031 74.9912C205.038 74.9912 206.665 73.3645 206.665 71.358V67.5195C212.78 66.4984 217.763 62.128 218.757 56.5625C220.297 47.9336 212.295 43.2313 205.263 41.0558C201.749 39.9683 198.43 38.9413 197.2 36.4868C195.863 33.8157 197.625 31.2144 200.325 30.401C206.23 28.6218 211.592 32.8948 211.727 33.0053C213.263 34.2841 215.545 34.0821 216.832 32.5509C218.123 31.0148 217.925 28.723 216.389 27.432C216.156 27.2363 212.26 24.0217 206.665 23.0025V19.0845C206.665 17.0781 205.039 15.4514 203.032 15.4514C201.025 15.4514 199.399 17.0781 199.399 19.0845V23.1348C199.012 23.2229 198.622 23.3256 198.23 23.4433C194.683 24.512 191.837 27.0082 190.421 30.2935C189.094 33.3734 189.195 36.7295 190.704 39.7425C193.321 44.967 198.752 46.6469 203.116 47.9975C206.307 48.9847 212.407 50.794 211.605 55.2856C211.148 57.838 208.153 60.4795 203.93 60.4795Z" fill="#FAB55A"/>
</g>
<path id="Vector_8" d="M41.6825 208.441C41.2935 208.175 40.8527 207.984 40.3794 207.891C38.1559 207.456 36.0342 209.211 36.0342 211.456C36.0342 213.368 37.7597 215.09 39.6673 215.09C41.6248 215.09 43.3004 213.435 43.3004 211.456C43.3009 210.238 42.6552 209.107 41.6825 208.441Z" fill="#FAB55A"/>
</g>
</g>
</g>
<defs>
<clipPath id="clip0_361_325">
<rect width="248" height="248" fill="white"/>
</clipPath>
</defs>
</svg>
