<svg width="13" height="22" viewBox="0 0 13 22" fill="none" xmlns="http://www.w3.org/2000/svg">
<g id="22">
<path id="Vector" d="M10.5482 0.760752C10.8475 0.75901 11.1405 0.846449 11.3899 1.01192C11.6393 1.17739 11.8338 1.41339 11.9485 1.68984C12.0633 1.96628 12.0932 2.27065 12.0343 2.56413C11.9754 2.85762 11.8305 3.12691 11.618 3.3377L3.6324 11.3097L11.618 19.2816C11.9017 19.5654 12.0611 19.9503 12.0611 20.3516C12.0611 20.5503 12.022 20.7471 11.946 20.9307C11.8699 21.1142 11.7585 21.281 11.618 21.4216C11.4775 21.5621 11.3107 21.6735 11.1272 21.7496C10.9436 21.8256 10.7469 21.8647 10.5482 21.8647C10.147 21.8647 9.76219 21.7053 9.47847 21.4216L0.438153 12.3796C0.157525 12.0973 9.4702e-06 11.7153 9.505e-06 11.3172C9.5398e-06 10.9191 0.157525 10.5371 0.438153 10.2548L9.47847 1.21285C9.61801 1.07045 9.78442 0.957176 9.96806 0.879572C10.1517 0.801966 10.3489 0.761579 10.5482 0.760752Z" fill="#272932"/>
</g>
</svg>
