<svg width="18" height="18" viewBox="0 0 18 18" fill="none" xmlns="http://www.w3.org/2000/svg">
<path d="M0.26 9C0.26 7.41333 0.66 5.94 1.46 4.58C2.22 3.26 3.26 2.21333 4.58 1.44C5.94 0.639999 7.41333 0.239999 9 0.239999C10.5867 0.239999 12.06 0.639999 13.42 1.44C14.74 2.21333 15.7867 3.26 16.56 4.58C17.36 5.94 17.76 7.41333 17.76 9C17.76 10.5867 17.36 12.06 16.56 13.42C15.7867 14.74 14.74 15.7867 13.42 16.56C12.06 17.36 10.5867 17.76 9 17.76C7.42667 17.76 5.96 17.36 4.6 16.56C3.28 15.7867 2.23333 14.74 1.46 13.42C0.66 12.06 0.26 10.5867 0.26 9ZM9.8 8.76C9.90667 8.85333 9.96 8.96667 9.96 9.1C9.96 9.23333 9.90667 9.35333 9.8 9.46L5.76 13.5C5.66667 13.5933 5.62 13.7067 5.62 13.84C5.62 13.9733 5.66667 14.0933 5.76 14.2L6.94 15.38C7.04667 15.4733 7.16667 15.52 7.3 15.52C7.43333 15.52 7.54667 15.4733 7.64 15.38L13.56 9.46C13.6667 9.35333 13.72 9.23333 13.72 9.1C13.72 8.96667 13.6667 8.85333 13.56 8.76L7.64 2.84C7.54667 2.73333 7.43333 2.68 7.3 2.68C7.16667 2.68 7.04667 2.73333 6.94 2.84L5.76 4C5.66667 4.09333 5.62 4.21333 5.62 4.36C5.62 4.49333 5.66667 4.61333 5.76 4.72L9.8 8.76Z" fill="url(#paint0_linear_219_213)"/>
<defs>
<linearGradient id="paint0_linear_219_213" x1="24.1567" y1="-14.5956" x2="1.65253" y2="19.0002" gradientUnits="userSpaceOnUse">
<stop stop-color="#FADE84"/>
<stop offset="1" stop-color="#FAB55A"/>
</linearGradient>
</defs>
</svg>
