<svg width="149" height="45" viewBox="0 0 149 45" fill="none" xmlns="http://www.w3.org/2000/svg">
<g id="Group 501">
<path id="path8" d="M92.0787 34.9783C83.4535 41.3357 70.952 44.7276 60.1884 44.7276C45.096 44.7276 31.509 39.1455 21.23 29.8614C20.4224 29.1313 21.146 28.1364 22.1151 28.7049C33.2082 35.1592 46.9244 39.0421 61.0929 39.0421C70.6483 39.0421 81.16 37.0651 90.8253 32.9626C92.2854 32.3423 93.5065 33.9188 92.0787 34.9783Z" fill="#FF9900"/>
<path id="path10" d="M95.6644 30.8758C94.5661 29.4674 88.3766 30.2104 85.5985 30.5398C84.7522 30.6432 84.6229 29.9067 85.3853 29.3769C90.3149 25.9075 98.4037 26.9089 99.347 28.0718C100.29 29.2412 99.1015 37.3495 94.4691 41.2195C93.7585 41.8139 93.0801 41.4973 93.3967 40.7091C94.4368 38.1119 96.7692 32.2907 95.6644 30.8758Z" fill="#FF9900"/>
<path id="path12" d="M85.7924 4.88451V1.512C85.7924 1.0016 86.18 0.65918 86.6452 0.65918H101.744C102.229 0.65918 102.616 1.00806 102.616 1.512V4.39996C102.61 4.88451 102.203 5.51767 101.479 6.51909L93.6551 17.6897C96.5625 17.6187 99.6313 18.0515 102.267 19.5375C102.862 19.8735 103.023 20.3645 103.068 20.8491V24.4477C103.068 24.9387 102.526 25.5137 101.957 25.2165C97.3119 22.7808 91.1419 22.5159 86.0056 25.2424C85.4823 25.5266 84.9331 24.9581 84.9331 24.4671V21.0493C84.9331 20.5002 84.9396 19.5634 85.4887 18.7299L94.5532 5.73087H86.6646C86.18 5.73087 85.7924 5.38846 85.7924 4.88451Z" fill="white"/>
<path id="path14" d="M30.7144 25.927H26.1208C25.6815 25.8947 25.3326 25.5652 25.3003 25.1452V1.56992C25.3003 1.09828 25.6944 0.723553 26.1854 0.723553H30.4689C30.9147 0.742923 31.27 1.08536 31.3023 1.51176V4.59355H31.3863C32.504 1.61514 34.6038 0.226074 37.4336 0.226074C40.3086 0.226074 42.1047 1.61514 43.3969 4.59355C44.5081 1.61514 47.0343 0.226074 49.7413 0.226074C51.6667 0.226074 53.7729 1.02075 55.0585 2.80392C56.5122 4.78737 56.215 7.66887 56.215 10.195L56.2086 25.0742C56.2086 25.5458 55.8145 25.927 55.3234 25.927H50.7363C50.2776 25.8947 49.9093 25.5264 49.9093 25.0742V12.579C49.9093 11.5841 49.9998 9.10316 49.7801 8.15988C49.4377 6.577 48.4104 6.13121 47.0795 6.13121C45.9683 6.13121 44.8053 6.87419 44.3337 8.06298C43.8621 9.25176 43.9073 11.2417 43.9073 12.579V25.0742C43.9073 25.5458 43.5132 25.927 43.0222 25.927H38.435C37.9698 25.8947 37.608 25.5264 37.608 25.0742L37.6016 12.579C37.6016 9.94952 38.0344 6.07952 34.7718 6.07952C31.4703 6.07952 31.5995 9.8526 31.5995 12.579V25.0742C31.5995 25.5458 31.2054 25.927 30.7144 25.927Z" fill="white"/>
<path id="path16" d="M115.616 0.226074C122.432 0.226074 126.121 6.07952 126.121 13.5223C126.121 20.7131 122.044 26.418 115.616 26.418C108.922 26.418 105.278 20.5645 105.278 13.2703C105.278 5.93092 108.967 0.226074 115.616 0.226074ZM115.654 5.03934C112.269 5.03934 112.056 9.65232 112.056 12.5274C112.056 15.4089 112.01 21.5595 115.616 21.5595C119.175 21.5595 119.343 16.5976 119.343 13.574C119.343 11.5841 119.259 9.20653 118.659 7.31999C118.142 5.67896 117.114 5.03934 115.654 5.03934Z" fill="white"/>
<path id="path18" d="M134.959 25.927H130.385C129.926 25.8947 129.558 25.5264 129.558 25.0742L129.551 1.49238C129.59 1.05951 129.971 0.723553 130.436 0.723553H134.694C135.095 0.742923 135.424 1.01429 135.515 1.38255V4.98765H135.599C136.884 1.76374 138.687 0.226074 141.859 0.226074C143.92 0.226074 145.929 0.969062 147.221 3.0042C148.423 4.89074 148.423 8.06298 148.423 10.3436V25.184C148.371 25.5975 147.99 25.927 147.538 25.927H142.931C142.512 25.8947 142.163 25.5846 142.117 25.184V12.3788C142.117 9.80092 142.415 6.02783 139.242 6.02783C138.125 6.02783 137.097 6.77729 136.587 7.91438C135.941 9.35513 135.857 10.7894 135.857 12.3788V25.0742C135.851 25.5458 135.45 25.927 134.959 25.927Z" fill="white"/>
<path id="use28" d="M73.756 14.6659V13.671C70.4352 13.671 66.927 14.3816 66.927 18.2969C66.927 20.2803 67.9542 21.6242 69.718 21.6242C71.0102 21.6242 72.1666 20.8295 72.8967 19.5373C73.8012 17.948 73.756 16.4556 73.756 14.6659ZM78.3884 25.8624C78.0847 26.1338 77.6454 26.1532 77.3029 25.9723C75.7782 24.7059 75.5069 24.118 74.667 22.9099C72.1473 25.4812 70.3641 26.2501 67.0949 26.2501C63.2314 26.2501 60.2207 23.866 60.2207 19.0915C60.2207 15.3637 62.2429 12.8246 65.118 11.5841C67.6118 10.4858 71.0942 10.292 73.756 9.98833V9.39394C73.756 8.30207 73.84 7.00992 73.2004 6.06666C72.6383 5.22029 71.5658 4.87141 70.6225 4.87141C68.8717 4.87141 67.3082 5.76946 66.927 7.63016C66.8494 8.04365 66.5458 8.45067 66.1323 8.47006L61.6744 7.99196C61.2996 7.90797 60.8862 7.60431 60.9895 7.02931C62.0168 1.62812 66.8947 0 71.2621 0C73.4976 0 76.4178 0.59439 78.1816 2.28711C80.417 4.37393 80.2038 7.15852 80.2038 10.1886V17.3471C80.2038 19.4986 81.0954 20.4418 81.9353 21.6048C82.2325 22.0183 82.2971 22.5157 81.9224 22.8259C80.9856 23.6076 79.3187 25.0613 78.4013 25.8753L78.3884 25.8624Z" fill="white"/>
<path id="path30" d="M13.5353 14.6659V13.671C10.2145 13.671 6.70627 14.3816 6.70627 18.2969C6.70627 20.2803 7.73352 21.6242 9.49731 21.6242C10.7895 21.6242 11.9459 20.8295 12.676 19.5373C13.5805 17.948 13.5353 16.4556 13.5353 14.6659ZM18.1677 25.8624C17.864 26.1338 17.4247 26.1532 17.0822 25.9723C15.5575 24.7059 15.2862 24.118 14.4463 22.9099C11.9266 25.4812 10.1434 26.2501 6.87424 26.2501C3.01071 26.2501 0 23.866 0 19.0915C0 15.3637 2.02222 12.8246 4.89725 11.5841C7.39111 10.4858 10.8735 10.292 13.5353 9.98833V9.39394C13.5353 8.30207 13.6193 7.00992 12.9797 6.06666C12.4176 5.22029 11.3451 4.87141 10.4018 4.87141C8.65096 4.87141 7.08745 5.76946 6.70627 7.63016C6.62874 8.04365 6.32508 8.45067 5.91159 8.47006L1.45367 7.99196C1.07895 7.90797 0.665457 7.60431 0.768829 7.02931C1.79609 1.62812 6.67396 0 11.0414 0C13.2769 0 16.1971 0.59439 17.9609 2.28711C20.1963 4.37393 19.9831 7.15852 19.9831 10.1886V17.3471C19.9831 19.4986 20.8747 20.4418 21.7146 21.6048C22.0118 22.0183 22.0764 22.5157 21.7017 22.8259C20.7649 23.6076 19.098 25.0613 18.1806 25.8753L18.1677 25.8624Z" fill="white"/>
</g>
</svg>
