<svg width="236" height="236" viewBox="0 0 236 236" fill="none" xmlns="http://www.w3.org/2000/svg">
<g id="fi_4520915">
<g id="Group">
<path id="Vector" d="M228.625 3.6875H140.125C138.086 3.6875 136.438 5.3395 136.438 7.375V125.375C136.438 127.41 138.086 129.062 140.125 129.062H228.625C230.664 129.062 232.312 127.41 232.312 125.375V7.375C232.312 5.3395 230.664 3.6875 228.625 3.6875ZM224.938 121.688H143.812V11.0625H224.938V121.688Z" fill="#FAB55A"/>
<path id="Vector_2" d="M221.25 140.125H125.375C119.276 140.125 114.312 145.088 114.312 151.188V221.25C114.312 227.349 119.276 232.312 125.375 232.312H221.25C227.349 232.312 232.312 227.349 232.312 221.25V151.188C232.312 145.088 227.349 140.125 221.25 140.125ZM224.938 221.25C224.938 223.282 223.285 224.938 221.25 224.938H125.375C123.34 224.938 121.688 223.282 121.688 221.25V151.188C121.688 149.156 123.34 147.5 125.375 147.5H221.25C223.285 147.5 224.938 149.156 224.938 151.188V221.25Z" fill="#FAB55A"/>
<path id="Vector_3" d="M210.188 206.5H202.813C202.813 204.465 201.164 202.812 199.125 202.812C197.086 202.812 195.438 204.465 195.438 206.5H136.438C131.555 206.5 131.559 213.875 136.438 213.875H195.438C195.438 215.91 197.086 217.562 199.125 217.562C201.164 217.562 202.813 215.91 202.813 213.875H210.188C215.07 213.875 215.066 206.5 210.188 206.5Z" fill="#FAB55A"/>
<path id="Vector_4" d="M121.688 114.312V25.8125C121.688 19.7134 116.724 14.75 110.625 14.75H14.75C8.65087 14.75 3.6875 19.7134 3.6875 25.8125V114.312C3.6875 120.412 8.65087 125.375 14.75 125.375H110.625C116.724 125.375 121.688 120.412 121.688 114.312ZM114.312 114.312C114.312 116.344 112.66 118 110.625 118H14.75C12.7145 118 11.0625 116.344 11.0625 114.312V25.8125C11.0625 23.7807 12.7145 22.125 14.75 22.125H110.625C112.66 22.125 114.312 23.7807 114.312 25.8125V114.312Z" fill="#FAB55A"/>
<path id="Vector_5" d="M77.4375 62.6875C85.5721 62.6875 92.1875 56.0721 92.1875 47.9375C92.1875 39.8029 85.5721 33.1875 77.4375 33.1875C69.3029 33.1875 62.6875 39.8029 62.6875 47.9375C62.6875 56.0721 69.3029 62.6875 77.4375 62.6875ZM77.4375 40.5625C81.5048 40.5625 84.8125 43.8702 84.8125 47.9375C84.8125 52.0048 81.5048 55.3125 77.4375 55.3125C73.3702 55.3125 70.0625 52.0048 70.0625 47.9375C70.0625 43.8702 73.3702 40.5625 77.4375 40.5625Z" fill="#FAB55A"/>
<path id="Vector_6" d="M91.1067 74.8304C89.6648 73.3886 87.3343 73.3886 85.8925 74.8304L73.7496 86.9733L50.5441 63.7679C49.1023 62.3261 46.7718 62.3261 45.33 63.7679L19.5175 89.5804C16.066 93.0319 21.2838 98.2423 24.7316 94.7945L47.9371 71.5891L71.1425 94.7945C72.5843 96.2363 74.9148 96.2363 76.3567 94.7945L88.4996 82.6516L100.643 94.7945C104.042 98.1944 109.352 93.0724 105.857 89.5804L91.1067 74.8304Z" fill="#FAB55A"/>
<path id="Vector_7" d="M158.563 29.5H195.438C200.32 29.5 200.316 22.125 195.438 22.125H158.563C153.68 22.125 153.684 29.5 158.563 29.5Z" fill="#FAB55A"/>
<path id="Vector_8" d="M158.563 62.6875H210.188C215.07 62.6875 215.066 55.3125 210.188 55.3125H158.563C153.68 55.3125 153.684 62.6875 158.563 62.6875Z" fill="#FAB55A"/>
<path id="Vector_9" d="M158.563 95.875H210.188C215.07 95.875 215.066 88.5 210.188 88.5H158.563C153.68 88.5 153.684 95.875 158.563 95.875Z" fill="#FAB55A"/>
<path id="Vector_10" d="M158.563 110.625H177C181.882 110.625 181.879 103.25 177 103.25H158.563C153.68 103.25 153.684 110.625 158.563 110.625Z" fill="#FAB55A"/>
<path id="Vector_11" d="M158.563 47.9375H165.938C170.82 47.9375 170.816 40.5625 165.938 40.5625H158.563C153.68 40.5625 153.684 47.9375 158.563 47.9375Z" fill="#FAB55A"/>
<path id="Vector_12" d="M184.375 47.9375H210.188C215.07 47.9375 215.066 40.5625 210.188 40.5625H184.375C179.493 40.5625 179.497 47.9375 184.375 47.9375Z" fill="#FAB55A"/>
<path id="Vector_13" d="M158.563 81.125H184.375C189.257 81.125 189.254 73.75 184.375 73.75H158.563C153.68 73.75 153.684 81.125 158.563 81.125Z" fill="#FAB55A"/>
<path id="Vector_14" d="M210.188 73.75H202.813C197.93 73.75 197.934 81.125 202.813 81.125H210.188C215.07 81.125 215.066 73.75 210.188 73.75Z" fill="#FAB55A"/>
<path id="Vector_15" d="M55.3125 136.438C26.845 136.438 3.6875 154.635 3.6875 177C3.6875 186.104 7.60363 194.973 14.75 202.127V228.625C14.75 231.929 18.7436 233.533 21.0446 231.232L37.2659 215.011C42.9594 216.707 49.0216 217.562 55.3125 217.562C83.78 217.562 106.938 199.365 106.938 177C106.938 154.635 83.78 136.438 55.3125 136.438ZM55.3125 210.188C49.0106 210.188 42.9999 209.225 37.4392 207.326C36.1154 206.869 34.633 207.208 33.6411 208.207L22.125 219.723V200.563C22.125 199.538 21.7009 198.561 20.9524 197.864C14.4808 191.846 11.0625 184.629 11.0625 177C11.0625 158.703 30.9123 143.812 55.3125 143.812C79.7127 143.812 99.5625 158.703 99.5625 177C99.5625 195.297 79.7127 210.188 55.3125 210.188Z" fill="#FAB55A"/>
<path id="Vector_16" d="M55.3125 182.531C58.3673 182.531 60.8438 180.055 60.8438 177C60.8438 173.945 58.3673 171.469 55.3125 171.469C52.2577 171.469 49.7812 173.945 49.7812 177C49.7812 180.055 52.2577 182.531 55.3125 182.531Z" fill="#FAB55A"/>
<path id="Vector_17" d="M81.125 182.531C84.1798 182.531 86.6562 180.055 86.6562 177C86.6562 173.945 84.1798 171.469 81.125 171.469C78.0702 171.469 75.5938 173.945 75.5938 177C75.5938 180.055 78.0702 182.531 81.125 182.531Z" fill="#FAB55A"/>
<path id="Vector_18" d="M29.5 182.531C32.5548 182.531 35.0312 180.055 35.0312 177C35.0312 173.945 32.5548 171.469 29.5 171.469C26.4452 171.469 23.9688 173.945 23.9688 177C23.9688 180.055 26.4452 182.531 29.5 182.531Z" fill="#FAB55A"/>
<path id="Vector_19" d="M166.904 198.07L191.414 183.947C196.754 180.875 196.754 173.143 191.414 170.067L166.907 155.952C161.583 152.869 154.875 156.737 154.875 162.888V191.127C154.875 197.359 161.642 201.09 166.904 198.07ZM162.25 162.888C162.25 162.412 162.788 162.088 163.223 162.342L187.734 176.462C188.155 176.705 188.155 177.313 187.734 177.557L163.227 191.676C162.792 191.92 162.25 191.621 162.25 191.13V162.888Z" fill="#FAB55A"/>
</g>
</g>
</svg>
