<svg width="143" height="48" viewBox="0 0 143 48" fill="none" xmlns="http://www.w3.org/2000/svg">
<g id="Group 499">
<path id="Vector" d="M61.0988 25.4855C61.0988 32.2472 55.8091 37.2297 49.3175 37.2297C42.8258 37.2297 37.5361 32.2472 37.5361 25.4855C37.5361 18.6761 42.8258 13.7412 49.3175 13.7412C55.8091 13.7412 61.0988 18.6761 61.0988 25.4855ZM55.9415 25.4855C55.9415 21.2601 52.8757 18.369 49.3175 18.369C45.7592 18.369 42.6934 21.2601 42.6934 25.4855C42.6934 29.6685 45.7592 32.6019 49.3175 32.6019C52.8757 32.6019 55.9415 29.6632 55.9415 25.4855Z" fill="#EA4335"/>
<path id="Vector_2" d="M86.5148 25.4855C86.5148 32.2472 81.2251 37.2297 74.7335 37.2297C68.2418 37.2297 62.9521 32.2472 62.9521 25.4855C62.9521 18.6814 68.2418 13.7412 74.7335 13.7412C81.2251 13.7412 86.5148 18.6761 86.5148 25.4855ZM81.3575 25.4855C81.3575 21.2601 78.2917 18.369 74.7335 18.369C71.1753 18.369 68.1095 21.2601 68.1095 25.4855C68.1095 29.6685 71.1753 32.6019 74.7335 32.6019C78.2917 32.6019 81.3575 29.6632 81.3575 25.4855Z" fill="#FBBC05"/>
<path id="Vector_3" d="M110.872 14.4507V35.5353C110.872 44.2085 105.757 47.7509 99.7099 47.7509C94.0178 47.7509 90.5919 43.9438 89.2999 40.8303L93.7901 38.9612C94.5896 40.8727 96.5488 43.1283 99.7046 43.1283C103.575 43.1283 105.974 40.7403 105.974 36.2449V34.5558H105.794C104.639 35.9801 102.416 37.2244 99.6093 37.2244C93.7371 37.2244 88.3574 32.1095 88.3574 25.5278C88.3574 18.8985 93.7371 13.7412 99.6093 13.7412C102.41 13.7412 104.634 14.9855 105.794 16.3675H105.974V14.456H110.872V14.4507ZM106.339 25.5278C106.339 21.3925 103.58 18.369 100.07 18.369C96.5117 18.369 93.5306 21.3925 93.5306 25.5278C93.5306 29.6209 96.5117 32.6019 100.07 32.6019C103.58 32.6019 106.339 29.6209 106.339 25.5278Z" fill="#4285F4"/>
<path id="Vector_4" d="M118.947 2.09229V36.5097H113.917V2.09229H118.947Z" fill="#34A853"/>
<path id="Vector_5" d="M138.549 29.3512L142.552 32.0199C141.26 33.9314 138.146 37.2249 132.767 37.2249C126.095 37.2249 121.112 32.0675 121.112 25.4806C121.112 18.4965 126.137 13.7363 132.189 13.7363C138.284 13.7363 141.265 18.5865 142.239 21.2075L142.774 22.5419L127.074 29.0441C128.276 31.4004 130.146 32.6023 132.767 32.6023C135.393 32.6023 137.214 31.3104 138.549 29.3512ZM126.227 25.1258L136.722 20.7681C136.145 19.3014 134.408 18.2794 132.364 18.2794C129.743 18.2794 126.095 20.5933 126.227 25.1258Z" fill="#EA4335"/>
<path id="Vector_6" d="M18.4954 22.4306V17.448H35.2857C35.4499 18.3164 35.5346 19.3436 35.5346 20.4555C35.5346 24.1938 34.5127 28.8163 31.2192 32.1098C28.0157 35.4456 23.9227 37.2248 18.5007 37.2248C8.45079 37.2248 0 29.0387 0 18.9888C0 8.93897 8.45079 0.75293 18.5007 0.75293C24.0604 0.75293 28.021 2.93446 30.9968 5.77787L27.4809 9.29373C25.3471 7.29223 22.456 5.73551 18.4954 5.73551C11.1565 5.73551 5.41676 11.65 5.41676 18.9888C5.41676 26.3277 11.1565 32.2422 18.4954 32.2422C23.2556 32.2422 25.9666 30.3307 27.7033 28.5939C29.1118 27.1855 30.0384 25.1734 30.4038 22.4253L18.4954 22.4306Z" fill="#4285F4"/>
</g>
</svg>
