<svg width="1440" height="729" viewBox="0 0 1440 729" fill="none" xmlns="http://www.w3.org/2000/svg">
<g opacity="0.7">
<mask id="mask0_340_2" style="mask-type:alpha" maskUnits="userSpaceOnUse" x="0" y="42" width="1440" height="687">
<rect y="42" width="1440" height="687" fill="#D9D9D9"/>
</mask>
<g mask="url(#mask0_340_2)">
<path d="M-78.9282 666.406C-78.9282 606.687 -74.4716 541.175 -65.4098 482.347C-52.0399 395.74 -48.4746 306.608 -41.9382 218.812C-41.4926 212.276 -40.6012 204.997 -35.8475 200.54C-31.3909 196.38 -24.7059 195.786 -18.6152 195.489C94.8802 189.101 208.673 182.713 322.317 188.953C360.941 191.032 399.862 199.054 438.338 194.449C477.556 189.695 515.734 177.365 555.547 177.811C575.75 177.96 595.657 181.525 615.711 183.605C663.992 188.656 713.015 185.387 760.106 173.949C789.52 166.818 818.191 156.568 847.902 151.517C894.696 143.495 942.531 148.397 989.92 148.843C1063.16 149.437 1135.95 139.187 1208.44 128.937C1275 119.578 1341.4 110.219 1407.95 100.712C1429.49 97.5919 1456.23 96.8491 1467.67 115.418C1472.13 122.549 1473.02 131.314 1473.91 139.781C1478.51 187.467 1485.94 238.867 1482.53 286.85C1481.34 304.231 1475.69 319.532 1475.39 337.358C1474.95 364.098 1474.8 390.689 1474.35 417.429C1472.72 520.526 1470.34 623.622 1467.82 726.719L-78.9282 666.406Z" fill="url(#paint0_linear_340_2)"/>
<path d="M-63.7757 326.96C-43.2752 320.869 -24.4089 310.173 -3.01705 308.539C19.8603 306.756 42.4406 298.289 64.7237 292.198C114.044 278.531 163.364 265.013 212.535 251.346C236.155 244.809 260.073 238.273 284.435 235.45C313.255 232.182 333.458 266.647 362.278 270.212C467.9 283.731 575.453 291.753 679.887 307.945C768.722 321.612 854.884 292.198 941.491 277.64C1031.51 262.636 1124.51 259.219 1215.87 251.643C1289.11 245.552 1364.42 245.255 1433.95 269.024C1491.14 288.633 1544.62 326.96 1573.89 380.885C1604.34 437.039 1626.18 517.555 1598.4 578.611C1579.09 620.949 1537.79 648.877 1495.75 668.783C1411.52 708.744 1318.37 725.382 1225.82 736.97C1041.47 760.144 855.478 765.195 669.636 765.343C433.584 765.343 193.075 756.43 -29.9054 679.033C-162.713 632.833 58.7815 396.038 -63.7757 326.96Z" fill="#F4A13D"/>
<g opacity="0.25">
<path d="M-63.7757 326.96C-43.2752 320.869 -24.4089 310.173 -3.01705 308.539C19.8603 306.756 42.4406 298.289 64.7237 292.198C114.044 278.531 163.364 265.013 212.535 251.346C236.155 244.809 260.073 238.273 284.435 235.45C313.255 232.182 333.458 266.647 362.278 270.212C467.9 283.731 575.453 291.753 679.887 307.945C768.722 321.612 854.884 292.198 941.491 277.64C1031.51 262.636 1124.51 259.219 1215.87 251.643C1289.11 245.552 1364.42 245.255 1433.95 269.024C1491.14 288.633 1544.62 326.96 1573.89 380.885C1604.34 437.039 1626.18 517.555 1598.4 578.611C1579.09 620.949 1537.79 648.877 1495.75 668.783C1411.52 708.744 1318.37 725.382 1225.82 736.97C1041.47 760.144 855.478 765.195 669.636 765.343C433.584 765.343 193.075 756.43 -29.9054 679.033C-162.713 632.833 58.7815 396.038 -63.7757 326.96Z" fill="#FF9843"/>
</g>
<path d="M62.0498 365.732C62.0498 365.732 322.911 330.228 389.315 301.706C455.719 273.183 527.767 255.951 563.42 255.951C598.925 255.951 711.529 317.007 808.238 334.833C890.388 349.837 1057.66 320.572 1205.03 375.091C1352.39 429.611 1566.46 669.971 1566.46 669.971L81.0647 728.502L62.0498 365.732Z" fill="url(#paint1_linear_340_2)"/>
<path d="M318.9 448.626C318.9 448.626 743.32 380.142 735.892 344.192C731.584 322.949 568.174 291.604 552.725 276.154C541.286 264.716 567.134 256.545 567.134 256.545L565.5 256.099C564.758 256.099 564.015 255.951 563.421 255.951C527.916 255.951 455.719 273.183 389.315 301.706C363.764 312.699 309.244 324.731 251.902 335.427L318.9 448.626Z" fill="url(#paint2_linear_340_2)"/>
<path d="M915.048 398.86C909.849 397.523 904.798 395.74 900.044 392.918C899.301 392.472 898.559 391.729 898.856 390.987C899.004 390.689 899.301 390.541 899.599 390.392C905.541 387.273 912.523 386.827 919.208 385.787C927.972 384.45 936.886 381.776 945.65 383.708C949.216 384.599 952.484 386.084 955.604 387.867C958.575 389.501 960.803 389.947 963.923 390.987C964.22 391.135 964.665 391.135 964.962 391.284C965.408 391.432 965.854 391.729 966.151 392.027C967.191 392.621 968.231 393.215 969.122 393.809C969.716 394.255 970.162 394.7 970.756 394.998C971.35 395.295 972.093 395.443 972.836 395.74C974.024 396.186 975.213 396.632 976.401 397.374C976.55 397.523 976.698 397.523 976.698 397.672C976.698 397.82 976.55 397.969 976.55 397.969C975.658 398.711 974.321 399.009 973.133 399.009C972.539 399.009 971.945 399.157 971.499 398.86C971.35 398.86 971.202 398.711 971.053 398.711C970.905 398.711 970.756 398.711 970.607 398.711C970.013 398.711 969.568 398.86 968.973 398.86C968.528 398.86 967.934 398.86 967.488 398.86C966.745 398.711 966.151 398.266 965.557 397.82C964.962 397.523 964.368 397.077 963.923 396.78C962.734 395.889 961.843 394.849 960.357 394.255C959.317 393.809 958.277 393.809 957.089 393.809C952.93 393.661 948.919 393.958 944.908 394.552C945.947 395.74 947.284 396.335 948.621 397.077C950.107 397.82 951.593 398.414 953.078 399.009C953.375 399.157 953.672 399.306 953.969 399.603C954.118 399.751 954.267 400.048 954.118 400.197C954.118 400.346 953.969 400.346 953.821 400.346C953.227 400.494 952.632 400.494 952.038 400.643C951.741 400.643 951.295 400.791 950.998 400.791C950.701 400.791 950.404 400.643 950.107 400.494C949.067 400.048 948.176 399.454 947.285 398.86C946.393 398.266 945.502 397.969 944.462 397.672C941.045 396.929 937.331 396.929 934.063 398.117C937.034 399.603 940.154 400.643 943.422 400.94C944.462 401.088 945.502 401.088 946.542 401.385C946.69 401.385 946.987 401.534 946.987 401.683C947.136 401.831 947.136 402.128 947.136 402.277C947.136 402.425 946.987 402.425 946.839 402.425C945.947 402.722 945.056 402.871 944.165 402.871C942.828 402.871 941.342 402.574 940.005 402.425C938.52 402.277 937.034 402.128 935.549 401.831C928.715 401.237 921.733 400.494 915.048 398.86ZM1068.95 375.24C1069.4 375.388 1069.99 375.537 1070.44 375.686C1071.03 375.834 1071.77 376.131 1072.22 376.428C1072.52 376.725 1073.41 377.171 1073.85 377.32C1074.89 377.914 1075.64 377.468 1076.82 377.32C1076.97 377.32 1077.27 377.171 1077.42 377.171C1077.57 377.023 1077.72 376.874 1077.72 376.577C1077.72 376.28 1077.42 376.131 1077.12 375.983C1076.82 375.834 1076.53 375.537 1076.08 375.388C1075.49 375.091 1075.04 374.794 1074.45 374.497C1072.52 373.606 1070.44 373.16 1068.36 372.863C1066.43 372.566 1064.64 372.269 1062.71 371.972C1062.27 371.972 1061.82 371.972 1061.37 371.823C1061.08 371.675 1060.93 371.526 1060.63 371.526C1059.74 371.229 1058.7 371.229 1057.66 370.932C1053.2 370.04 1048.75 369.298 1044.14 369.001L1031.66 373.903C1036.86 374.646 1057.36 378.211 1062.56 378.954C1063.16 379.102 1063.6 379.102 1064.2 379.251C1064.79 379.399 1065.39 379.548 1065.98 379.548C1066.42 379.548 1066.72 379.399 1067.17 379.251C1067.91 379.102 1068.65 378.805 1069.4 378.657C1069.54 378.657 1069.54 378.508 1069.54 378.508C1069.54 378.508 1069.54 378.508 1069.4 378.359C1068.95 378.062 1068.21 378.211 1067.61 377.914C1067.17 377.617 1066.87 377.171 1066.57 376.725C1066.28 376.428 1065.83 376.28 1065.53 375.834C1065.24 375.537 1065.24 375.24 1065.09 374.943C1065.09 374.794 1065.09 374.794 1065.09 374.646C1065.09 374.497 1065.24 374.497 1065.39 374.497C1065.83 374.349 1066.28 374.497 1066.72 374.646C1067.76 374.943 1068.36 375.091 1068.95 375.24ZM1029.73 384.747C1031.07 385.044 1032.26 385.639 1033.45 385.936C1034.49 386.233 1035.53 386.233 1036.57 386.233C1037.01 386.233 1037.46 386.233 1037.9 386.233C1038.5 386.084 1038.94 385.936 1039.54 385.787C1039.83 385.639 1040.28 385.639 1040.58 385.49C1040.87 385.49 1041.32 385.49 1041.62 385.49C1042.06 385.49 1042.36 385.342 1042.8 385.342C1043.84 385.044 1044.74 384.896 1045.78 384.599C1045.92 384.599 1046.22 384.45 1046.22 384.302C1046.22 384.153 1046.07 383.856 1045.78 383.856C1045.33 383.559 1044.88 383.41 1044.29 383.113C1043.55 382.816 1042.95 382.371 1042.21 382.222C1039.69 381.331 1037.16 381.182 1034.63 380.588C1032.26 379.994 1030.03 378.954 1027.65 378.062C1010.27 371.972 988.88 373.309 971.499 378.359C970.756 378.508 970.162 378.805 969.716 379.251C968.825 380.142 969.271 381.776 970.013 382.668C971.35 384.45 973.579 385.193 975.807 385.787C979.521 386.827 983.086 388.016 986.8 389.055C989.622 389.798 992.594 389.798 995.416 390.392C996.753 390.69 997.942 390.987 999.279 391.135C1000.47 391.432 1001.51 391.284 1002.7 391.581C1003.14 391.729 1003.59 391.878 1003.88 392.175C1004.03 392.324 1004.33 392.472 1004.48 392.472C1004.92 392.621 1005.37 392.621 1005.81 392.472C1006.85 392.324 1008.04 392.175 1009.08 392.175H1009.23C1009.38 392.026 1009.23 391.729 1009.08 391.729C1007.75 390.987 1006.11 390.838 1004.63 390.244C1003.59 389.798 1002.7 389.204 1001.66 389.055C1001.06 388.907 1000.47 388.758 1000.17 388.313C1000.76 388.164 1001.36 388.016 1001.95 388.016C1002.99 387.867 1004.03 387.718 1004.92 387.718C1005.67 387.718 1006.41 387.57 1007.15 387.718C1007.89 387.867 1008.64 388.313 1009.23 388.61C1009.97 388.907 1010.72 389.055 1011.31 389.353C1011.76 389.65 1012.2 390.095 1012.65 390.392C1012.8 390.541 1012.95 390.541 1013.24 390.689C1013.39 390.689 1013.69 390.689 1013.84 390.689C1015.17 390.541 1016.36 390.244 1017.7 389.947C1018 389.947 1018.29 389.798 1018.44 389.501C1018.44 389.501 1018.59 389.353 1018.44 389.353C1018.44 389.204 1018.29 389.204 1018.29 389.055C1017.1 388.164 1015.62 388.016 1014.13 387.718C1013.24 387.421 1012.35 387.124 1011.31 386.827C1010.27 386.53 1009.38 386.233 1008.34 386.084C1012.95 385.342 1017.55 385.044 1022.16 384.747C1025.13 384.302 1027.5 384.153 1029.73 384.747ZM902.421 408.813C903.758 409.11 904.947 409.704 906.135 410.002C907.175 410.299 908.215 410.299 909.255 410.299C909.7 410.299 910.146 410.299 910.592 410.299C911.186 410.15 911.631 410.002 912.226 409.853C912.523 409.704 912.968 409.704 913.266 409.556C913.563 409.556 914.008 409.556 914.305 409.556C914.751 409.556 915.048 409.407 915.494 409.407C916.534 409.11 917.425 408.962 918.465 408.665C918.614 408.665 918.911 408.516 918.911 408.367C918.911 408.219 918.762 407.922 918.465 407.922C918.019 407.625 917.574 407.476 916.979 407.179C916.237 406.882 915.642 406.436 914.9 406.288C912.374 405.396 909.849 405.248 907.323 404.654C904.501 404.059 901.678 402.871 898.856 402.425C897.964 402.277 888.754 400.346 893.508 398.711C894.102 398.563 894.845 398.414 895.439 398.266C898.262 397.226 898.707 393.215 897.667 390.689C896.627 388.016 894.993 387.867 892.468 388.164C885.783 388.907 879.395 391.581 872.859 392.621C865.728 393.809 858.598 393.958 851.764 396.037C844.931 398.117 837.651 399.454 830.669 401.385C838.691 408.07 849.536 410.299 859.34 413.121C862.163 413.864 865.134 413.864 867.957 414.458C869.293 414.755 870.482 415.052 871.819 415.201C873.007 415.498 874.047 415.35 875.236 415.647C875.681 415.795 876.127 415.944 876.424 416.241C876.573 416.389 876.87 416.538 877.018 416.538C877.464 416.687 877.91 416.687 878.355 416.538C879.395 416.389 880.584 416.241 881.624 416.241H881.772C881.921 416.092 881.772 415.795 881.624 415.795C880.287 415.052 878.652 414.904 877.167 414.31C876.127 413.864 875.236 413.27 874.196 413.121C873.602 412.973 873.007 412.824 872.71 412.378C873.304 412.23 873.899 412.081 874.493 412.081C875.533 411.933 876.573 411.784 877.464 411.784C878.207 411.784 878.95 411.636 879.692 411.784C880.435 411.933 881.178 412.378 881.772 412.676C882.515 412.973 883.258 413.121 883.852 413.418C884.297 413.715 884.743 414.161 885.189 414.458C885.337 414.607 885.486 414.607 885.783 414.755C885.932 414.755 886.229 414.755 886.377 414.755C887.714 414.607 888.903 414.31 890.24 414.013C890.537 414.013 890.834 413.864 890.982 413.567C890.982 413.567 891.131 413.418 890.982 413.418C890.982 413.27 890.834 413.27 890.834 413.121C889.645 412.23 888.16 412.081 886.674 411.784C885.783 411.487 884.892 411.19 883.852 410.893C882.812 410.596 881.921 410.299 880.881 410.15C885.486 409.407 890.091 409.11 894.696 408.813C897.816 408.367 900.193 408.219 902.421 408.813Z" fill="#F9BB5A"/>
<path d="M518.26 474.623C518.26 474.623 806.752 393.363 895.29 345.529C983.829 297.695 1085.44 224.309 1178.58 224.309C1232.95 224.309 1291.63 286.999 1390.27 286.999C1547.59 286.999 1731.21 387.124 1731.21 406.139C1731.21 425.303 1521.3 791.786 1521.3 791.786L553.467 750.339L518.26 474.623Z" fill="url(#paint3_linear_340_2)"/>
<path d="M613.631 515.327C613.631 504.036 636.954 448.329 803.335 410.299C943.422 378.211 1046.52 395.146 1079.2 352.957C1099.7 326.514 1055.88 323.097 1055.88 297.1C1055.88 271.103 1165.66 266.35 1187.5 245.106C1199.08 233.816 1187.94 224.903 1187.94 224.903C1184.97 224.309 1182 224.16 1178.73 224.16C1085.59 224.16 983.977 297.695 895.439 345.38C806.901 393.215 518.408 474.474 518.408 474.474L553.616 750.191L640.074 753.905C616.751 656.156 613.631 522.903 613.631 515.327Z" fill="url(#paint4_linear_340_2)"/>
<path d="M-72.0949 278.234C-72.0949 278.234 20.0087 233.073 101.714 183.159C135.287 162.659 183.716 147.061 203.325 147.061C278.79 147.061 381.293 241.987 546.039 304.974C709.449 367.515 1062.27 453.528 1095.1 540.581C1127.93 627.633 615.86 766.68 615.86 766.68L-199.852 750.339L-72.0949 278.234Z" fill="url(#paint5_linear_340_2)"/>
<path d="M-72.0948 278.234L-200 750.339L355.296 761.481C643.491 689.878 428.236 608.47 428.236 551.574C428.236 487.101 636.212 472.84 599.667 410.299C563.123 347.757 163.661 330.971 150.737 278.234C137.367 223.269 223.974 219.704 229.173 181.971C233.481 151.517 203.176 147.061 203.176 147.061C183.567 147.061 135.138 162.51 101.565 183.159C20.0088 233.073 -72.0948 278.234 -72.0948 278.234Z" fill="url(#paint6_linear_340_2)"/>
</g>
</g>
<defs>
<linearGradient id="paint0_linear_340_2" x1="702.18" y1="726.64" x2="702.18" y2="99.052" gradientUnits="userSpaceOnUse">
<stop stop-color="#FBE07F" stop-opacity="0"/>
<stop offset="1" stop-color="#DF4924" stop-opacity="0.05"/>
</linearGradient>
<linearGradient id="paint1_linear_340_2" x1="248.919" y1="321.772" x2="1509.05" y2="1049.31" gradientUnits="userSpaceOnUse">
<stop offset="0.0561224" stop-color="#F9E185"/>
<stop offset="0.1237" stop-color="#FAD577"/>
<stop offset="0.353" stop-color="#FEB04B"/>
<stop offset="0.4694" stop-color="#FFA23A"/>
</linearGradient>
<linearGradient id="paint2_linear_340_2" x1="352.919" y1="482.625" x2="614.421" y2="221.123" gradientUnits="userSpaceOnUse">
<stop offset="0.648" stop-color="#EF9D44"/>
<stop offset="0.8134" stop-color="#F08828"/>
<stop offset="0.9405" stop-color="#F07B17"/>
</linearGradient>
<linearGradient id="paint3_linear_340_2" x1="728.131" y1="924.933" x2="1490.46" y2="162.6" gradientUnits="userSpaceOnUse">
<stop offset="0.5102" stop-color="#F9AC4B"/>
<stop offset="0.6104" stop-color="#F9B152"/>
<stop offset="0.7517" stop-color="#F9C164"/>
<stop offset="0.9166" stop-color="#F9DA82"/>
<stop offset="1" stop-color="#F9E994"/>
</linearGradient>
<linearGradient id="paint4_linear_340_2" x1="518.326" y1="489.185" x2="1192.72" y2="489.185" gradientUnits="userSpaceOnUse">
<stop offset="0.2755" stop-color="#D9501C"/>
<stop offset="0.949" stop-color="#F98E2D"/>
</linearGradient>
<linearGradient id="paint5_linear_340_2" x1="-200.002" y1="456.859" x2="1096.45" y2="456.859" gradientUnits="userSpaceOnUse">
<stop offset="0.2041" stop-color="#F9EA90"/>
<stop offset="0.7857" stop-color="#F9B45A"/>
</linearGradient>
<linearGradient id="paint6_linear_340_2" x1="323.9" y1="294.761" x2="-39.2186" y2="923.7" gradientUnits="userSpaceOnUse">
<stop stop-color="#DD6327"/>
<stop offset="0.3622" stop-color="#F89F49"/>
</linearGradient>
</defs>
</svg>
