<svg width="1440" height="1065" viewBox="0 0 1440 1065" fill="none" xmlns="http://www.w3.org/2000/svg">
<mask id="mask0_215_191" style="mask-type:alpha" maskUnits="userSpaceOnUse" x="0" y="0" width="1440" height="1065">
<rect width="1440" height="1065" fill="#D9D9D9"/>
</mask>
<g mask="url(#mask0_215_191)">
<path d="M1440 0H0V740H1440V0Z" fill="url(#paint0_linear_215_191)"/>
<path d="M-119.931 970.406C-119.931 910.687 -115.474 845.175 -106.412 786.347C-93.0424 699.74 -89.4771 610.608 -82.9407 522.812C-82.495 516.276 -81.6037 508.997 -76.8499 504.54C-72.3933 500.38 -65.7084 499.786 -59.6177 499.489C53.8778 493.101 167.67 486.713 281.314 492.953C319.938 495.032 358.86 503.054 397.335 498.449C436.554 493.695 474.732 481.365 514.544 481.811C534.748 481.96 554.654 485.525 574.709 487.605C622.989 492.656 672.012 489.387 719.104 477.949C748.518 470.818 777.188 460.568 806.899 455.517C853.694 447.495 901.528 452.397 948.917 452.843C1022.15 453.437 1094.95 443.187 1167.44 432.937C1233.99 423.578 1300.4 414.219 1366.95 404.712C1388.49 401.592 1415.23 400.849 1426.67 419.418C1431.12 426.549 1432.02 435.314 1432.91 443.781C1437.51 491.467 1444.94 542.867 1441.52 590.85C1440.33 608.231 1434.69 623.532 1434.39 641.358C1433.95 668.098 1433.8 694.689 1433.35 721.429C1431.72 824.526 1429.34 927.622 1426.82 1030.72L-119.931 970.406Z" fill="url(#paint1_linear_215_191)"/>
<g opacity="0.45">
<path d="M1555.02 673.169C1555.02 672.427 1515.65 673.169 1513.57 673.169C1422.21 673.169 1330.85 673.169 1239.64 673.169C1098.07 673.169 956.641 673.169 815.069 673.169C665.029 673.169 515.138 673.169 365.098 673.169C300.032 673.169 234.816 673.169 169.75 673.169C139.445 673.169 109.288 671.238 79.7258 677.775C29.0688 688.916 -32.5812 678.517 -84.5752 677.477C-75.8105 639.448 -41.7916 611.371 -5.09868 598.001C31.5942 584.631 71.4068 583.294 110.328 580.323C214.167 572.301 316.67 551.206 420.509 543.927C505.037 537.985 590.307 541.105 674.091 528.775C768.423 514.959 857.11 477.821 951.145 465.194C989.917 459.994 1029.43 459.548 1068.35 462.222C1140.85 467.125 1212.3 482.277 1283.76 495.053C1341.1 505.303 1399.93 514.365 1451.77 540.808C1503.92 567.399 1548.93 615.233 1555.02 673.169Z" fill="url(#paint2_linear_215_191)"/>
<path d="M30.5547 596.049L990.958 667.355C1044.44 646.112 1082.47 627.989 1087.96 617.59C1109.8 576.737 980.856 541.827 980.856 517.019C980.856 504.54 997.494 498.895 1006.56 496.815C988.135 497.261 969.715 498.598 951.294 501.123C915.344 505.877 881.473 518.207 846.266 525.189C766.789 540.936 694.592 554.9 612.887 542.273C537.867 530.686 466.413 503.054 393.621 481.811C350.838 469.333 306.568 458.934 262.002 461.459C225.904 463.539 191.142 473.938 157.271 485.822C128.006 496.221 97.5527 501.718 68.436 513.156C57.5916 517.464 46.7471 522.069 36.0512 526.972L30.5547 596.049Z" fill="url(#paint3_linear_215_191)"/>
<g opacity="0.15">
<path d="M30.5544 559.971L990.958 631.277C1044.44 610.034 1082.47 591.91 1087.96 581.511C1109.8 540.659 980.856 505.749 980.856 480.94C980.856 468.462 997.494 462.817 1006.56 460.737C988.135 461.183 969.714 462.519 951.294 465.045C915.344 469.799 881.473 482.129 846.266 489.111C766.789 504.857 694.592 518.822 612.887 506.194C537.867 494.607 466.413 466.976 393.621 445.733C350.837 433.254 306.568 422.855 262.002 425.381C225.903 427.461 191.142 437.859 157.271 449.744C128.006 460.143 97.5524 465.639 68.4358 477.078C57.5913 481.386 46.7469 485.991 36.051 490.893L30.5544 559.971Z" fill="#FF9843"/>
</g>
</g>
<path d="M-115 559.682C-101.036 558.643 -86.9233 557.603 -72.9592 556.563C-19.034 552.255 34.8912 547.204 88.6679 541.262C200.678 528.783 322.641 482.88 421.726 488.376C476.246 491.347 500.46 512.145 553.791 523.435C652.728 544.233 762.213 548.987 862.19 534.131C986.678 515.562 1087.4 506.054 1212.93 516.75C1264.18 521.207 1343.06 526.555 1393.42 537.696C1435.46 547.055 1476.61 565.03 1507.06 595.633C1524.15 612.865 1537.37 634.257 1544.35 657.431C1550.89 678.971 1548.81 700.512 1555.79 721.458C1571.98 770.927 1577.18 830.051 1550.74 877.143C1526.23 920.818 1474.53 940.427 1426.4 954.54C1326.12 984.25 1223.47 1005.2 1120.38 1022.73C765.184 1083.48 388.599 1103.39 55.3917 966.275C3.3977 944.884 -47.4078 919.629 -93.1625 887.096" fill="url(#paint4_linear_215_191)"/>
<g opacity="0.75">
<path d="M138.999 723.806C200.798 745.644 269.133 737.473 333.011 722.915C382.777 711.625 432.542 696.472 474.435 667.355C493.598 654.134 512.316 634.079 509.345 611.053C507.711 598.129 499.392 586.988 489.884 577.777C471.909 560.396 449.329 547.918 424.966 542.124C419.915 540.936 413.676 539.153 412.339 534.102C411.151 529.943 413.676 526.823 417.538 524.743C319.344 520.732 199.164 565.596 88.7879 577.777C50.758 581.937 12.7281 585.799 -25.3018 589.067C-25.3018 603.774 -22.3307 618.481 -14.3088 630.663C-5.09839 644.478 9.60847 653.54 23.8697 662.156C42.439 673.298 61.0083 684.439 79.8746 695.284C99.0381 706.128 118.35 716.527 138.999 723.806Z" fill="#F4A742"/>
<g opacity="0.15">
<path d="M138.999 723.806C200.798 745.644 269.133 737.473 333.011 722.915C382.777 711.625 432.542 696.472 474.435 667.355C493.598 654.134 512.316 634.079 509.345 611.053C507.711 598.129 499.392 586.988 489.884 577.777C471.909 560.396 449.329 547.918 424.966 542.124C419.915 540.936 413.676 539.153 412.339 534.102C411.151 529.943 413.676 526.823 417.538 524.743C319.344 520.732 199.164 565.596 88.7879 577.777C50.758 581.937 12.7281 585.799 -25.3018 589.067C-25.3018 603.774 -22.3307 618.481 -14.3088 630.663C-5.09839 644.478 9.60847 653.54 23.8697 662.156C42.439 673.298 61.0083 684.439 79.8746 695.284C99.0381 706.128 118.35 716.527 138.999 723.806Z" fill="#FF9843"/>
</g>
</g>
<path d="M-104.778 630.96C-84.2779 624.869 -65.4115 614.173 -44.0197 612.539C-21.1424 610.756 1.43787 602.289 23.721 596.198C73.041 582.531 122.361 569.013 171.532 555.346C195.153 548.809 219.07 542.273 243.433 539.45C272.252 536.182 292.456 570.647 321.275 574.212C426.897 587.731 534.45 595.753 638.884 611.945C727.72 625.612 813.881 596.198 900.488 581.64C990.512 566.636 1083.51 563.219 1174.87 555.643C1248.1 549.552 1323.42 549.255 1392.95 573.024C1450.14 592.633 1503.62 630.96 1532.88 684.885C1563.34 741.039 1585.17 821.555 1557.39 882.611C1538.08 924.949 1496.78 952.877 1454.74 972.783C1370.51 1012.74 1277.37 1029.38 1184.82 1040.97C1000.47 1064.14 814.475 1069.19 628.634 1069.34C392.581 1069.34 152.072 1060.43 -70.908 983.033C-203.716 936.833 17.7788 700.038 -104.778 630.96Z" fill="#F4A13D"/>
<g opacity="0.25">
<path d="M-104.778 630.96C-84.2779 624.869 -65.4115 614.173 -44.0197 612.539C-21.1424 610.756 1.43787 602.289 23.721 596.198C73.041 582.531 122.361 569.013 171.532 555.346C195.153 548.809 219.07 542.273 243.433 539.45C272.252 536.182 292.456 570.647 321.275 574.212C426.897 587.731 534.45 595.753 638.884 611.945C727.72 625.612 813.881 596.198 900.488 581.64C990.512 566.636 1083.51 563.219 1174.87 555.643C1248.1 549.552 1323.42 549.255 1392.95 573.024C1450.14 592.633 1503.62 630.96 1532.88 684.885C1563.34 741.039 1585.17 821.555 1557.39 882.611C1538.08 924.949 1496.78 952.877 1454.74 972.783C1370.51 1012.74 1277.37 1029.38 1184.82 1040.97C1000.47 1064.14 814.475 1069.19 628.634 1069.34C392.581 1069.34 152.072 1060.43 -70.908 983.033C-203.716 936.833 17.7788 700.038 -104.778 630.96Z" fill="#FF9843"/>
</g>
<path d="M21.0471 669.732C21.0471 669.732 281.908 634.228 348.312 605.706C414.716 577.183 486.765 559.951 522.418 559.951C557.922 559.951 670.526 621.007 767.235 638.833C849.386 653.837 1016.66 624.572 1164.02 679.091C1311.39 733.611 1525.46 973.971 1525.46 973.971L40.062 1032.5L21.0471 669.732Z" fill="url(#paint5_linear_215_191)"/>
<path d="M277.897 752.626C277.897 752.626 702.317 684.142 694.889 648.192C690.581 626.949 527.171 595.604 511.722 580.154C500.283 568.716 526.132 560.545 526.132 560.545L524.497 560.099C523.755 560.099 523.012 559.951 522.418 559.951C486.913 559.951 414.716 577.183 348.312 605.706C322.761 616.699 268.241 628.731 210.899 639.427L277.897 752.626Z" fill="url(#paint6_linear_215_191)"/>
<path d="M874.046 702.86C868.846 701.523 863.795 699.74 859.042 696.918C858.299 696.472 857.556 695.729 857.853 694.987C858.002 694.689 858.299 694.541 858.596 694.392C864.538 691.273 871.52 690.827 878.205 689.787C886.97 688.45 895.883 685.776 904.648 687.708C908.213 688.599 911.481 690.084 914.601 691.867C917.572 693.501 919.8 693.947 922.92 694.987C923.217 695.135 923.663 695.135 923.96 695.284C924.406 695.432 924.851 695.729 925.148 696.027C926.188 696.621 927.228 697.215 928.119 697.809C928.714 698.255 929.159 698.7 929.754 698.998C930.348 699.295 931.091 699.443 931.833 699.74C933.022 700.186 934.21 700.632 935.399 701.374C935.547 701.523 935.696 701.523 935.696 701.672C935.696 701.82 935.547 701.969 935.547 701.969C934.656 702.711 933.319 703.009 932.13 703.009C931.536 703.009 930.942 703.157 930.496 702.86C930.348 702.86 930.199 702.711 930.051 702.711C929.902 702.711 929.754 702.711 929.605 702.711C929.011 702.711 928.565 702.86 927.971 702.86C927.525 702.86 926.931 702.86 926.485 702.86C925.743 702.711 925.148 702.266 924.554 701.82C923.96 701.523 923.366 701.077 922.92 700.78C921.732 699.889 920.84 698.849 919.355 698.255C918.315 697.809 917.275 697.809 916.087 697.809C911.927 697.661 907.916 697.958 903.905 698.552C904.945 699.74 906.282 700.335 907.619 701.077C909.105 701.82 910.59 702.414 912.076 703.009C912.373 703.157 912.67 703.306 912.967 703.603C913.116 703.751 913.264 704.048 913.116 704.197C913.116 704.346 912.967 704.346 912.818 704.346C912.224 704.494 911.63 704.494 911.036 704.643C910.739 704.643 910.293 704.791 909.996 704.791C909.699 704.791 909.402 704.643 909.105 704.494C908.065 704.048 907.173 703.454 906.282 702.86C905.391 702.266 904.499 701.969 903.46 701.672C900.043 700.929 896.329 700.929 893.061 702.117C896.032 703.603 899.151 704.643 902.42 704.94C903.459 705.088 904.499 705.088 905.539 705.385C905.688 705.385 905.985 705.534 905.985 705.683C906.133 705.831 906.133 706.128 906.133 706.277C906.133 706.425 905.985 706.425 905.836 706.425C904.945 706.722 904.054 706.871 903.162 706.871C901.825 706.871 900.34 706.574 899.003 706.425C897.517 706.277 896.032 706.128 894.546 705.831C887.713 705.237 880.731 704.494 874.046 702.86ZM1027.95 679.24C1028.39 679.388 1028.99 679.537 1029.43 679.686C1030.03 679.834 1030.77 680.131 1031.22 680.428C1031.51 680.725 1032.4 681.171 1032.85 681.32C1033.89 681.914 1034.63 681.468 1035.82 681.32C1035.97 681.32 1036.27 681.171 1036.42 681.171C1036.56 681.023 1036.71 680.874 1036.71 680.577C1036.71 680.28 1036.42 680.131 1036.12 679.983C1035.82 679.834 1035.52 679.537 1035.08 679.388C1034.48 679.091 1034.04 678.794 1033.44 678.497C1031.51 677.606 1029.43 677.16 1027.35 676.863C1025.42 676.566 1023.64 676.269 1021.71 675.972C1021.26 675.972 1020.82 675.972 1020.37 675.823C1020.07 675.675 1019.93 675.526 1019.63 675.526C1018.74 675.229 1017.7 675.229 1016.66 674.932C1012.2 674.04 1007.74 673.298 1003.14 673.001L990.661 677.903C995.86 678.646 1016.36 682.211 1021.56 682.954C1022.15 683.102 1022.6 683.102 1023.19 683.251C1023.79 683.399 1024.38 683.548 1024.98 683.548C1025.42 683.548 1025.72 683.399 1026.17 683.251C1026.91 683.102 1027.65 682.805 1028.39 682.657C1028.54 682.657 1028.54 682.508 1028.54 682.508C1028.54 682.508 1028.54 682.508 1028.39 682.359C1027.95 682.062 1027.21 682.211 1026.61 681.914C1026.17 681.617 1025.87 681.171 1025.57 680.725C1025.27 680.428 1024.83 680.28 1024.53 679.834C1024.23 679.537 1024.23 679.24 1024.09 678.943C1024.09 678.794 1024.09 678.794 1024.09 678.646C1024.09 678.497 1024.23 678.497 1024.38 678.497C1024.83 678.349 1025.27 678.497 1025.72 678.646C1026.76 678.943 1027.35 679.091 1027.95 679.24ZM988.73 688.747C990.067 689.044 991.255 689.639 992.444 689.936C993.483 690.233 994.523 690.233 995.563 690.233C996.009 690.233 996.454 690.233 996.9 690.233C997.494 690.084 997.94 689.936 998.534 689.787C998.831 689.639 999.277 689.639 999.574 689.49C999.871 689.49 1000.32 689.49 1000.61 689.49C1001.06 689.49 1001.36 689.342 1001.8 689.342C1002.84 689.044 1003.73 688.896 1004.77 688.599C1004.92 688.599 1005.22 688.45 1005.22 688.302C1005.22 688.153 1005.07 687.856 1004.77 687.856C1004.33 687.559 1003.88 687.41 1003.29 687.113C1002.55 686.816 1001.95 686.371 1001.21 686.222C998.683 685.331 996.157 685.182 993.632 684.588C991.255 683.994 989.027 682.954 986.65 682.062C969.269 675.972 947.877 677.309 930.496 682.359C929.754 682.508 929.159 682.805 928.714 683.251C927.822 684.142 928.268 685.776 929.011 686.668C930.348 688.45 932.576 689.193 934.804 689.787C938.518 690.827 942.084 692.016 945.797 693.055C948.62 693.798 951.591 693.798 954.414 694.392C955.751 694.69 956.939 694.987 958.276 695.135C959.464 695.432 960.504 695.284 961.693 695.581C962.138 695.729 962.584 695.878 962.881 696.175C963.03 696.324 963.327 696.472 963.475 696.472C963.921 696.621 964.367 696.621 964.812 696.472C965.852 696.324 967.041 696.175 968.081 696.175H968.229C968.378 696.026 968.229 695.729 968.081 695.729C966.744 694.987 965.11 694.838 963.624 694.244C962.584 693.798 961.693 693.204 960.653 693.055C960.059 692.907 959.464 692.758 959.167 692.313C959.762 692.164 960.356 692.016 960.95 692.016C961.99 691.867 963.03 691.718 963.921 691.718C964.664 691.718 965.407 691.57 966.149 691.718C966.892 691.867 967.635 692.313 968.229 692.61C968.972 692.907 969.715 693.055 970.309 693.353C970.755 693.65 971.2 694.095 971.646 694.392C971.794 694.541 971.943 694.541 972.24 694.689C972.389 694.689 972.686 694.689 972.834 694.689C974.171 694.541 975.36 694.244 976.697 693.947C976.994 693.947 977.291 693.798 977.439 693.501C977.439 693.501 977.588 693.353 977.439 693.353C977.439 693.204 977.291 693.204 977.291 693.055C976.103 692.164 974.617 692.016 973.131 691.718C972.24 691.421 971.349 691.124 970.309 690.827C969.269 690.53 968.378 690.233 967.338 690.084C971.943 689.342 976.548 689.044 981.153 688.747C984.124 688.302 986.501 688.153 988.73 688.747ZM861.419 712.813C862.756 713.11 863.944 713.704 865.133 714.002C866.172 714.299 867.212 714.299 868.252 714.299C868.698 714.299 869.143 714.299 869.589 714.299C870.183 714.15 870.629 714.002 871.223 713.853C871.52 713.704 871.966 713.704 872.263 713.556C872.56 713.556 873.006 713.556 873.303 713.556C873.749 713.556 874.046 713.407 874.491 713.407C875.531 713.11 876.423 712.962 877.463 712.665C877.611 712.665 877.908 712.516 877.908 712.367C877.908 712.219 877.76 711.922 877.463 711.922C877.017 711.625 876.571 711.476 875.977 711.179C875.234 710.882 874.64 710.436 873.897 710.288C871.372 709.396 868.846 709.248 866.321 708.654C863.498 708.059 860.676 706.871 857.853 706.425C856.962 706.277 847.752 704.346 852.505 702.711C853.1 702.563 853.842 702.414 854.437 702.266C857.259 701.226 857.705 697.215 856.665 694.689C855.625 692.016 853.991 691.867 851.466 692.164C844.781 692.907 838.393 695.581 831.856 696.621C824.726 697.809 817.595 697.958 810.762 700.037C803.928 702.117 796.649 703.454 789.667 705.385C797.689 712.07 808.533 714.299 818.338 717.121C821.16 717.864 824.132 717.864 826.954 718.458C828.291 718.755 829.479 719.052 830.816 719.201C832.005 719.498 833.045 719.35 834.233 719.647C834.679 719.795 835.125 719.944 835.422 720.241C835.57 720.389 835.867 720.538 836.016 720.538C836.462 720.687 836.907 720.687 837.353 720.538C838.393 720.389 839.581 720.241 840.621 720.241H840.77C840.918 720.092 840.77 719.795 840.621 719.795C839.284 719.052 837.65 718.904 836.164 718.31C835.125 717.864 834.233 717.27 833.193 717.121C832.599 716.973 832.005 716.824 831.708 716.378C832.302 716.23 832.896 716.081 833.49 716.081C834.53 715.933 835.57 715.784 836.462 715.784C837.204 715.784 837.947 715.636 838.69 715.784C839.433 715.933 840.175 716.378 840.77 716.676C841.512 716.973 842.255 717.121 842.849 717.418C843.295 717.715 843.741 718.161 844.186 718.458C844.335 718.607 844.483 718.607 844.781 718.755C844.929 718.755 845.226 718.755 845.375 718.755C846.712 718.607 847.9 718.31 849.237 718.013C849.534 718.013 849.831 717.864 849.98 717.567C849.98 717.567 850.129 717.418 849.98 717.418C849.98 717.27 849.831 717.27 849.831 717.121C848.643 716.23 847.157 716.081 845.672 715.784C844.781 715.487 843.889 715.19 842.849 714.893C841.81 714.596 840.918 714.299 839.878 714.15C844.483 713.407 849.089 713.11 853.694 712.813C856.813 712.367 859.19 712.219 861.419 712.813Z" fill="#F9BB5A"/>
<path d="M477.257 778.623C477.257 778.623 765.75 697.363 854.288 649.529C942.826 601.695 1044.44 528.309 1137.58 528.309C1191.95 528.309 1250.63 590.999 1349.27 590.999C1506.59 590.999 1690.2 691.124 1690.2 710.139C1690.2 729.303 1480.3 1095.79 1480.3 1095.79L512.465 1054.34L477.257 778.623Z" fill="url(#paint7_linear_215_191)"/>
<path d="M572.629 819.327C572.629 808.036 595.952 752.329 762.333 714.299C902.42 682.211 1005.52 699.146 1038.2 656.957C1058.7 630.514 1014.88 627.097 1014.88 601.1C1014.88 575.103 1124.66 570.35 1146.49 549.106C1158.08 537.816 1146.94 528.903 1146.94 528.903C1143.97 528.309 1141 528.16 1137.73 528.16C1044.59 528.16 942.975 601.695 854.437 649.38C765.898 697.215 477.406 778.474 477.406 778.474L512.613 1054.19L599.072 1057.9C575.749 960.156 572.629 826.903 572.629 819.327Z" fill="url(#paint8_linear_215_191)"/>
<path d="M911.63 686.222C911.63 686.222 907.619 694.244 907.619 695.284C907.619 696.324 910.442 702.117 910.739 702.117C911.036 702.117 913.562 702.266 913.71 704.346L910.293 704.791L908.956 703.603L904.648 696.175L905.985 681.023L911.333 682.36L911.63 686.222Z" fill="#7C3A15"/>
<path d="M929.308 683.697C929.456 683.845 929.456 683.994 929.456 683.994C930.199 685.331 930.496 687.113 930.942 688.599C931.833 691.57 932.576 694.69 933.022 697.809C933.17 698.701 933.319 699.889 934.21 700.335C934.953 700.78 936.141 700.632 936.438 701.523C935.399 702.414 934.062 702.86 932.725 702.86C932.576 702.86 932.427 702.86 932.279 702.711C931.982 702.563 931.833 702.117 931.833 701.672C931.388 697.215 929.902 692.758 927.377 689.044C926.782 688.005 924.703 686.37 925.148 685.033C925.445 684.142 926.782 683.102 927.377 682.359C928.268 682.805 928.862 683.102 929.308 683.697Z" fill="#7C3A15"/>
<path d="M947.877 652.649C949.957 651.757 951.294 651.609 950.997 649.678C950.848 648.341 948.917 649.083 948.174 649.083C946.095 649.381 944.906 649.529 942.827 648.638C941.638 648.192 940.301 647.895 939.261 648.489C938.37 649.083 937.924 650.123 937.924 651.312C937.924 652.352 938.221 653.391 938.221 654.431C938.518 658.888 934.359 667.058 929.011 665.424C927.08 664.83 925.446 663.196 924.703 661.265C924.109 659.631 923.217 657.551 921.583 657.7C920.841 657.848 920.246 658.442 919.652 659.185C917.275 662.305 914.75 668.098 909.996 667.356C907.619 667.058 905.539 665.424 903.163 665.721C901.38 665.87 899.894 667.207 899.003 668.841C896.626 672.704 897.369 678.349 898.557 682.657C901.083 692.313 897.517 695.878 899.003 698.255C899.894 699.592 900.489 701.226 900.934 702.711C901.231 703.454 901.528 704.346 901.826 705.088C901.974 705.683 902.123 706.722 902.865 706.871C903.014 706.871 903.163 706.871 903.46 706.871C904.054 706.871 904.648 706.722 905.391 706.722C905.837 706.722 906.282 706.574 906.728 706.425C906.431 706.128 906.282 705.683 905.985 705.385C905.837 705.237 905.539 705.237 905.391 705.237C905.094 705.237 904.797 705.088 904.5 705.088C904.351 705.088 904.202 704.94 904.054 704.94C903.905 704.791 903.905 704.643 903.757 704.494C903.014 702.414 902.42 700.483 901.826 698.403C901.677 698.106 901.677 697.809 901.677 697.512C901.677 697.364 901.677 697.066 901.826 696.918C902.271 695.135 902.568 693.353 903.311 691.718C904.054 690.084 905.094 688.599 906.134 687.113C906.728 686.222 907.322 685.331 908.362 684.885C910.145 683.994 912.224 685.182 914.007 685.925C918.315 687.262 923.069 685.628 927.674 685.479C928.417 685.479 929.308 685.479 929.902 685.925C930.348 686.222 930.497 686.816 930.794 687.262C931.239 688.302 931.685 689.342 932.131 690.381C932.428 691.124 933.022 691.718 932.873 692.907C932.725 694.095 931.536 694.69 930.645 696.027C929.605 697.512 928.565 700.186 927.674 701.82C927.525 702.117 927.377 702.414 927.525 702.711C927.674 702.86 927.823 703.009 928.12 703.009C929.16 703.157 930.348 703.306 931.388 703.157C931.833 703.157 932.279 702.86 932.131 702.563C932.131 702.414 931.834 702.266 931.685 702.266C931.239 702.117 930.794 701.82 930.348 701.672C931.091 698.998 933.171 697.215 934.656 694.987C936.29 692.61 936.29 690.084 935.696 687.41C934.805 682.954 934.805 676.566 936.587 672.406C937.924 669.435 940.301 667.653 941.044 664.236C941.341 662.305 942.678 660.225 943.272 658.442C944.015 655.174 945.352 653.689 947.877 652.649Z" fill="#7C3A15"/>
<path d="M899.448 669.138C898.111 670.921 896.923 672.704 895.586 674.338C895.14 674.932 894.695 675.526 894.398 676.12C893.952 677.16 893.952 678.2 893.952 679.24C893.952 680.428 894.249 681.765 894.992 682.805C896.18 684.439 898.557 685.182 899.003 687.113C899.151 687.707 899.151 688.302 899.597 688.599C900.043 688.896 900.785 688.302 900.785 687.707C900.785 687.113 900.488 686.668 900.043 686.222C899.151 685.182 897.963 684.439 896.923 683.697C895.883 682.805 894.992 681.765 894.843 680.428C894.695 678.646 895.883 677.012 897.072 675.675C898.26 674.189 899.3 672.406 898.706 670.772" fill="#7C3A15"/>
<path d="M913.561 643.735C912.224 644.478 912.076 646.261 911.481 647.746C910.59 649.826 908.807 651.163 907.619 652.946C905.688 655.917 905.391 659.631 905.391 663.047C905.391 664.83 905.391 666.613 905.836 668.247C906.282 669.881 907.322 671.515 908.956 672.406C910.144 673.001 911.63 673.149 913.115 673.001C915.641 672.852 918.463 671.961 919.206 669.584C919.8 667.801 918.909 665.87 917.869 664.384C916.829 662.75 915.641 661.265 915.195 659.482C917.126 661.711 919.8 663.196 922.623 663.642C922.177 663.345 921.88 663.047 921.434 662.75C920.246 661.859 918.909 660.819 917.869 659.631C915.641 657.105 914.75 653.689 913.858 650.42C915.641 650.272 917.126 648.935 917.424 647.152C917.721 645.369 916.532 643.587 914.898 642.993" fill="#7C3A15"/>
<path d="M916.978 643.141C915.79 642.696 915.492 642.398 914.155 642.547C912.819 642.696 909.699 644.181 910.145 644.775C910.442 645.37 921.137 646.409 921.435 645.964C921.732 645.667 918.612 643.884 916.978 643.141Z" fill="#7C3A15"/>
<path d="M941.935 655.026C941.49 662.008 941.49 670.178 935.25 674.783C927.823 680.28 920.246 673.446 914.75 668.692C914.601 668.544 914.156 668.841 914.453 668.99C919.355 674.635 927.08 680.874 934.805 676.269C941.935 671.961 942.678 662.453 942.381 655.026C942.381 654.877 941.935 654.728 941.935 655.026Z" fill="#7C3A15"/>
<path d="M968.08 677.903C968.08 677.903 963.624 685.628 963.475 686.668C963.327 687.708 965.852 693.798 966.149 693.798C966.446 693.798 968.972 694.095 968.972 696.324L965.555 696.472L964.366 695.135L960.653 687.559L963.029 672.555L968.229 674.338L968.08 677.903Z" fill="#7C3A15"/>
<path d="M991.998 672.109C992.74 672.852 993.335 673.743 993.929 674.486C994.523 675.377 995.117 676.269 995.711 677.16C996.009 677.606 996.306 678.051 996.306 678.497C996.306 678.943 996.157 679.24 996.157 679.686C995.563 681.617 993.186 685.479 994.969 687.262C995.563 687.856 996.751 688.005 996.751 688.896C995.563 689.49 994.226 689.639 992.889 689.342C992.74 689.342 992.592 689.193 992.443 689.193C992.146 688.896 992.146 688.45 992.295 688.005C992.592 685.479 993.038 683.102 993.335 680.577C993.483 679.686 993.632 678.794 993.335 677.903C992.889 676.566 991.701 675.675 990.661 674.635C989.621 673.595 988.878 672.109 989.472 670.921C990.364 670.921 991.255 671.367 991.998 672.109Z" fill="#7C3A15"/>
<path d="M961.693 659.928C960.504 661.711 959.464 663.642 958.276 665.424C957.83 666.019 957.533 666.613 957.236 667.356C956.939 668.395 956.939 669.435 957.088 670.475C957.236 671.664 957.533 673.001 958.425 673.892C959.762 675.377 962.138 675.972 962.881 677.903C963.03 678.497 963.178 679.091 963.624 679.24C964.218 679.388 964.664 678.794 964.664 678.349C964.664 677.754 964.218 677.309 963.921 676.863C962.881 675.972 961.693 675.377 960.653 674.486C959.613 673.743 958.573 672.704 958.276 671.367C957.979 669.584 959.019 667.95 960.059 666.464C961.099 664.979 961.99 663.048 961.396 661.413" fill="#7C3A15"/>
<path d="M1014.43 642.993C1014.28 642.844 1013.98 642.844 1013.69 642.696C1012.05 642.25 1009.68 643.438 1008.04 643.141C1007.15 642.993 1006.11 642.696 1005.37 643.141C1003.88 643.884 1004.18 646.112 1004.33 647.895C1004.62 650.717 1003.73 653.837 1001.36 655.323C996.9 657.997 988.581 654.58 986.353 650.272C985.61 648.786 984.57 646.707 982.936 647.004C982.193 647.152 981.599 647.895 981.153 648.638C978.925 651.906 976.994 657.848 972.24 657.551C969.863 657.402 967.635 655.917 965.258 656.363C963.475 656.66 962.138 658.145 961.247 659.779C959.613 663.196 959.613 668.693 961.693 671.812C964.515 675.972 966.595 678.943 967.486 684.142C967.635 685.182 967.784 686.222 968.378 687.262C969.269 688.896 971.052 689.787 972.092 691.273C972.983 692.313 973.28 693.353 973.429 694.838C975.36 694.69 977.142 694.392 979.074 693.798C978.628 692.758 977.588 691.867 976.4 691.867C976.103 691.867 975.805 691.867 975.508 691.867C975.36 691.718 975.211 691.718 975.063 691.57C973.726 690.233 970.755 686.965 970.755 685.033C970.755 684.439 971.052 683.845 971.349 683.251C972.686 680.577 974.023 677.903 975.36 675.377C976.548 673.001 980.856 674.338 982.936 674.783C985.759 675.229 988.135 674.486 990.809 674.041C991.552 673.892 992.444 673.892 993.038 674.338C994.375 675.229 994.969 677.457 995.86 678.794C997.197 680.577 998.237 681.765 998.98 683.845C999.574 685.479 1000.02 687.113 1000.61 688.747C1000.76 689.044 1000.76 689.193 1001.06 689.342C1001.21 689.49 1001.51 689.342 1001.65 689.342C1002.84 689.193 1004.03 688.896 1005.22 688.747C1005.66 688.747 1005.96 688.599 1006.11 688.153C1006.26 687.708 1005.81 687.41 1005.52 687.262C1005.07 687.113 1004.62 687.262 1004.18 687.113C1003.29 686.965 1002.69 686.37 1002.25 685.776C1001.8 685.033 1001.51 684.291 1001.36 683.399C999.574 677.16 997.049 670.475 997.791 663.79C998.089 663.642 998.237 663.493 998.534 663.345C1000.02 662.602 1001.65 662.305 1003.14 661.562C1007.15 659.482 1007.45 655.026 1009.08 650.717C1009.53 649.232 1012.05 648.935 1013.09 647.895C1013.69 647.301 1014.88 645.964 1014.58 644.775C1014.43 643.587 1014.88 643.29 1014.43 642.993Z" fill="#7C3A15"/>
<path d="M1028.1 636.902C1026.91 636.456 1026.46 636.308 1025.27 636.605C1024.09 636.902 1020.97 638.536 1021.41 639.13C1021.86 639.724 1032.55 639.873 1032.7 639.427C1033 638.982 1029.88 637.348 1028.1 636.902Z" fill="#7C3A15"/>
<path d="M1032.7 660.968C1032.11 659.928 1031.51 659.037 1030.92 658.145C1030.18 656.957 1028.54 654.877 1027.65 653.391C1029.88 655.026 1030.62 656.065 1033.15 657.105C1034.48 657.7 1037.75 658.145 1038.94 657.402C1039.83 656.808 1037.6 656.363 1037.75 656.363C1036.86 656.065 1035.97 656.065 1035.08 655.768C1033.44 655.174 1031.81 654.283 1030.62 652.946C1028.24 650.569 1027.06 647.301 1025.87 644.033C1027.65 643.884 1028.99 642.25 1029.14 640.616C1029.28 638.833 1028.1 637.199 1026.31 636.753L1024.98 637.496C1023.64 638.239 1023.64 640.17 1023.19 641.656C1022.6 643.735 1020.82 645.37 1019.63 647.152C1017.85 650.272 1017.99 653.986 1018.14 657.402C1018.29 659.185 1018.44 660.968 1019.03 662.602C1020.67 666.91 1022.6 671.069 1021.86 675.823C1021.56 677.309 1021.26 678.646 1021.56 680.131C1026.46 679.091 1031.51 678.2 1036.42 677.16C1036.71 677.16 1037.01 677.012 1037.16 676.863C1037.31 676.714 1037.31 676.417 1037.16 676.269C1036.86 674.338 1036.56 672.406 1036.27 670.475C1035.97 668.247 1035.67 666.019 1034.63 664.087C1033.89 663.047 1033.3 662.008 1032.7 660.968Z" fill="#7C3A15"/>
<path d="M1026.02 677.754C1025.72 679.091 1025.27 681.617 1025.13 683.102C1024.98 683.994 1028.1 682.954 1029.58 682.508C1029.73 682.062 1028.99 681.765 1028.39 681.914C1027.8 682.062 1027.21 681.914 1027.06 681.468C1027.06 681.32 1027.06 681.171 1027.06 681.023C1027.35 679.388 1027.8 677.754 1028.39 676.269" fill="#7C3A15"/>
<path d="M1033.15 675.08C1033.15 675.08 1034.19 681.617 1034.34 681.765C1034.63 681.914 1037.31 681.468 1038.94 681.023C1039.09 680.577 1038.35 680.28 1037.75 680.428C1037.16 680.577 1036.27 680.428 1035.97 680.131C1035.67 679.983 1035.23 674.338 1035.23 674.338" fill="#7C3A15"/>
<path d="M1000.61 656.511C1001.51 664.236 1007.6 667.801 1015.02 667.801C1023.49 667.801 1030.92 663.048 1037.31 657.7C1037.75 657.402 1037.16 656.808 1036.86 657.105C1031.51 661.265 1026.02 665.276 1019.18 666.613C1011.01 668.098 1002.69 665.276 1001.06 656.363C1001.06 656.065 1000.61 656.214 1000.61 656.511Z" fill="#7C3A15"/>
<path d="M997.346 659.036C1001.06 657.402 1002.99 657.7 1006.56 659.482C1007.89 660.076 1009.08 660.819 1010.27 661.413C1013.09 662.602 1015.92 663.345 1019.03 663.345C1024.83 663.345 1030.62 660.373 1035.52 657.402C1035.67 657.254 1035.52 656.957 1035.38 657.105C1027.65 660.522 1021.11 664.533 1012.5 661.562C1006.26 659.334 1003.88 655.917 997.346 658.888C997.049 658.888 997.197 659.036 997.346 659.036Z" fill="#7C3A15"/>
<path d="M839.878 701.374C839.878 701.374 835.422 709.099 835.273 710.139C835.125 711.179 837.65 717.27 837.947 717.27C838.244 717.27 840.77 717.567 840.77 719.795L837.353 719.944L836.165 718.607L832.451 711.03L834.828 696.027L840.027 697.809L839.878 701.374Z" fill="#7C3A15"/>
<path d="M863.795 695.581C864.538 696.324 865.132 697.215 865.726 697.958C866.321 698.849 866.915 699.74 867.509 700.632C867.806 701.077 868.103 701.523 868.103 701.969C868.103 702.414 867.955 702.711 867.955 703.157C867.361 705.088 864.984 708.951 866.766 710.733C867.361 711.328 868.549 711.476 868.549 712.367C867.361 712.962 866.024 713.11 864.687 712.813C864.538 712.813 864.39 712.665 864.241 712.665C863.944 712.368 863.944 711.922 864.092 711.476C864.39 708.951 864.835 706.574 865.132 704.048C865.281 703.157 865.429 702.266 865.132 701.374C864.687 700.037 863.498 699.146 862.458 698.106C861.418 697.066 860.676 695.581 861.27 694.392C862.161 694.392 863.053 694.838 863.795 695.581Z" fill="#7C3A15"/>
<path d="M833.49 683.399C832.302 685.182 831.262 687.113 830.074 688.896C829.628 689.49 829.331 690.084 829.034 690.827C828.737 691.867 828.737 692.907 828.885 693.947C829.034 695.135 829.331 696.472 830.222 697.364C831.559 698.849 833.936 699.443 834.679 701.374C834.827 701.969 834.976 702.563 835.422 702.711C836.016 702.86 836.461 702.266 836.461 701.82C836.461 701.226 836.016 700.78 835.719 700.335C834.679 699.443 833.49 698.849 832.45 697.958C831.411 697.215 830.371 696.175 830.074 694.838C829.776 693.055 830.816 691.421 831.856 689.936C832.896 688.45 833.787 686.519 833.193 684.885" fill="#7C3A15"/>
<path d="M886.227 666.464C886.078 666.316 885.781 666.316 885.484 666.167C883.85 665.722 881.473 666.91 879.839 666.613C878.948 666.464 877.908 666.167 877.165 666.613C875.68 667.356 875.977 669.584 876.125 671.367C876.422 674.189 875.531 677.309 873.154 678.794C868.698 681.468 860.379 678.051 858.15 673.743C857.407 672.258 856.368 670.178 854.733 670.475C853.991 670.624 853.396 671.367 852.951 672.109C850.722 675.378 848.791 681.32 844.038 681.023C841.661 680.874 839.432 679.388 837.055 679.834C835.273 680.131 833.936 681.617 833.044 683.251C831.41 686.668 831.41 692.164 833.49 695.284C836.313 699.443 838.392 702.414 839.284 707.614C839.432 708.654 839.581 709.694 840.175 710.733C841.066 712.368 842.849 713.259 843.889 714.744C844.78 715.784 845.077 716.824 845.226 718.31C847.157 718.161 848.94 717.864 850.871 717.27C850.425 716.23 849.385 715.339 848.197 715.339C847.9 715.339 847.603 715.339 847.306 715.339C847.157 715.19 847.009 715.19 846.86 715.041C845.523 713.704 842.552 710.436 842.552 708.505C842.552 707.911 842.849 707.317 843.146 706.722C844.483 704.048 845.82 701.375 847.157 698.849C848.346 696.472 852.654 697.809 854.733 698.255C857.556 698.701 859.933 697.958 862.607 697.512C863.35 697.364 864.241 697.364 864.835 697.809C866.172 698.701 866.766 700.929 867.658 702.266C868.995 704.048 870.035 705.237 870.777 707.317C871.372 708.951 871.817 710.585 872.411 712.219C872.56 712.516 872.56 712.665 872.857 712.813C873.006 712.962 873.303 712.813 873.451 712.813C874.64 712.665 875.828 712.368 877.017 712.219C877.462 712.219 877.759 712.07 877.908 711.625C878.056 711.179 877.611 710.882 877.314 710.733C876.868 710.585 876.422 710.733 875.977 710.585C875.085 710.436 874.491 709.842 874.046 709.248C873.6 708.505 873.303 707.762 873.154 706.871C871.371 700.632 868.846 693.947 869.589 687.262C869.886 687.113 870.035 686.965 870.332 686.816C871.817 686.073 873.451 685.776 874.937 685.033C878.948 682.954 879.245 678.497 880.879 674.189C881.325 672.703 883.85 672.406 884.89 671.367C885.484 670.772 886.673 669.435 886.375 668.247C886.227 667.058 886.673 666.761 886.227 666.464Z" fill="#7C3A15"/>
<path d="M872.263 683.845C877.908 686.965 885.484 687.856 891.723 686.816C898.557 685.776 903.459 680.874 907.47 675.675C907.619 675.377 907.322 675.08 907.173 675.377C903.162 679.537 899.151 684.142 893.209 685.776C886.821 687.41 878.353 686.222 872.56 683.399C872.263 683.102 871.817 683.697 872.263 683.845Z" fill="#7C3A15"/>
<path d="M873.748 679.834C884.444 681.32 895.734 677.754 904.202 671.218C904.499 670.921 904.202 670.327 903.905 670.624C894.546 677.012 885.038 679.537 873.748 679.834C873.6 679.834 873.6 679.686 873.748 679.834Z" fill="#7C3A15"/>
<path d="M-113.097 582.234C-113.097 582.234 -20.9935 537.073 60.7114 487.159C94.2846 466.659 142.713 451.061 162.322 451.061C237.788 451.061 340.29 545.987 505.037 608.974C668.447 671.515 1021.26 757.528 1054.09 844.581C1086.92 931.633 574.858 1070.68 574.858 1070.68L-240.854 1054.34L-113.097 582.234Z" fill="url(#paint9_linear_215_191)"/>
<path d="M-113.097 582.234L-241.002 1054.34L314.293 1065.48C602.488 993.878 387.233 912.47 387.233 855.574C387.233 791.101 595.209 776.84 558.665 714.299C522.121 651.757 122.658 634.971 109.734 582.234C96.3642 527.269 182.971 523.704 188.171 485.971C192.479 455.517 162.174 451.061 162.174 451.061C142.565 451.061 94.1359 466.51 60.5627 487.159C-20.9936 537.073 -113.097 582.234 -113.097 582.234Z" fill="url(#paint10_linear_215_191)"/>
<path opacity="0.25" d="M1483.73 356.576C1483.08 347.734 1481.47 339.054 1478.26 330.855C1466.67 301.759 1432.89 279.736 1401.52 287.613C1382.05 292.435 1365 305.939 1355.99 323.782C1350.68 334.07 1346.82 346.931 1335.88 351.11C1316.26 358.826 1298.88 330.373 1277.81 331.659C1264.13 332.463 1254.8 345.323 1246.28 355.933C1237.75 366.703 1225.53 375.384 1212.66 370.561C1208.63 369.115 1205.42 366.221 1201.72 364.131C1189.49 357.54 1168.74 358.826 1157.15 366.864C1145.57 374.902 1138.33 396.925 1126.43 401.104C1113.24 405.766 1094.74 399.015 1083.15 399.175C1058.06 399.818 1039.72 402.39 1018 413C1018 413 1386.72 413 1416.32 413C1459.59 413 1474.23 398.05 1481.47 379.563C1484.37 372.33 1484.21 364.292 1483.73 356.576Z" fill="url(#paint11_linear_215_191)"/>
<path opacity="0.25" d="M235.222 374.979C223.7 375.357 211.989 371.955 202.544 365.341C192.533 358.349 181.767 347.2 170.244 351.357C166.278 352.869 163.067 355.893 159.289 357.593C146.256 363.074 133.033 350.602 119.056 349.09C115.656 348.712 111.311 349.468 109.8 352.491C107.344 357.216 110.933 367.987 102.622 368.365C100.544 368.554 98.6556 367.609 96.5778 367.042C94.5 366.475 92.2333 366.286 90.7222 367.798C89.5889 368.743 89.2111 370.255 88.6444 371.577C87.1333 374.601 84.3 376.68 81.0889 377.813C77.8778 378.947 72.4 381.404 69 381.782C122.833 381.026 202.167 382.538 256 381.782C250.333 377.058 242.211 374.79 235.222 374.979Z" fill="url(#paint12_linear_215_191)"/>
<path d="M1190.05 183.348C1190.66 182.807 1190.71 181.878 1190.16 181.275C1189.62 180.673 1188.69 180.624 1188.09 181.165C1187.49 181.707 1187.44 182.636 1187.98 183.238C1188.52 183.841 1189.45 183.89 1190.05 183.348Z" fill="#F9CA69"/>
<path d="M1186.27 194.508L1196.16 205.503C1198.29 207.879 1202.02 208.136 1204.45 205.943C1206.86 203.773 1207.06 200.062 1204.89 197.65L1199 191.099L1202.27 188.154C1202.88 187.611 1202.93 186.683 1202.38 186.081L1199.83 183.242C1200.04 183.152 1201.45 182.554 1226.2 172.015C1229.35 171.165 1230.52 167.268 1228.32 164.819L1221.79 157.564L1223.87 152.297C1224.07 151.779 1223.96 151.191 1223.59 150.778L1219.66 146.412C1219.29 145.998 1218.72 145.832 1218.18 145.978L1212.73 147.481L1205.48 139.426C1204.43 138.259 1202.89 137.746 1201.35 138.052C1201.33 138.055 1201.31 138.059 1201.29 138.063C1199.81 138.378 1198.62 139.401 1198.09 140.819L1184.39 168.696L1173.69 178.323C1169.48 182.109 1169.12 188.615 1172.92 192.836C1176.39 196.696 1182.11 197.292 1186.27 194.508ZM1202.71 199.614C1203.79 200.818 1203.7 202.673 1202.49 203.76C1201.28 204.851 1199.41 204.733 1198.34 203.54L1188.52 192.623L1192.89 188.696C1204.25 201.331 1202.53 199.411 1202.71 199.614ZM1197.04 188.916L1195.07 186.733L1197.26 184.769L1199.22 186.952L1197.04 188.916ZM1218.09 149.05L1220.8 152.067L1219.6 155.122L1214.92 149.922L1218.09 149.05ZM1200.82 141.884C1201.07 141.172 1201.67 140.977 1201.92 140.931C1202.17 140.882 1202.79 140.829 1203.3 141.389L1226.14 166.782C1226.88 167.609 1226.47 168.934 1225.38 169.192C1225.19 169.238 1225.11 169.292 1224.63 169.492L1200.47 142.632C1200.74 142.076 1200.78 142.02 1200.82 141.884ZM1199.07 145.472L1221.77 170.708L1197.76 180.934L1187.34 169.354L1199.07 145.472ZM1175.1 190.873C1174.24 189.915 1173.64 188.747 1173.38 187.494C1172.84 184.932 1173.71 182.255 1175.65 180.506L1185.47 171.671L1195.29 182.586L1185.47 191.422C1182.46 194.129 1177.81 193.882 1175.1 190.873Z" fill="#F9CA69"/>
<path d="M1185.8 185.202C1185.26 184.599 1184.33 184.55 1183.73 185.092L1181.54 187.056C1180.94 187.597 1180.01 187.547 1179.47 186.946C1178.93 186.343 1178 186.294 1177.4 186.836C1176.79 187.378 1176.74 188.307 1177.29 188.909C1178.9 190.706 1181.69 190.87 1183.51 189.239L1185.69 187.275C1186.29 186.733 1186.34 185.805 1185.8 185.202Z" fill="#F9CA69"/>
<path d="M1233.73 134.397L1226.67 140.547C1226.06 141.08 1226 142.008 1226.53 142.619C1227.06 143.229 1227.99 143.295 1228.6 142.761L1235.66 136.611C1236.27 136.078 1236.33 135.151 1235.8 134.54C1235.27 133.928 1234.34 133.865 1233.73 134.397Z" fill="#F9CA69"/>
<path d="M1236.04 149.45L1230.18 149.14C1229.37 149.097 1228.68 149.718 1228.64 150.528C1228.59 151.338 1229.21 152.029 1230.02 152.071L1235.89 152.382C1236.7 152.425 1237.39 151.798 1237.43 150.994C1237.48 150.184 1236.85 149.492 1236.04 149.45Z" fill="#F9CA69"/>
<path d="M1217.84 132.313L1217.53 138.178C1217.49 138.988 1218.11 139.679 1218.92 139.722C1219.73 139.765 1220.42 139.145 1220.46 138.334L1220.77 132.469C1220.81 131.659 1220.19 130.968 1219.38 130.925C1218.57 130.882 1217.88 131.503 1217.84 132.313Z" fill="#F9CA69"/>
<path d="M210.404 183.237L190.867 181.076C190.114 180.993 189.375 181.324 188.938 181.942C188.5 182.561 188.432 183.368 188.76 184.05L197.793 202.826C198.122 203.509 198.794 203.959 199.551 204.003C199.91 204.024 200.261 203.951 200.574 203.8C200.92 203.634 201.219 203.372 201.432 203.036L211.936 186.422C212.32 185.815 212.364 185.053 212.053 184.405C211.741 183.758 211.118 183.316 210.404 183.237ZM199.919 197.632L194.145 185.631L206.633 187.013L199.919 197.632Z" fill="#F9CA69"/>
<path d="M211.701 154.516L166.388 176.316C161.211 178.806 159.026 185.044 161.516 190.22L175.969 220.262C178.46 225.438 184.697 227.624 189.874 225.133L235.186 203.334C240.363 200.843 242.548 194.606 240.058 189.429L225.605 159.388C223.115 154.211 216.877 152.026 211.701 154.516ZM236.302 191.236C237.797 194.342 236.485 198.084 233.38 199.579L188.067 221.378C184.961 222.872 181.219 221.561 179.724 218.455L165.272 188.414C163.777 185.308 165.089 181.565 168.195 180.071L213.507 158.272C216.613 156.777 220.356 158.089 221.85 161.195L236.302 191.236Z" fill="#F9CA69"/>
</g>
<defs>
<linearGradient id="paint0_linear_215_191" x1="719.949" y1="739.981" x2="719.949" y2="0" gradientUnits="userSpaceOnUse">
<stop offset="0.08" stop-color="#FFD876"/>
<stop offset="0.55" stop-color="#FFB961"/>
<stop offset="0.83" stop-color="#FF9246"/>
<stop offset="1" stop-color="#FF7532"/>
</linearGradient>
<linearGradient id="paint1_linear_215_191" x1="661.178" y1="1030.64" x2="661.178" y2="403.052" gradientUnits="userSpaceOnUse">
<stop stop-color="#FBE07F" stop-opacity="0"/>
<stop offset="1" stop-color="#DF4924" stop-opacity="0.05"/>
</linearGradient>
<linearGradient id="paint2_linear_215_191" x1="-84.5348" y1="571.774" x2="1555.01" y2="571.774" gradientUnits="userSpaceOnUse">
<stop offset="0.5051" stop-color="#F9AC4B"/>
<stop offset="0.6424" stop-color="#F9B350"/>
<stop offset="0.8353" stop-color="#F9C55F"/>
<stop offset="1" stop-color="#F9DA70"/>
</linearGradient>
<linearGradient id="paint3_linear_215_191" x1="30.5857" y1="564.322" x2="1090.5" y2="564.322" gradientUnits="userSpaceOnUse">
<stop stop-color="#EDDC69" stop-opacity="0"/>
<stop offset="1" stop-color="#EE8424" stop-opacity="0.4"/>
</linearGradient>
<linearGradient id="paint4_linear_215_191" x1="-114.968" y1="778.662" x2="1569.33" y2="778.662" gradientUnits="userSpaceOnUse">
<stop offset="0.4439" stop-color="#F9B550"/>
<stop offset="1" stop-color="#F9DD85"/>
</linearGradient>
<linearGradient id="paint5_linear_215_191" x1="207.916" y1="625.772" x2="1468.05" y2="1353.31" gradientUnits="userSpaceOnUse">
<stop offset="0.0561224" stop-color="#F9E185"/>
<stop offset="0.1237" stop-color="#FAD577"/>
<stop offset="0.353" stop-color="#FEB04B"/>
<stop offset="0.4694" stop-color="#FFA23A"/>
</linearGradient>
<linearGradient id="paint6_linear_215_191" x1="311.916" y1="786.625" x2="573.418" y2="525.123" gradientUnits="userSpaceOnUse">
<stop offset="0.648" stop-color="#EF9D44"/>
<stop offset="0.8134" stop-color="#F08828"/>
<stop offset="0.9405" stop-color="#F07B17"/>
</linearGradient>
<linearGradient id="paint7_linear_215_191" x1="687.129" y1="1228.93" x2="1449.46" y2="466.6" gradientUnits="userSpaceOnUse">
<stop offset="0.5102" stop-color="#F9AC4B"/>
<stop offset="0.6104" stop-color="#F9B152"/>
<stop offset="0.7517" stop-color="#F9C164"/>
<stop offset="0.9166" stop-color="#F9DA82"/>
<stop offset="1" stop-color="#F9E994"/>
</linearGradient>
<linearGradient id="paint8_linear_215_191" x1="477.323" y1="793.185" x2="1151.72" y2="793.185" gradientUnits="userSpaceOnUse">
<stop offset="0.2755" stop-color="#D9501C"/>
<stop offset="0.949" stop-color="#F98E2D"/>
</linearGradient>
<linearGradient id="paint9_linear_215_191" x1="-241.004" y1="760.859" x2="1055.45" y2="760.859" gradientUnits="userSpaceOnUse">
<stop offset="0.2041" stop-color="#F9EA90"/>
<stop offset="0.7857" stop-color="#F9B45A"/>
</linearGradient>
<linearGradient id="paint10_linear_215_191" x1="282.897" y1="598.761" x2="-80.2211" y2="1227.7" gradientUnits="userSpaceOnUse">
<stop stop-color="#DD6327"/>
<stop offset="0.3622" stop-color="#F89F49"/>
</linearGradient>
<linearGradient id="paint11_linear_215_191" x1="1018" y1="349.513" x2="1484.03" y2="349.513" gradientUnits="userSpaceOnUse">
<stop offset="0.1429" stop-color="#F9E675"/>
<stop offset="0.6276" stop-color="#F99749"/>
</linearGradient>
<linearGradient id="paint12_linear_215_191" x1="68.8111" y1="365.348" x2="255.807" y2="365.348" gradientUnits="userSpaceOnUse">
<stop offset="0.5051" stop-color="#F9A65A"/>
<stop offset="0.6664" stop-color="#F9AD5D"/>
<stop offset="0.8933" stop-color="#F9BF64"/>
<stop offset="1" stop-color="#F9CA69"/>
</linearGradient>
</defs>
</svg>
