<svg width="22" height="22" viewBox="0 0 22 22" fill="none" xmlns="http://www.w3.org/2000/svg">
<path d="M11.4 0.512C13.304 0.512 15.072 0.992 16.704 1.952C18.288 2.864 19.544 4.112 20.472 5.696C21.432 7.328 21.912 9.096 21.912 11C21.912 12.904 21.432 14.672 20.472 16.304C19.544 17.888 18.288 19.144 16.704 20.072C15.072 21.032 13.304 21.512 11.4 21.512C9.496 21.512 7.728 21.032 6.096 20.072C4.512 19.144 3.256 17.888 2.328 16.304C1.368 14.672 0.887999 12.904 0.887999 11C0.887999 9.112 1.368 7.352 2.328 5.72C3.256 4.136 4.512 2.88 6.096 1.952C7.728 0.991999 9.496 0.511999 11.4 0.512ZM11.688 11.96C11.576 12.088 11.44 12.152 11.28 12.152C11.12 12.152 10.976 12.088 10.848 11.96L6 7.112C5.888 7 5.752 6.944 5.592 6.944C5.432 6.944 5.288 7 5.16 7.112L3.744 8.528C3.632 8.656 3.576 8.8 3.576 8.96C3.576 9.12 3.632 9.256 3.744 9.368L10.848 16.472C10.976 16.6 11.12 16.664 11.28 16.664C11.44 16.664 11.576 16.6 11.688 16.472L18.792 9.368C18.92 9.256 18.984 9.12 18.984 8.96C18.984 8.8 18.92 8.656 18.792 8.528L17.4 7.112C17.288 7 17.144 6.944 16.968 6.944C16.808 6.944 16.664 7 16.536 7.112L11.688 11.96Z" fill="white"/>
</svg>
