<svg width="160" height="45" viewBox="0 0 160 45" fill="none" xmlns="http://www.w3.org/2000/svg">
<path id="Vector" d="M9.16772 0C7.7045 0 5.80756 1.54549 4.68852 2.57428C2.22831 4.74942 0 8.74907 0 11.9594C0 16.521 3.89493 18.243 4.88008 18.243C5.20488 18.243 5.4818 18.0761 5.4818 17.6371C5.4818 17.293 5.2627 17.0066 5.04472 16.7125C4.1427 15.3389 3.85297 14.0281 3.85297 12.2601C3.85297 8.5739 5.55979 5.19514 6.97561 3.64901C7.23667 3.3692 7.82654 2.76475 8.00304 2.76475C8.17825 2.76475 8.22165 2.90689 8.22165 3.34623L8.05717 27.4732C8.05717 31.2448 6.96456 32.7431 6.96456 33.6312C6.96456 34.0214 7.13417 34.1227 7.45801 34.1227C8.99138 34.1227 10.5195 32.2612 10.9524 31.5822C12.2948 29.2726 12.6241 27.4696 12.6241 22.2691V1.9952C12.6241 1.44643 12.4696 1.20921 11.9462 0.870855C11.1808 0.386692 10.3037 0 9.16772 0ZM53.0104 0.0673201C52.2892 0.0673201 51.9809 0.442845 51.9468 1.60484L51.7868 6.41615L47.5622 6.27034C47.306 6.2638 47.1902 6.34452 47.0781 6.56882C46.7193 7.23883 46.5305 7.76383 46.5305 8.63803C46.5305 9.34984 46.8545 9.42578 47.1434 9.42578L51.5388 9.55148L51.5254 18.7436C51.5254 20.6931 50.2902 23.2223 48.0986 25.3258C48.0986 25.3258 48.2871 24.6907 48.2764 24.0244C48.2764 22.1383 47.0577 20.4291 45.4331 19.2196L41.4677 16.2482C42.2989 15.2904 43.7072 13.3908 43.7072 11.7868C43.7072 10.5431 42.9221 10.0206 41.4585 10.0206C39.393 10.0206 36.9974 11.905 36.9974 14.6997C36.9974 15.7185 37.4525 16.6354 38.1442 17.3367C37.1892 19.1416 35.8379 21.5163 34.8345 23.2074C34.0766 24.5023 32.7945 26.4862 32.036 26.4862C31.4767 26.4862 31.2182 25.6097 31.2182 22.2424C31.2182 19.4448 31.4178 16.4031 31.5179 13.4835C31.5179 12.8143 31.4077 12.1969 30.5355 11.5917C29.7331 11.0796 28.7422 10.3644 27.7215 10.3644C25.4523 10.3644 23.9064 12.4442 22.846 14.4778C21.7486 16.5855 21.1552 18.3616 20.3181 20.9386L20.4105 12.0698C20.439 11.4374 20.2787 11.1919 19.7706 10.9767C19.1116 10.6983 18.1415 10.3774 17.2809 10.3774C16.5618 10.3774 16.4744 10.6862 16.4744 11.4388L16.3776 22.0807L16.3666 26.1851C16.3666 29.8857 16.8319 30.5027 19.0365 30.5027C20.257 30.5027 20.648 30.3599 20.6722 29.3493C20.7056 28.6809 21.0266 27.0616 21.4608 25.4376C22.7307 20.6442 24.2354 16.8528 26.8298 13.9632C27.1004 13.6827 27.3095 13.7831 27.2669 14.1808C27.2669 14.1808 26.8568 20.6679 26.8568 23.3213C26.8568 28.0404 27.5858 30.5029 29.9432 30.5029C32.2569 30.5029 34.5292 27.5419 35.7697 25.543L39.7488 18.9138C42.3272 21.1021 44.1265 22.7989 44.1265 24.863C44.1265 26.1459 43.3138 27.4011 42.076 27.4011C40.529 27.4011 39.5406 25.7761 38.4957 25.7761C37.6285 25.7761 36.5154 27.4438 36.5154 28.3908C36.5154 29.2847 38.474 30.5495 41.9882 30.5495C47.1759 30.5495 49.9589 27.0034 51.629 23.0765C51.9487 27.7372 53.8131 30.4597 56.721 30.4597C58.6283 30.4597 60.8328 28.0594 61.8355 25.1275C61.8355 25.1275 61.9345 25.8886 62.6961 27.448C63.7443 29.4843 65.3379 30.4193 67.3173 30.4193C69.7793 30.4193 71.8851 28.9327 73.1707 26.4382C73.3656 28.3284 74.959 30.41 77.5214 30.41C79.1299 30.41 80.5964 29.1825 81.5589 27.1605C81.5589 27.1605 82.8058 30.5 86.4121 30.5C88.4376 30.5 90.8362 28.631 91.4094 27.273L91.4725 29.2479L86.1217 34.1627C84.568 35.665 82.9153 37.8234 82.9153 40.2131C82.9153 43.2524 85.7963 45 88.3316 45C90.967 45 92.7157 43.3369 93.6736 41.9435C94.8791 40.1403 95.3883 36.742 95.3883 33.42L95.2688 28.4247C98.8751 24.4763 101.698 19.0187 102.954 15.1572L105.692 15.0855C106.222 15.0499 106.195 15.2579 106.122 15.5658C105.641 17.5908 105.221 19.8842 105.221 22.1681C105.221 25.9414 106.093 27.5834 107.348 28.9253C108.438 30.0497 109.523 30.4289 110.664 30.4289C112.896 30.4289 114.298 28.5927 114.742 27.4352C115.79 29.4715 117.335 30.4199 119.314 30.4199C121.776 30.4199 123.882 28.9333 125.167 26.4388C125.362 28.329 126.955 30.4107 129.518 30.4107C131.432 30.4107 132.543 29.3104 133.416 27.2374C133.433 27.9042 133.459 28.615 133.479 29.2815C133.502 29.6264 133.779 29.8447 134.027 29.9347C134.84 30.2414 135.555 30.3949 136.196 30.3949C137.87 30.3949 138.233 30.0525 138.233 28.963C138.233 27.1659 138.286 24.3265 138.799 22.0467C139.343 19.777 140.164 17.2075 141.297 15.4197C141.399 15.2349 141.649 15.2834 141.66 15.5072C141.823 19.3325 142.08 25.808 143.089 27.4843C143.586 28.2839 144.356 28.8666 145.508 28.8666C146.049 28.8666 146.711 28.6372 146.88 28.4941C147.052 28.3608 147.139 28.2126 147.128 27.9377C147.128 23.0476 148.659 18.3133 150.192 15.1303C150.235 15.0358 150.354 15.0285 150.35 15.1528L150.265 18.6762C150.265 24.4632 150.683 28.1192 153.585 29.8769C154.156 30.1949 154.799 30.361 155.453 30.3591C156.938 30.3591 158.285 29.5331 158.95 28.2047C159.492 27.1724 160 25.1855 160 24.0601C160 23.6244 160.005 22.9153 159.288 22.9153C158.895 22.9153 158.659 23.2041 158.565 23.6402C158.336 24.5856 158.149 25.3963 157.794 26.3309C157.455 27.2232 156.949 27.7428 156.35 27.7428C155.645 27.7428 155.288 27.1906 155.083 26.8494C154.185 25.4839 154.113 22.3469 154.113 19.7286L154.329 12.9894C154.329 12.4319 154.095 11.7646 153.231 11.2726C152.652 10.9402 151.185 10.3143 150.287 10.3143C149.454 10.3143 149.05 10.7843 148.75 11.4743C148.186 12.7135 146.302 17.5741 145.796 21.5259C145.778 21.63 145.648 21.652 145.639 21.5192C145.376 18.7246 145.241 15.3574 145.244 13.0858C145.244 12.399 145.076 11.4173 143.613 10.7811C142.902 10.4874 142.314 10.3076 141.596 10.3076C140.706 10.3076 140.514 10.7419 140.195 11.3173C139.186 13.1745 138.488 15.5964 137.442 18.6513L137.458 11.6609C137.458 11.334 137.257 10.9055 136.68 10.7902C135.252 10.4632 134.59 10.3147 134.026 10.3147C133.616 10.3147 133.391 10.6403 133.391 10.9923L133.314 22.9112C133.038 24.3702 131.918 27.8528 130.329 27.8528C129.025 27.8528 128.416 26.5367 128.416 21.0353L128.653 12.0943C128.653 11.5296 128.28 11.2924 127.738 11.0533C126.962 10.7463 126.345 10.6245 125.557 10.6245C124.567 10.6245 124.228 11.0962 124.428 12.2293C123.34 10.7636 122.253 9.95349 120.332 9.95349C116.476 9.95349 113.568 14.5742 113.568 21.289C113.531 23.1718 113.987 25.0433 113.987 25.0433C113.638 26.606 112.818 27.8798 111.685 27.8798C110.255 27.8798 109.344 25.8664 109.344 22.3771C109.344 18.8774 110.682 14.9302 110.682 13.8605C110.682 12.6166 109.864 11.8297 108.416 11.8297C107.69 11.8297 104.999 12.4378 103.619 12.6374C103.619 12.6374 103.775 11.9828 103.763 11.4682C103.763 10.2418 103.185 9.47316 101.751 9.47316C99.9985 9.47316 98.7116 10.7197 98.7116 12.8463C98.7116 13.8005 99.2633 14.6833 99.9937 15.1576C99.0457 19.0959 97.5043 22.0249 95.2329 25.2969L95.4243 12.0473C95.4243 11.6166 95.3091 11.349 94.462 11.0215C94.0142 10.8288 93.2844 10.6063 92.3644 10.6063C91.0311 10.6063 91.1194 11.5547 91.1906 12.2647C90.5806 11.1873 89.245 9.90834 87.1845 9.90834C81.5696 9.90834 79.8458 18.4366 80.6912 24.4932C80.6912 25.2317 79.9672 27.8528 78.3322 27.8528C77.028 27.8528 76.4194 26.5367 76.4194 21.0353L76.6583 12.0943C76.6583 11.5295 76.2836 11.2922 75.7411 11.0533C74.9655 10.7463 74.3506 10.6245 73.5623 10.6245C72.5727 10.6245 72.2331 11.0962 72.4333 12.2291C71.3457 10.7634 70.2561 9.95333 68.335 9.95333C64.4783 9.95333 61.5328 14.1792 61.5328 20.8937C61.5328 23.4568 59.3172 27.368 57.7635 27.368C56.9004 27.368 55.9814 25.7898 55.9814 21.7576C55.9857 19.0092 56.3621 9.65262 56.3621 9.65262L61.7852 9.56504C62.0441 9.56265 62.194 9.28093 62.2899 9.10736C62.539 8.60406 62.6594 8.26889 62.6594 7.66668C62.6594 7.12333 62.5502 6.92488 61.8506 6.88564L56.4454 6.56244L56.6753 1.54693C56.6915 1.23027 56.4996 1.02384 56.1526 0.869259C55.1063 0.461669 53.8231 0.0674797 53.0104 0.0673201ZM69.4239 13.2091C70.8698 13.2091 72.3371 14.5226 72.3371 19.1829C72.3371 25.0506 70.1909 27.7806 68.5406 27.7806C66.9935 27.7806 65.819 25.6054 65.819 21.333C65.819 17.0144 66.9659 13.2091 69.4239 13.2091ZM121.497 13.2091C122.943 13.2091 124.41 14.5226 124.41 19.1829C124.41 25.0506 122.264 27.7806 120.614 27.7806C119.066 27.7806 117.892 25.6054 117.892 21.333C117.892 17.0144 119.039 13.2091 121.497 13.2091ZM88.4692 13.2361C90.3562 13.2361 91.1909 15.1734 91.1909 18.9292C91.1909 24.5919 89.5009 27.8161 87.4485 27.8161C86.1382 27.8161 84.6316 25.6732 84.711 21.4584C84.711 18.7635 85.5932 13.2361 88.4692 13.2361ZM91.6639 32.1792V34.4097C91.6639 41.8111 89.6838 43.0744 88.0928 43.0744C87.49 43.0744 86.0133 42.6208 86.0133 40.7898C86.0133 38.2302 88.7 35.3183 89.5349 34.4186L91.6639 32.1792Z" fill="white"/>
</svg>
