<svg width="119" height="99" viewBox="0 0 119 99" fill="none" xmlns="http://www.w3.org/2000/svg">
<path id="&#226;&#128;&#157;" d="M67.262 99C67.262 99 59.8709 81.6398 67.262 81.6398C74.6532 81.6398 80.1965 80.8578 83.8921 79.2938C87.8956 77.7298 90.5133 74.7583 91.7452 70.3791C93.285 66 94.0549 59.9005 94.0549 52.0806V44.1043H76.501V0H119V37.5355C119 50.0474 118.384 60.3697 117.152 68.5023C115.92 76.3223 113.457 82.5782 109.761 87.2701C106.066 91.6493 100.83 94.7772 94.0549 96.654C87.2797 98.218 78.3487 99 67.262 99ZM0 99V81.6398C7.6991 81.6398 13.3964 80.8578 17.092 79.2938C21.0955 77.7298 23.7132 74.7583 24.9451 70.3791C26.177 66 26.7929 59.9005 26.7929 52.0806V44.1043H9.70087V0H51.738V37.5355C51.738 50.0474 51.122 60.3697 49.8902 68.5023C48.6583 76.3223 46.1946 82.5782 42.4991 87.2701C39.1115 91.6493 34.03 94.7772 27.2548 96.654C20.4796 98.218 11.3947 99 0 99Z" fill="white"/>
</svg>
