<svg width="240" height="240" viewBox="0 0 240 240" fill="none" xmlns="http://www.w3.org/2000/svg">
<g id="fi_1067256" clip-path="url(#clip0_361_337)">
<g id="Group">
<g id="Group_2">
<path id="Vector" d="M125.936 114.071C124.103 112.238 121.136 112.238 119.303 114.071C117.475 115.899 117.475 118.866 119.303 120.699C121.136 122.527 124.103 122.527 125.936 120.699C127.764 118.866 127.764 115.899 125.936 114.071Z" fill="#FAB55A"/>
</g>
</g>
<g id="Group_3">
<g id="Group_4">
<path id="Vector_2" d="M185.593 54.4077C176.434 45.2488 161.606 45.2483 152.446 54.4077C143.311 63.5431 143.31 78.4118 152.448 87.5548C161.586 96.6879 176.455 96.6917 185.593 87.5539C194.751 78.3954 194.753 63.5675 185.593 54.4077ZM178.964 80.9243C173.483 86.4059 164.561 86.4059 159.077 80.9253C153.595 75.44 153.594 66.5178 159.076 61.0367C164.571 55.5416 173.468 55.5406 178.964 61.0367C184.459 66.5314 184.46 75.4287 178.964 80.9243Z" fill="#FAB55A"/>
</g>
</g>
<g id="Group_5">
<g id="Group_6">
<path id="Vector_3" d="M238.627 1.37301C237.706 0.452858 236.45 -0.0458915 235.144 0.00332718C234.084 0.0412959 208.849 1.05567 178.851 11.6583C154.814 20.1455 134.778 32.2969 119.3 47.775C115.832 51.2432 112.457 54.921 109.228 58.7418C93.9242 49.7334 81.6607 52.5581 73.9081 56.707C56.0577 66.2601 45.0088 92.1988 45.0088 110.752C45.0102 112.647 46.1525 114.357 47.9038 115.082C48.4836 115.323 49.093 115.439 49.6967 115.439C50.9169 115.439 52.1155 114.963 53.0122 114.066C62.4261 104.653 74.0375 105.241 77.8306 105.74L79.4722 107.382C76.2415 115.069 73.639 122.713 71.7303 130.148C71.0412 132.839 71.2737 135.686 72.298 138.29C67.7848 140.37 63.4306 143.424 59.6394 147.215C47.5733 159.282 45.1232 188.688 45.0247 189.934C44.9169 191.302 45.4129 192.648 46.3827 193.618C47.2653 194.5 48.4593 194.991 49.6967 194.991C49.8196 194.991 49.9428 194.986 50.0661 194.976C51.3121 194.878 80.7195 192.428 92.7856 180.362C96.5754 176.572 99.6288 172.218 101.709 167.706C104.466 168.791 107.304 168.924 109.856 168.27C117.287 166.362 124.931 163.76 132.619 160.529L134.26 162.171C134.759 165.964 135.348 177.576 125.934 186.989C124.594 188.329 124.193 190.345 124.918 192.097C125.643 193.848 127.353 194.99 129.249 194.99C147.802 194.99 173.74 183.941 183.293 166.091C187.442 158.339 190.267 146.076 181.258 130.772C185.077 127.544 188.755 124.169 192.225 120.699C207.703 105.221 219.854 85.1854 228.341 61.1498C238.944 31.1508 239.958 5.91519 239.996 4.85582C240.043 3.55504 239.547 2.29364 238.627 1.37301ZM55.4891 100.67C58.401 86.5775 66.8586 71.114 78.3336 64.9724C86.0018 60.869 94.3835 61.2712 103.295 66.1495C95.7031 76.1348 89.1026 86.8925 83.6009 98.2527C83.5311 98.2095 82.6873 97.1488 81.1198 96.7953C80.4753 96.6496 68.0727 93.9819 55.4891 100.67ZM86.1565 173.733C79.7112 180.178 64.5917 183.577 55.0353 184.965C56.4238 175.408 59.8236 160.289 66.2684 153.844C69.8778 150.235 74.0628 147.499 78.2693 145.957L94.0437 161.732C92.5024 165.938 89.7664 170.123 86.1565 173.733ZM107.527 159.189C106.17 159.536 104.599 159.026 103.431 157.86C97.3667 151.796 94.9943 149.423 94.2499 148.679C92.8849 147.314 89.5376 143.967 82.144 136.573C80.975 135.402 80.465 133.831 80.8114 132.477C82.3128 126.629 84.2764 120.63 86.6642 114.574L125.427 153.337C119.37 155.725 113.372 157.688 107.527 159.189ZM175.029 161.667C168.887 173.142 153.424 181.6 139.332 184.511C143.825 176.057 144.816 165.294 143.174 158.767C142.793 157.251 141.804 156.489 141.749 156.4C153.108 150.898 163.865 144.297 173.852 136.705C178.73 145.618 179.132 154.001 175.029 161.667ZM185.597 114.07C181.373 118.294 176.825 122.374 172.078 126.198C160.668 135.385 148.109 143.167 134.71 149.362L90.6387 105.291C96.8337 91.8917 104.616 79.333 113.802 67.9241C117.629 63.1743 121.709 58.6256 125.931 54.404C139.818 40.5168 157.74 29.4647 179.214 21.5091L218.492 60.7865C210.537 82.2604 199.485 100.183 185.597 114.07ZM221.865 50.9001L189.101 18.1364C206.951 12.5921 222.48 10.516 230.232 9.76971C229.485 17.5224 227.408 33.0515 221.865 50.9001Z" fill="#FAB55A"/>
</g>
</g>
<g id="Group_7">
<g id="Group_8">
<path id="Vector_4" d="M112.674 193.616C110.843 191.786 107.874 191.787 106.044 193.617L92.7882 206.878C90.9582 208.709 90.9587 211.677 92.7892 213.507C94.6206 215.337 97.5887 215.337 99.4187 213.506L112.675 200.245C114.505 198.414 114.504 195.446 112.674 193.616Z" fill="#FAB55A"/>
</g>
</g>
<g id="Group_9">
<g id="Group_10">
<path id="Vector_5" d="M46.3846 127.327C44.5546 125.496 41.587 125.496 39.7556 127.326L26.4946 140.582C24.6637 142.412 24.6632 145.38 26.4932 147.211C28.3228 149.041 31.2904 149.043 33.1223 147.212L46.3832 133.956C48.2141 132.126 48.2146 129.158 46.3846 127.327Z" fill="#FAB55A"/>
</g>
</g>
<g id="Group_11">
<g id="Group_12">
<path id="Vector_6" d="M79.5298 200.25C77.7003 198.419 74.7317 198.419 72.9007 200.249L41.1477 231.998C39.3167 233.828 39.3167 236.796 41.1472 238.627C42.9767 240.457 45.9453 240.458 47.7763 238.627L79.5293 206.879C81.3603 205.048 81.3603 202.08 79.5298 200.25Z" fill="#FAB55A"/>
</g>
</g>
<g id="Group_13">
<g id="Group_14">
<path id="Vector_7" d="M42.0298 200.25C40.1998 198.419 37.2312 198.419 35.4007 200.249L3.64767 231.998C1.81674 233.828 1.81674 236.796 3.6472 238.627C5.47673 240.457 8.44532 240.458 10.2763 238.627L42.0293 206.879C43.8603 205.048 43.8603 202.08 42.0298 200.25Z" fill="#FAB55A"/>
</g>
</g>
<g id="Group_15">
<g id="Group_16">
<path id="Vector_8" d="M39.7512 160.471C37.9212 158.641 34.9526 158.641 33.1221 160.471L1.37377 192.224C-0.456698 194.055 -0.456698 197.023 1.37424 198.854C3.2047 200.684 6.17282 200.684 8.00329 198.853L39.7517 167.1C41.5821 165.269 41.5821 162.302 39.7512 160.471Z" fill="#FAB55A"/>
</g>
</g>
<g id="Group_17">
<g id="Group_18">
<path id="Vector_9" d="M145.82 94.1806C143.989 92.3501 141.022 92.3501 139.19 94.1806L132.562 100.809C130.732 102.639 130.732 105.607 132.562 107.438C134.393 109.269 137.361 109.269 139.192 107.438L145.82 100.81C147.65 98.9796 147.65 96.0115 145.82 94.1806Z" fill="#FAB55A"/>
</g>
</g>
</g>
<defs>
<clipPath id="clip0_361_337">
<rect width="240" height="240" fill="white"/>
</clipPath>
</defs>
</svg>
