<svg width="157" height="45" viewBox="0 0 157 45" fill="none" xmlns="http://www.w3.org/2000/svg">
<g id="Group">
<path id="Vector" d="M17.6938 1.41181C18.007 1.41181 18.1636 1.56839 18.4767 1.72498C16.5978 2.50789 14.7188 4.54346 13.7793 8.92777L10.3344 9.86727C11.4305 6.73562 13.6227 1.41181 17.6938 1.41181ZM19.4162 2.97764C19.7294 3.91713 20.0426 5.01321 20.0426 6.73562C20.0426 6.8922 20.0426 6.8922 20.0426 7.04878L15.5017 8.30144C16.4412 5.01321 18.007 3.60397 19.4162 2.97764ZM23.4874 5.79612L21.4518 6.42245C21.4518 6.26587 21.4518 6.10929 21.4518 5.9527C21.4518 4.54346 21.2952 3.44738 20.9821 2.50789C22.0781 2.82105 23.0176 4.2303 23.4874 5.79612ZM33.6652 8.30144C33.6652 8.14486 33.5087 7.98828 33.3521 7.98828C33.0389 7.98828 29.7507 7.67511 29.7507 7.67511C29.7507 7.67511 27.4019 5.32637 27.0888 5.16979C26.7756 4.85663 26.3059 5.01321 26.1493 5.01321C26.1493 5.01321 25.6795 5.16979 24.8966 5.48296C24.1137 3.2908 22.7045 1.25523 20.3557 1.25523H20.1992C19.5728 0.315732 18.6333 0.00256682 17.8504 0.00256682C12.2134 -0.154016 9.55154 6.8922 8.61204 10.4936C7.35938 10.8068 6.10672 11.2765 4.69748 11.7463C3.44482 12.0594 3.44482 12.216 3.28823 13.3121C3.13165 14.095 0 38.835 0 38.835L24.8966 43.5325L38.3627 40.5575C38.3627 40.5575 33.6652 8.61461 33.6652 8.30144Z" fill="#8DB849"/>
<path id="Vector_2" d="M33.1954 7.98825C33.0388 7.98825 29.7505 7.67509 29.7505 7.67509C29.7505 7.67509 27.4018 5.32635 27.0886 5.16977C26.9321 5.01318 26.9321 5.01318 26.7755 5.01318L24.8965 43.5325L38.3626 40.5574C38.3626 40.5574 33.6651 8.61458 33.6651 8.30142C33.6651 8.14483 33.3519 7.98825 33.1954 7.98825Z" fill="#5A863E"/>
<path id="Vector_3" d="M20.3561 15.504L18.6337 20.5146C18.6337 20.5146 17.2245 19.7317 15.3455 19.7317C12.6836 19.7317 12.527 21.2975 12.527 21.7673C12.527 23.9594 18.4771 24.8989 18.4771 30.2227C18.4771 34.4505 15.8152 37.1124 12.2138 37.1124C7.9861 37.1124 5.79395 34.4505 5.79395 34.4505L6.89002 30.6925C6.89002 30.6925 9.08218 32.5715 10.9612 32.5715C12.2138 32.5715 12.6836 31.632 12.6836 30.8491C12.6836 27.874 7.82952 27.7174 7.82952 22.8633C7.82952 18.7922 10.8046 14.8776 16.5981 14.8776C19.26 14.7211 20.3561 15.504 20.3561 15.504Z" fill="#FFFFFE"/>
<path id="Vector_4" d="M54.1775 24.7431C52.7683 23.9602 52.1419 23.3338 52.1419 22.5509C52.1419 21.4548 53.0814 20.8285 54.6473 20.8285C56.3697 20.8285 57.9355 21.6114 57.9355 21.6114L59.1882 17.8535C59.1882 17.8535 58.0921 16.914 54.8038 16.914C50.1064 16.914 46.9747 19.5759 46.9747 23.3338C46.9747 25.526 48.5405 27.0918 50.4195 28.1879C51.9854 29.1274 52.6117 29.7537 52.6117 30.6932C52.6117 31.6327 51.8288 32.5722 50.2629 32.5722C48.0708 32.5722 45.8786 31.4761 45.8786 31.4761L44.626 35.2341C44.626 35.2341 46.505 36.4868 49.7932 36.4868C54.4907 36.4868 57.9355 34.138 57.9355 29.9103C57.9355 27.5616 56.2131 25.8392 54.1775 24.7431ZM73.124 16.7574C70.7753 16.7574 68.8963 17.8535 67.487 19.5759L69.5226 8.92824H64.1988L59.0316 36.017H64.3554L66.0778 26.7787C66.7041 23.3338 68.5831 21.1417 70.3055 21.1417C71.5582 21.1417 72.0279 21.9246 72.0279 23.1773C72.0279 23.9602 72.0279 24.7431 71.8713 25.526L69.8358 36.1736H75.1596L77.1952 25.2128C77.3517 24.1168 77.5083 22.7075 77.5083 21.768C77.5083 18.6364 75.9425 16.7574 73.124 16.7574ZM86.7467 32.259C84.8677 32.259 84.2414 30.6932 84.2414 28.8142C84.2414 25.8392 85.8072 20.8285 88.6257 20.8285C90.5047 20.8285 91.131 22.3943 91.131 23.9602C91.131 27.405 89.5652 32.259 86.7467 32.259ZM89.4086 16.7574C82.9887 16.7574 78.761 22.5509 78.761 28.9708C78.761 33.042 81.2663 36.3302 86.1204 36.3302C92.3837 36.3302 96.6114 30.6932 96.6114 24.1168C96.6114 20.3588 94.4192 16.7574 89.4086 16.7574ZM105.067 32.4156C103.658 32.4156 102.875 31.6327 102.875 31.6327L103.814 26.6221C104.441 23.3338 106.163 21.1417 108.042 21.1417C109.608 21.1417 110.234 22.7075 110.234 24.1168C110.077 27.5616 108.042 32.4156 105.067 32.4156ZM110.234 16.7574C106.633 16.7574 104.597 19.889 104.597 19.889L104.91 17.0705H100.213C100.056 18.9495 99.5865 21.9246 99.1167 24.1168L95.3587 43.533H100.683L102.092 35.7039H102.248C102.248 35.7039 103.344 36.3302 105.38 36.3302C111.643 36.3302 115.714 29.9103 115.714 23.4904C115.714 20.0456 114.149 16.7574 110.234 16.7574ZM123.23 9.24141C121.508 9.24141 120.255 10.6507 120.255 12.3731C120.255 13.9389 121.195 15.035 122.761 15.035C124.483 15.035 125.892 13.9389 125.892 11.9033C125.892 10.3375 124.796 9.24141 123.23 9.24141ZM115.871 36.017H121.195L124.796 17.2271H119.472L115.871 36.017ZM138.262 17.2271H134.504L134.661 16.2876C134.974 14.4086 136.07 12.8428 137.793 12.8428C138.732 12.8428 139.515 13.156 139.515 13.156L140.611 8.92824C140.611 8.92824 139.672 8.4585 137.793 8.4585C135.914 8.4585 134.035 8.92824 132.625 10.1809C130.746 11.7467 129.963 13.9389 129.494 16.131L129.337 17.0705H126.832L126.049 21.1417H128.554L125.736 36.017H131.06L133.878 21.1417H137.479L138.262 17.2271ZM150.946 17.2271C150.946 17.2271 147.657 25.526 146.091 30.0669C145.935 28.6576 144.839 17.2271 144.839 17.2271H139.202L142.334 34.4512C142.334 34.7644 142.334 35.0775 142.177 35.3907C141.551 36.6434 140.455 37.7394 139.358 38.5224C138.419 39.3053 137.166 39.775 136.383 40.0882L137.793 44.6291C138.889 44.4725 141.081 43.533 142.96 41.8106C145.309 39.6184 147.657 36.017 149.849 31.3196L156.269 17.3837L150.946 17.2271Z" fill="white"/>
</g>
</svg>
