<svg width="160" height="47" viewBox="0 0 160 47" fill="none" xmlns="http://www.w3.org/2000/svg">
<g id="Group">
<path id="Vector" d="M30.4879 16.7805C33.4895 18.925 37.1665 20.1868 41.1379 20.1868V12.5486C40.3863 12.5487 39.6366 12.4704 38.9013 12.3147V18.3271C34.9303 18.3271 31.2537 17.0653 28.2514 14.9209V30.5083C28.2514 38.3059 21.9269 44.6266 14.1258 44.6266C11.2151 44.6266 8.50962 43.7471 6.26221 42.2386C8.82726 44.86 12.4044 46.4862 16.3619 46.4862C24.1635 46.4862 30.4882 40.1654 30.4882 32.3675V16.7805H30.4879ZM33.247 9.07449C31.713 7.3995 30.7058 5.23488 30.4879 2.84181V1.85938H28.3685C28.9019 4.90097 30.7216 7.49953 33.247 9.07449ZM11.1964 36.255C10.3394 35.1319 9.87623 33.7579 9.8783 32.3452C9.8783 28.7789 12.771 25.8873 16.3399 25.8873C17.005 25.8871 17.6662 25.9889 18.3 26.1899V18.381C17.5593 18.2795 16.8117 18.2364 16.0644 18.2522V24.3303C15.4301 24.1293 14.7686 24.0272 14.1033 24.0278C10.5345 24.0278 7.64189 26.9191 7.64189 30.4859C7.64189 33.0079 9.08779 35.1914 11.1964 36.255Z" fill="#FF004F"/>
<path id="Vector_2" d="M28.2514 14.9208C31.2538 17.0651 34.9303 18.3269 38.9014 18.3269V12.3145C36.6848 11.8426 34.7224 10.6849 33.247 9.07449C30.7215 7.49937 28.902 4.90081 28.3685 1.85938H22.8013V32.3672C22.7887 35.9238 19.9009 38.8036 16.3397 38.8036C14.2411 38.8036 12.3767 37.8038 11.196 36.255C9.08754 35.1914 7.64164 33.0078 7.64164 30.4861C7.64164 26.9196 10.5342 24.028 14.1031 24.028C14.7869 24.028 15.4459 24.1344 16.0641 24.3305V18.2524C8.40009 18.4107 2.23633 24.6697 2.23633 32.3674C2.23633 36.21 3.77125 39.6935 6.26243 42.2388C8.50985 43.7471 11.2153 44.6268 14.1261 44.6268C21.9273 44.6268 28.2516 38.3057 28.2516 30.5083V14.9208H28.2514Z" fill="white"/>
<path id="Vector_3" d="M38.9015 12.3146V10.6889C36.9026 10.6919 34.943 10.1324 33.2471 9.07437C34.7484 10.7171 36.7252 11.8499 38.9015 12.3146ZM28.3686 1.85942C28.3177 1.56874 28.2786 1.27615 28.2515 0.982436V0H20.5646V30.5082C20.5523 34.0643 17.6647 36.9441 14.1032 36.9441C13.0576 36.9441 12.0703 36.696 11.1961 36.2552C12.3768 37.8038 14.2412 38.8035 16.3397 38.8035C19.9006 38.8035 22.7889 35.924 22.8014 32.3674V1.85942H28.3686ZM16.0645 18.2524V16.5218C15.4222 16.434 14.7747 16.39 14.1263 16.3903C6.32441 16.3902 0 22.7112 0 30.5082C0 35.3964 2.48561 39.7044 6.26267 42.2385C3.77148 39.6934 2.23657 36.2097 2.23657 32.3673C2.23657 24.6697 8.40016 18.4107 16.0645 18.2524Z" fill="#00F2EA"/>
<path id="Vector_4" d="M127.97 38.2345C133.552 38.2345 138.077 33.7457 138.077 28.2091C138.077 22.6727 133.552 18.1831 127.97 18.1831H126.447C132.029 18.1831 136.554 22.6725 136.554 28.2091C136.554 33.7457 132.029 38.2345 126.447 38.2345H127.97Z" fill="#FF004F"/>
<path id="Vector_5" d="M126.309 18.1831H124.786C119.204 18.1831 114.678 22.6725 114.678 28.2091C114.678 33.7457 119.204 38.2345 124.786 38.2345H126.309C120.726 38.2345 116.201 33.7457 116.201 28.2091C116.201 22.6727 120.726 18.1831 126.309 18.1831Z" fill="#00F2EA"/>
<path id="Vector_6" d="M49.4668 13.6523V18.7341H55.4193V38.0979H61.3742V18.8713H66.2197L67.8812 13.6525L49.4668 13.6523ZM98.2028 13.6523V18.7341H104.155V38.0979H110.11V18.8713H114.956L116.617 13.6525L98.2028 13.6523ZM68.9898 16.5362C68.9898 14.9438 70.2894 13.6523 71.895 13.6523C73.502 13.6523 74.8031 14.9438 74.8031 16.5362C74.8031 18.1287 73.5028 19.4201 71.895 19.4201C70.2894 19.4193 68.9898 18.1287 68.9898 16.5362ZM68.9898 21.4807H74.8031V38.0979H68.9898V21.4807ZM77.2957 13.6523V38.0977H83.1112V31.781L84.9112 30.1315L90.5871 38.2349H96.8171L88.6476 26.4243L95.9859 19.2821H88.925L83.1112 25.0499V13.6523H77.2957ZM140.014 13.6523V38.0977H145.831V31.781L147.63 30.1315L153.307 38.2349H159.538L151.369 26.4243L158.707 19.2821H151.646L145.831 25.0499V13.6523H140.014Z" fill="white"/>
<path id="Vector_7" d="M126.447 38.2345C132.029 38.2345 136.555 33.7457 136.555 28.2091C136.555 22.6727 132.029 18.1831 126.447 18.1831H126.309C120.726 18.1831 116.201 22.6725 116.201 28.2091C116.201 33.7457 120.726 38.2345 126.309 38.2345H126.447ZM121.462 28.2091C121.462 25.516 123.664 23.3344 126.379 23.3344C129.092 23.3344 131.293 25.516 131.293 28.2091C131.293 30.9023 129.092 33.0851 126.379 33.0851C123.664 33.0846 121.462 30.9023 121.462 28.2091Z" fill="white"/>
</g>
</svg>
