<svg width="143" height="32" viewBox="0 0 143 32" fill="none" xmlns="http://www.w3.org/2000/svg">
<g id="Group 502">
<g id="g7433">
<path id="path7429" d="M44.4825 4.97575C43.9587 3.03035 42.4248 1.49647 40.4794 0.972704C36.9253 0 22.7089 0 22.7089 0C22.7089 0 8.49245 0 4.93834 0.935292C3.03035 1.45906 1.45906 3.03035 0.935292 4.97575C0 8.52986 0 15.9 0 15.9C0 15.9 0 23.3075 0.935292 26.8242C1.45906 28.7696 2.99293 30.3035 4.93834 30.8272C8.52986 31.7999 22.7089 31.7999 22.7089 31.7999C22.7089 31.7999 36.9253 31.7999 40.4794 30.8646C42.4248 30.3409 43.9587 28.807 44.4825 26.8616C45.4178 23.3075 45.4178 15.9374 45.4178 15.9374C45.4178 15.9374 45.4552 8.52986 44.4825 4.97575Z" fill="#FF0000"/>
<path id="polygon7431" d="M18.1816 9.09082V22.7087L30.0037 15.8997L18.1816 9.09082Z" fill="white"/>
</g>
<g id="g7451">
<g id="g7449">
<path id="path7435" d="M65.9565 28.9562C65.0586 28.3576 64.4226 27.4223 64.0485 26.1129C63.6744 24.8409 63.4873 23.12 63.4873 21.0249V18.1442C63.4873 16.0117 63.7118 14.2908 64.1233 12.9814C64.5722 11.672 65.2457 10.7367 66.1435 10.1381C67.0788 9.53953 68.276 9.24023 69.7725 9.24023C71.2315 9.24023 72.4287 9.53953 73.3266 10.1381C74.2245 10.7367 74.8605 11.7094 75.272 12.9814C75.6835 14.2534 75.908 15.9743 75.908 18.1442V21.0249C75.908 23.1574 75.7209 24.8409 75.3094 26.1503C74.8979 27.4223 74.2619 28.395 73.364 28.9936C72.4661 29.5922 71.2315 29.8915 69.6976 29.8915C68.1264 29.8541 66.8544 29.5548 65.9565 28.9562ZM71.0071 25.8136C71.2689 25.1776 71.3812 24.0927 71.3812 22.6336V16.4233C71.3812 15.0016 71.2689 13.9541 71.0071 13.2807C70.7452 12.6073 70.3336 12.308 69.6976 12.308C69.0991 12.308 68.6501 12.6447 68.4256 13.2807C68.1638 13.9541 68.0515 15.0016 68.0515 16.4233V22.6336C68.0515 24.0927 68.1638 25.1776 68.4256 25.8136C68.6501 26.4496 69.0991 26.7863 69.7351 26.7863C70.3336 26.7863 70.7452 26.487 71.0071 25.8136Z" fill="white"/>
<path id="path7437" d="M135.018 21.0624V22.0726C135.018 23.3446 135.056 24.3173 135.131 24.9533C135.206 25.5893 135.355 26.0756 135.617 26.3375C135.842 26.6368 136.216 26.7864 136.739 26.7864C137.413 26.7864 137.862 26.5245 138.124 26.0008C138.386 25.477 138.498 24.6165 138.535 23.382L142.389 23.6064C142.426 23.7935 142.426 24.018 142.426 24.3173C142.426 26.1504 141.94 27.5347 140.93 28.4325C139.919 29.3304 138.498 29.7794 136.665 29.7794C134.457 29.7794 132.923 29.0685 132.026 27.6843C131.128 26.3001 130.679 24.1676 130.679 21.2495V17.7702C130.679 14.7773 131.128 12.6074 132.063 11.2232C132.998 9.83894 134.57 9.16553 136.777 9.16553C138.311 9.16553 139.508 9.46482 140.331 10.026C141.154 10.5872 141.715 11.4851 142.052 12.6448C142.389 13.842 142.538 15.4881 142.538 17.5832V20.9876H135.018V21.0624ZM135.58 12.6822C135.355 12.9815 135.206 13.4305 135.131 14.0665C135.056 14.7025 135.018 15.6752 135.018 16.9846V18.4062H138.311V16.9846C138.311 15.7126 138.273 14.7399 138.198 14.0665C138.124 13.393 137.937 12.9441 137.712 12.6822C137.488 12.4203 137.114 12.2707 136.665 12.2707C136.141 12.2333 135.804 12.3829 135.58 12.6822Z" fill="white"/>
<path id="path7439" d="M55.0323 20.6886L49.9443 2.24463H54.3963L56.1921 10.5874C56.641 12.6451 56.9777 14.4034 57.2022 15.8625H57.3144C57.4641 14.815 57.8008 13.094 58.3245 10.6248L60.1951 2.24463H64.6471L59.4843 20.6886V29.5177H55.0697V20.6886H55.0323Z" fill="white"/>
<path id="path7441" d="M90.3863 9.61475V29.5552H86.8696L86.4955 27.1234H86.3833C85.448 28.9566 83.9889 29.8919 82.0809 29.8919C80.7715 29.8919 79.7988 29.4429 79.1628 28.5825C78.5268 27.722 78.2275 26.3752 78.2275 24.5046V9.61475H82.7169V24.2427C82.7169 25.1406 82.8292 25.7766 83.0162 26.1507C83.2033 26.5248 83.54 26.7119 83.9889 26.7119C84.3631 26.7119 84.7372 26.5996 85.1113 26.3378C85.4854 26.1133 85.7473 25.814 85.8969 25.4399V9.61475H90.3863Z" fill="white"/>
<path id="path7443" d="M113.395 9.61475V29.5552H109.878L109.504 27.1234H109.392C108.457 28.9566 106.998 29.8919 105.09 29.8919C103.78 29.8919 102.808 29.4429 102.172 28.5825C101.536 27.722 101.236 26.3752 101.236 24.5046V9.61475H105.726V24.2427C105.726 25.1406 105.838 25.7766 106.025 26.1507C106.212 26.5248 106.549 26.7119 106.998 26.7119C107.372 26.7119 107.746 26.5996 108.12 26.3378C108.494 26.1133 108.756 25.814 108.906 25.4399V9.61475H113.395Z" fill="white"/>
<path id="path7445" d="M102.582 5.87356H98.1299V29.5177H93.7528V5.87356H89.3008V2.24463H102.582V5.87356Z" fill="white"/>
<path id="path7447" d="M128.247 12.7946C127.985 11.5226 127.536 10.6247 126.937 10.0635C126.339 9.50236 125.478 9.20306 124.431 9.20306C123.608 9.20306 122.822 9.42753 122.111 9.91388C121.4 10.3628 120.839 10.9988 120.465 11.7471H120.428V1.23438H116.088V29.5176H119.792L120.241 27.647H120.353C120.69 28.3204 121.213 28.8442 121.924 29.2557C122.635 29.6298 123.383 29.8543 124.244 29.8543C125.778 29.8543 126.862 29.1435 127.573 27.7593C128.284 26.375 128.658 24.1677 128.658 21.2122V18.0696C128.621 15.7875 128.509 14.0292 128.247 12.7946ZM124.131 20.9129C124.131 22.372 124.057 23.4943 123.944 24.3174C123.832 25.1404 123.608 25.739 123.346 26.0757C123.046 26.4124 122.672 26.5995 122.223 26.5995C121.849 26.5995 121.513 26.5247 121.213 26.3376C120.914 26.1506 120.652 25.8887 120.465 25.552V14.2536C120.615 13.7299 120.877 13.2809 121.251 12.9068C121.625 12.5701 122.036 12.3831 122.448 12.3831C122.897 12.3831 123.271 12.5701 123.495 12.9068C123.757 13.2809 123.907 13.8795 124.019 14.7026C124.131 15.563 124.169 16.7602 124.169 18.2941V20.9129H124.131Z" fill="white"/>
</g>
</g>
</g>
</svg>
